<?xml version="1.0" encoding="UTF-8"?>
<svg version="1.1" xmlns="http://www.w3.org/2000/svg" width="373" height="80">
<path d="M0 0 C4.69560343 -0.07466101 9.39085443 -0.12884101 14.08691406 -0.16479492 C15.68137641 -0.17979745 17.27579808 -0.20020621 18.87011719 -0.22631836 C21.17393077 -0.26308134 23.4771946 -0.27981155 25.78125 -0.29296875 C26.48366821 -0.30845261 27.18608643 -0.32393646 27.90979004 -0.33988953 C33.20496014 -0.34165375 37.1559868 0.83440649 42 3 C44.80484867 5.98015171 45.203887 8.53807601 45.375 12.5 C45.20676565 17.55544235 43.55770974 20.44229026 40 24 C40.969375 24.763125 41.93875 25.52625 42.9375 26.3125 C45.42086332 28.26748815 45.9521672 28.85650159 47 32 C47.53776267 36.62828525 47.41295228 40.10802307 45.4375 44.375 C41.6268086 48.47882151 37.40831875 50.12226736 31.90063477 50.34057617 C30.41414063 50.3401085 28.92758489 50.32359692 27.44140625 50.29296875 C26.25767677 50.28660149 26.25767677 50.28660149 25.05003357 50.28010559 C22.55382739 50.26344452 20.05845808 50.22581779 17.5625 50.1875 C15.86003778 50.17243683 14.15756279 50.15875129 12.45507812 50.14648438 C8.3030678 50.1135825 4.1516753 50.06188951 0 50 C0 49.01 0 48.02 0 47 C0.639375 46.71125 1.27875 46.4225 1.9375 46.125 C4.15206079 45.17176549 4.15206079 45.17176549 5 43 C5.11105858 40.33627386 5.16410677 37.69948562 5.16796875 35.03515625 C5.17296135 33.8514872 5.17296135 33.8514872 5.17805481 32.64390564 C5.18312098 30.97362858 5.18546323 29.30334138 5.18530273 27.63305664 C5.18748832 25.07616515 5.20564446 22.51970568 5.22460938 19.96289062 C5.22754352 18.34114731 5.22952818 16.71940195 5.23046875 15.09765625 C5.23765427 14.33195816 5.24483978 13.56626007 5.25224304 12.77735901 C5.23586757 8.97672227 5.16057776 7.24086665 3 4 C2.01 3.67 1.02 3.34 0 3 C0 2.01 0 1.02 0 0 Z M22 4 C22 9.94 22 15.88 22 22 C25.86673565 21.36284249 25.86673565 21.36284249 27.75 19.4375 C29.5240649 15.97807345 29.68544624 12.76250382 29 9 C27.36318104 5.97136086 27.36318104 5.97136086 25 4 C24.01 4 23.02 4 22 4 Z M22 26 C22 32.27 22 38.54 22 45 C26.63708135 46.53929764 26.63708135 46.53929764 28.7578125 44.83203125 C31.00698568 41.51485446 31.12075367 37.93120276 31 34 C29.50831386 29.89786311 28.64397687 28.42931791 25 26 C24.01 26 23.02 26 22 26 Z " fill="#0083A9" transform="translate(0,2)"/>
<path d="M0 0 C6.66666667 0 13.33333333 0 20 0 C20.68835938 -0.03480469 21.37671875 -0.06960938 22.0859375 -0.10546875 C26.90785201 -0.27826773 30.17534185 -0.27827841 34 3 C39.40371762 10.05485357 39.6236792 16.31303969 39 25 C37.91919017 29.92722127 36.04061273 33.8432713 32 37 C29.35559361 37.8814688 27.71939248 38.16174818 25 38.1875 C23.9790625 38.20876953 23.9790625 38.20876953 22.9375 38.23046875 C21 38 21 38 18 36 C17.89193856 38.91765891 17.81267123 41.83131125 17.75 44.75 C17.71648437 45.575 17.68296875 46.4 17.6484375 47.25 C17.47521828 52.24772856 17.47521828 52.24772856 20.015625 56.390625 C20.67046875 56.92171875 21.3253125 57.4528125 22 58 C22 58.99 22 59.98 22 61 C14.74 61 7.48 61 0 61 C0.33 59.68 0.66 58.36 1 57 C1.66 57 2.32 57 3 57 C3.07594813 49.79181655 3.12855678 42.58373595 3.16479492 35.37524414 C3.17989881 32.92207992 3.20038321 30.46894276 3.22631836 28.01586914 C3.26263057 24.49358445 3.27971036 20.97165619 3.29296875 17.44921875 C3.30845261 16.34913986 3.32393646 15.24906097 3.33988953 14.11564636 C3.34011612 13.09481461 3.34034271 12.07398285 3.34057617 11.0222168 C3.34723801 10.12286911 3.35389984 9.22352142 3.36076355 8.29692078 C2.92533557 5.52462413 2.00421525 4.86176166 0 3 C0 2.01 0 1.02 0 0 Z M19 6 C16.50942749 8.49057251 16.7434187 9.28472659 16.734375 12.71875 C16.73179688 13.65074219 16.72921875 14.58273438 16.7265625 15.54296875 C16.73429687 16.51878906 16.74203125 17.49460937 16.75 18.5 C16.74226563 19.47582031 16.73453125 20.45164062 16.7265625 21.45703125 C16.72914062 22.38902344 16.73171875 23.32101563 16.734375 24.28125 C16.73663086 25.13783203 16.73888672 25.99441406 16.74121094 26.87695312 C16.80498428 29.21588547 16.80498428 29.21588547 19 31 C21.10820797 30.6814823 21.10820797 30.6814823 23 30 C25.03577268 22.81491997 25.37452592 16.38253437 24 9 C23.34 8.01 22.68 7.02 22 6 C21.01 6 20.02 6 19 6 Z " fill="#0083A9" transform="translate(84,15)"/>
<path d="M0 0 C1.65 0 3.3 0 5 0 C5 4.29 5 8.58 5 13 C12.59 13 20.18 13 28 13 C28.05607422 16.19623047 28.05607422 16.19623047 28.11328125 19.45703125 C28.15950257 21.5223208 28.21073366 23.58742953 28.26245117 25.65258789 C28.29569001 27.08704628 28.32372535 28.52163513 28.34643555 29.95629883 C28.38000271 32.01960807 28.43231413 34.08172303 28.48828125 36.14453125 C28.51446533 37.38565674 28.54064941 38.62678223 28.56762695 39.90551758 C29.03735654 43.26735975 29.53157889 43.88297894 32 46 C32 46.99 32 47.98 32 49 C23.66666667 49 15.33333333 49 7 49 C6.01 49.495 6.01 49.495 5 50 C-3.84370258 50.42792109 -3.84370258 50.42792109 -7 48 C-9.16369787 44.62692013 -9.23410086 41.87828723 -9.1953125 37.921875 C-9.18886719 36.76171875 -9.18242188 35.6015625 -9.17578125 34.40625 C-9.15902344 33.1996875 -9.14226562 31.993125 -9.125 30.75 C-9.11597656 29.52796875 -9.10695313 28.3059375 -9.09765625 27.046875 C-9.07409513 24.03105218 -9.04119706 21.01562508 -9 18 C-10.32 18 -11.64 18 -13 18 C-13 16.35 -13 14.7 -13 13 C-12.13375 12.649375 -11.2675 12.29875 -10.375 11.9375 C-5.47273726 9.12323806 -1.80576732 5.41730197 0 0 Z M11 16 C11 16.66 11 17.32 11 18 C9.02 18 7.04 18 5 18 C5 25.92 5 33.84 5 42 C8.79788698 43.12126781 8.79788698 43.12126781 12 43 C12.66 43.33 13.32 43.66 14 44 C14.02891949 39.70834738 14.04677118 35.41671964 14.0625 31.125 C14.07087891 29.90167969 14.07925781 28.67835937 14.08789062 27.41796875 C14.09111328 26.25136719 14.09433594 25.08476562 14.09765625 23.8828125 C14.10289307 22.80402832 14.10812988 21.72524414 14.11352539 20.61376953 C14.17883106 18.01767814 14.17883106 18.01767814 13 16 C12.34 16 11.68 16 11 16 Z " fill="#0083A9" transform="translate(135,3)"/>
<path d="M0 0 C1.77697266 -0.02513672 1.77697266 -0.02513672 3.58984375 -0.05078125 C7.42451564 0.35037115 9.80025545 1.28487493 13.0625 3.3125 C15.28785794 6.65053691 15.35228404 7.94069711 15.4765625 11.85546875 C15.53457031 13.46518555 15.53457031 13.46518555 15.59375 15.10742188 C15.6246875 16.22697266 15.655625 17.34652344 15.6875 18.5 C15.74550781 20.19672852 15.74550781 20.19672852 15.8046875 21.92773438 C15.89902533 24.7224925 15.98461652 27.51724278 16.0625 30.3125 C17.3825 30.6425 18.7025 30.9725 20.0625 31.3125 C18.66208479 34.69683676 17.39723395 36.68788603 14.0625 38.3125 C10.08805756 38.43490131 6.36599226 38.45269762 3.28515625 35.7578125 C2.67994141 35.04238281 2.67994141 35.04238281 2.0625 34.3125 C1.2375 34.9725 0.4125 35.6325 -0.4375 36.3125 C-4.43606026 38.94984826 -7.21052796 38.98778172 -11.9375 38.3125 C-15.61353491 35.785226 -16.73368438 34.31304939 -17.625 29.9375 C-16.68585286 24.98563328 -14.92133356 22.38428375 -10.9375 19.3125 C-7.03613199 17.34196171 -3.0590786 15.75972096 1.0625 14.3125 C1.0625 11.0125 1.0625 7.7125 1.0625 4.3125 C-0.5875 4.6425 -2.2375 4.9725 -3.9375 5.3125 C-3.5971875 7.1996875 -3.5971875 7.1996875 -3.25 9.125 C-2.78871602 13.01493205 -2.78871602 13.01493205 -3.9375 15.3125 C-7.04672196 16.86711098 -9.52569639 16.67805039 -12.9375 16.3125 C-14.875 15.1875 -14.875 15.1875 -15.9375 13.3125 C-16.51131284 9.54172989 -16.2560391 7.83160076 -14.25 4.5625 C-9.96961745 0.39780346 -5.8346077 0.01900524 0 0 Z M-1.5 20.4375 C-3.46964642 23.00660403 -3.73345261 25.11575755 -3.9375 28.3125 C-3.2775 28.9725 -2.6175 29.6325 -1.9375 30.3125 C-0.6175 29.9825 0.7025 29.6525 2.0625 29.3125 C2.0625 26.0125 2.0625 22.7125 2.0625 19.3125 C0.01211724 19.11773176 0.01211724 19.11773176 -1.5 20.4375 Z " fill="#0083A9" transform="translate(65.9375,14.6875)"/>
<path d="M0 0 C0.79921875 0.00644531 1.5984375 0.01289063 2.421875 0.01953125 C3.246875 0.03628906 4.071875 0.05304687 4.921875 0.0703125 C5.76234375 0.07933594 6.6028125 0.08835937 7.46875 0.09765625 C9.53658104 0.12115433 11.60426495 0.15702342 13.671875 0.1953125 C13.671875 4.1553125 13.671875 8.1153125 13.671875 12.1953125 C12.681875 12.1953125 11.691875 12.1953125 10.671875 12.1953125 C9.109375 9.8203125 9.109375 9.8203125 7.671875 7.1953125 C5.83303619 4.90802516 5.83303619 4.90802516 3.046875 5.0703125 C2.263125 5.1115625 1.479375 5.1528125 0.671875 5.1953125 C2.17905426 9.00157877 4.38776537 10.80257696 7.609375 13.2578125 C15.37795582 19.21868232 15.37795582 19.21868232 16.2890625 22.24609375 C16.87984653 27.42888094 16.83377648 30.76865043 13.671875 35.1953125 C9.97224659 38.45969051 6.6664628 38.52416734 1.94921875 38.3671875 C-1.16923392 38.13183258 -4.23966178 37.67977732 -7.328125 37.1953125 C-8.648125 37.1953125 -9.968125 37.1953125 -11.328125 37.1953125 C-11.328125 32.5753125 -11.328125 27.9553125 -11.328125 23.1953125 C-10.338125 23.1953125 -9.348125 23.1953125 -8.328125 23.1953125 C-7.046875 24.875 -7.046875 24.875 -5.828125 27.0703125 C-4.11553443 30.13321486 -3.35805557 31.17535879 -0.328125 33.1953125 C1.82462448 32.88690651 1.82462448 32.88690651 3.671875 32.1953125 C3.62508579 29.84783065 3.62508579 29.84783065 2.671875 27.1953125 C0.00445648 24.77386465 0.00445648 24.77386465 -3.265625 22.6328125 C-10.0901524 17.93942477 -10.0901524 17.93942477 -11.328125 14.1953125 C-11.78021048 9.22237221 -11.48548525 6.14201281 -8.328125 2.1953125 C-5.45636441 0.43916151 -3.34509761 -0.04778711 0 0 Z " fill="#0083A9" transform="translate(179.328125,14.8046875)"/>
<path d="M0 0 C1.65 0 3.3 0 5 0 C5 4.29 5 8.58 5 13 C6.98 13 8.96 13 11 13 C11 14.65 11 16.3 11 18 C9.02 18 7.04 18 5 18 C5.33 25.92 5.66 33.84 6 42 C8.475 41.505 8.475 41.505 11 41 C11.66 41.99 12.32 42.98 13 44 C7.44112255 48.71296131 4.57438453 50.58611309 -3 50 C-5.64432579 49.16494975 -6.6011807 48.62173623 -8.08935547 46.30175781 C-9.24341519 43.38474038 -9.22604271 41.05635664 -9.1953125 37.921875 C-9.18886719 36.76171875 -9.18242187 35.6015625 -9.17578125 34.40625 C-9.15902344 33.1996875 -9.14226562 31.993125 -9.125 30.75 C-9.11597656 29.52796875 -9.10695312 28.3059375 -9.09765625 27.046875 C-9.07409513 24.03105218 -9.04119706 21.01562508 -9 18 C-10.32 18 -11.64 18 -13 18 C-13 16.35 -13 14.7 -13 13 C-12.13375 12.649375 -11.2675 12.29875 -10.375 11.9375 C-5.47273726 9.12323806 -1.80576732 5.41730197 0 0 Z " fill="#0083A9" transform="translate(208,3)"/>
<path d="M0 0 C1.65 0 3.3 0 5 0 C5.495 8.415 5.495 8.415 6 17 C2.1328125 17.2475 2.1328125 17.2475 -1.8125 17.5 C-2.62050049 17.55220703 -3.42850098 17.60441406 -4.26098633 17.65820312 C-9.09230381 17.96368349 -13.26940389 18.02283159 -18 17 C-18.63807354 12.98203197 -19.15164183 9.07266637 -19 5 C-16.5625 2.25 -16.5625 2.25 -14 1 C-14 2.32 -14 3.64 -14 5 C-13.34 5 -12.68 5 -12 5 C-12 5.66 -12 6.32 -12 7 C-12.66 7 -13.32 7 -14 7 C-13.67 9.31 -13.34 11.62 -13 14 C-12.34 14 -11.68 14 -11 14 C-11.04125 12.88625 -11.0825 11.7725 -11.125 10.625 C-11 7 -11 7 -9 5 C-5.9375 4.8125 -5.9375 4.8125 -3 5 C-2 6 -2 6 -1.90234375 8.06640625 C-1.91394531 8.89011719 -1.92554688 9.71382812 -1.9375 10.5625 C-1.94652344 11.38878906 -1.95554688 12.21507813 -1.96484375 13.06640625 C-1.97644531 13.70449219 -1.98804688 14.34257813 -2 15 C-1.34 15 -0.68 15 0 15 C0 10.05 0 5.1 0 0 Z M-7 7 C-6 10 -6 10 -6 10 Z M-7 12 C-6 15 -6 15 -6 15 Z " fill="#231F20" transform="translate(182,58)"/>
<path d="M0 0 C4.95 0 9.9 0 15 0 C15 1.65 15 3.3 15 5 C20.61 5 26.22 5 32 5 C31.34 6.32 30.68 7.64 30 9 C30.348071 11.85418219 31.0895978 14.26879341 32 17 C30.33388095 17.042721 28.66617115 17.04063832 27 17 C26.67 16.67 26.34 16.34 26 16 C26 16.33 26 16.66 26 17 C25.113125 16.979375 24.22625 16.95875 23.3125 16.9375 C20.07269686 16.87187289 20.07269686 16.87187289 17.3125 17.6875 C15 18 15 18 13.1875 17 C10.52940255 12.5232043 12.04911705 6.87327513 13 2 C11.68 2 10.36 2 9 2 C9.11376617 4.12563103 9.24135631 6.2505261 9.375 8.375 C9.44460938 9.55835937 9.51421875 10.74171875 9.5859375 11.9609375 C9.70217346 15.10562319 9.70217346 15.10562319 12 17 C9.36 17 6.72 17 4 17 C4.66 16.67 5.32 16.34 6 16 C6 11.38 6 6.76 6 2 C2.88214887 2.64644661 2.88214887 2.64644661 2 5 C1.34 5 0.68 5 0 5 C0 3.35 0 1.7 0 0 Z M15 7 C15 7.66 15 8.32 15 9 C15.99 9 16.98 9 18 9 C18 8.34 18 7.68 18 7 C17.01 7 16.02 7 15 7 Z M21 7 C21 7.99 21 8.98 21 10 C19.02 10 17.04 10 15 10 C15.33 11.32 15.66 12.64 16 14 C17.32 14 18.64 14 20 14 C20 13.34 20 12.68 20 12 C20.66 12 21.32 12 22 12 C22.33 12.99 22.66 13.98 23 15 C23.66 14.34 24.32 13.68 25 13 C24.67958603 10.39719432 24.67958603 10.39719432 24 8 C23.01 7.67 22.02 7.34 21 7 Z " fill="#231F20" transform="translate(323,58)"/>
<path d="M0 0 C5.61 0 11.22 0 17 0 C17 0.66 17 1.32 17 2 C16.34 2 15.68 2 15 2 C15 6.62 15 11.24 15 16 C15.66 16.33 16.32 16.66 17 17 C11.39 17 5.78 17 0 17 C0.33 16.34 0.66 15.68 1 15 C1.22950319 12.795636 1.41075933 10.58607827 1.5625 8.375 C1.64628906 7.18648438 1.73007813 5.99796875 1.81640625 4.7734375 C1.87699219 3.85820313 1.93757813 2.94296875 2 2 C1.34 2 0.68 2 0 2 C0 1.34 0 0.68 0 0 Z M6 2 C6 3.65 6 5.3 6 7 C7.32 7 8.64 7 10 7 C10 5.35 10 3.7 10 2 C8.68 2 7.36 2 6 2 Z M6 10 C6 11.65 6 13.3 6 15 C7.32 15.33 8.64 15.66 10 16 C10 14.02 10 12.04 10 10 C8.68 10 7.36 10 6 10 Z " fill="#231F20" transform="translate(108,58)"/>
<path d="M0 0 C1.99954746 -0.04254356 4.00041636 -0.04080783 6 0 C7 1 7 1 7.09765625 3.06640625 C7.08605469 3.89011719 7.07445312 4.71382813 7.0625 5.5625 C7.05347656 6.38878906 7.04445313 7.21507813 7.03515625 8.06640625 C7.02355469 8.70449219 7.01195312 9.34257813 7 10 C7.66 10 8.32 10 9 10 C9 9.34 9 8.68 9 8 C11 8 11 8 12.625 9.5 C13.07875 9.995 13.5325 10.49 14 11 C9.09677419 6.70967742 9.09677419 6.70967742 8.625 3.25 C9 1 9 1 10 0 C11.99958364 -0.04080783 14.00045254 -0.04254356 16 0 C15.690625 1.175625 15.690625 1.175625 15.375 2.375 C15.25125 3.24125 15.1275 4.1075 15 5 C15.66 5.66 16.32 6.32 17 7 C16.44444444 11.55555556 16.44444444 11.55555556 15 13 C12.48863896 13.09975032 10.01096585 13.13882183 7.5 13.125 C6.79746094 13.12886719 6.09492188 13.13273437 5.37109375 13.13671875 C0.12661378 13.12661378 0.12661378 13.12661378 -1 12 C-1.04384447 10.33391013 -1.0396713 8.66619446 -1 7 C-1 6.01 -1 5.02 -1 4 C-0.6937566 2.66018514 -0.36548445 1.32488113 0 0 Z M2 2 C1.67 2.99 1.34 3.98 1 5 C1.99 5 2.98 5 4 5 C4 4.01 4 3.02 4 2 C3.34 2 2.68 2 2 2 Z M12 2 C12 2.66 12 3.32 12 4 C12.66 4 13.32 4 14 4 C14 3.34 14 2.68 14 2 C13.34 2 12.68 2 12 2 Z M2 7 C2 7.99 2 8.98 2 10 C2.66 10 3.32 10 4 10 C4 9.01 4 8.02 4 7 C3.34 7 2.68 7 2 7 Z " fill="#231F20" transform="translate(294,63)"/>
<path d="M0 0 C1.4540625 0.0309375 1.4540625 0.0309375 2.9375 0.0625 C4.54475635 3.27701269 3.99498185 6.49862536 3.9375 10.0625 C4.5975 10.0625 5.2575 10.0625 5.9375 10.0625 C6.2675 9.4025 6.5975 8.7425 6.9375 8.0625 C8.2575 9.0525 9.5775 10.0425 10.9375 11.0625 C10.1125 10.340625 9.2875 9.61875 8.4375 8.875 C5.9375 6.0625 5.9375 6.0625 5.5625 3.3125 C5.9375 1.0625 5.9375 1.0625 6.9375 0.0625 C8.93708364 0.02169217 10.93795254 0.01995644 12.9375 0.0625 C12.9375 1.3825 12.9375 2.7025 12.9375 4.0625 C12.2775 4.0625 11.6175 4.0625 10.9375 4.0625 C10.9375 3.4025 10.9375 2.7425 10.9375 2.0625 C9.9475 2.5575 9.9475 2.5575 8.9375 3.0625 C9.5975 3.43375 10.2575 3.805 10.9375 4.1875 C12.9375 6.0625 12.9375 6.0625 13.1875 9.25 C13.105 10.178125 13.0225 11.10625 12.9375 12.0625 C9.784132 12.76324844 7.21025026 13.0625 3.9375 13.0625 C2.74125 13.10375 1.545 13.145 0.3125 13.1875 C-3.0625 13.0625 -3.0625 13.0625 -5.0625 11.0625 C-5.07421875 8.71484375 -5.07421875 8.71484375 -4.75 6 C-4.65074219 5.10152344 -4.55148437 4.20304687 -4.44921875 3.27734375 C-3.85014997 -0.15368653 -3.61047559 0.07368318 0 0 Z M-1.0625 2.0625 C-1.3925 3.0525 -1.7225 4.0425 -2.0625 5.0625 C-1.0725 4.7325 -0.0825 4.4025 0.9375 4.0625 C0.9375 3.4025 0.9375 2.7425 0.9375 2.0625 C0.2775 2.0625 -0.3825 2.0625 -1.0625 2.0625 Z M-0.0625 6.0625 C-0.7225 7.3825 -1.3825 8.7025 -2.0625 10.0625 C-1.0725 10.0625 -0.0825 10.0625 0.9375 10.0625 C0.6075 8.7425 0.2775 7.4225 -0.0625 6.0625 Z " fill="#231F20" transform="translate(360.0625,62.9375)"/>
<path d="M0 0 C1.9375 1.0625 1.9375 1.0625 3 3 C3.36528977 6.4093712 3.6140629 8.88023824 1.9375 11.9375 C-1.11976176 13.6140629 -3.5906288 13.36528977 -7 13 C-8.9375 11.9375 -8.9375 11.9375 -10 10 C-10.36528977 6.5906288 -10.6140629 4.11976176 -8.9375 1.0625 C-5.88023824 -0.6140629 -3.4093712 -0.36528977 0 0 Z " fill="#0083A9" transform="translate(159,0)"/>
<path d="M0 0 C8.34228909 -0.48361096 8.34228909 -0.48361096 11.125 1.5625 C12.36557904 5.01839875 11.84932967 7.47201523 11 11 C10.34 11.66 9.68 12.32 9 13 C7.68 13 6.36 13 5 13 C5 13.99 5 14.98 5 16 C5.66 16.33 6.32 16.66 7 17 C4.69 17 2.38 17 0 17 C0 11.39 0 5.78 0 0 Z M5 3 C5 5.31 5 7.62 5 10 C5.66 10 6.32 10 7 10 C7 7.69 7 5.38 7 3 C6.34 3 5.68 3 5 3 Z " fill="#231F20" transform="translate(145,63)"/>
<path d="M0 0 C0.33 1.98 0.66 3.96 1 6 C0.01 5.67 -0.98 5.34 -2 5 C-2 4.34 -2 3.68 -2 3 C-2.99 3 -3.98 3 -5 3 C-5 3.99 -5 4.98 -5 6 C-4.01 6.5775 -3.02 7.155 -2 7.75 C-1.01 8.4925 -0.02 9.235 1 10 C1.5 13.625 1.5 13.625 1 17 C-1 19 -1 19 -2.9453125 19.1953125 C-4.96354167 19.13020833 -6.98177083 19.06510417 -9 19 C-9.33 16.69 -9.66 14.38 -10 12 C-9.34 12 -8.68 12 -8 12 C-7.67 13.32 -7.34 14.64 -7 16 C-5.68 16 -4.36 16 -3 16 C-3.13034494 14.12946603 -3.13034494 14.12946603 -4 12 C-5.2684375 11.071875 -5.2684375 11.071875 -6.5625 10.125 C-9 8 -9 8 -9.5 4.875 C-9.335 3.92625 -9.17 2.9775 -9 2 C-5.5647952 -0.29013653 -4.014669 -0.17842973 0 0 Z " fill="#231F20" transform="translate(237,57)"/>
<path d="M0 0 C0 1.98 0 3.96 0 6 C0.804375 5.979375 1.60875 5.95875 2.4375 5.9375 C5 6 5 6 6 7 C6.23363881 8.84891946 6.41303635 10.70488031 6.5625 12.5625 C6.64628906 13.57441406 6.73007812 14.58632812 6.81640625 15.62890625 C6.87699219 16.41136719 6.93757813 17.19382812 7 18 C5.35 18 3.7 18 2 18 C2 15.03 2 12.06 2 9 C1.67 9 1.34 9 1 9 C1 11.97 1 14.94 1 18 C-0.65 18 -2.3 18 -4 18 C-4 12.39 -4 6.78 -4 1 C-2 0 -2 0 0 0 Z " fill="#231F20" transform="translate(274,57)"/>
<path d="M0 0 C1.65 0 3.3 0 5 0 C5 3.3 5 6.6 5 10 C5.99 10 6.98 10 8 10 C8 7.36 8 4.72 8 2 C7.34 2 6.68 2 6 2 C6 1.34 6 0.68 6 0 C7.65 0 9.3 0 11 0 C11 3.3 11 6.6 11 10 C11.66 10 12.32 10 13 10 C13 10.66 13 11.32 13 12 C8.98195309 12.84098656 5.98196457 13.05404945 2 12 C2 8.7 2 5.4 2 2 C1.34 2 0.68 2 0 2 C0 1.34 0 0.68 0 0 Z " fill="#231F20" transform="translate(250,63)"/>
<path d="M0 0 C2 2 2 2 2.3125 5.9375 C2.23660758 8.54630189 2.13100187 9.77247043 0.8125 12.0625 C-1 13 -1 13 -3.5625 12.8125 C-6 12 -6 12 -8 10 C-8.55416667 3.90416667 -8.55416667 3.90416667 -6.8125 1.0625 C-4.37896796 -0.36405327 -2.77457104 -0.35571424 0 0 Z M-4 2 C-4 4.64 -4 7.28 -4 10 C-3.01 10.495 -3.01 10.495 -2 11 C-2 8.03 -2 5.06 -2 2 C-2.66 2 -3.32 2 -4 2 Z " fill="#231F20" transform="translate(133,63)"/>
<path d="M0 0 C2 2 2 2 2.3125 5.9375 C2.23719217 8.53091352 2.15247863 9.74319388 0.8125 12 C-1.66525842 13.36703913 -3.21155919 13.41826612 -6 13 C-7.8125 11.9375 -7.8125 11.9375 -9 10 C-9.63316583 4.09045226 -9.63316583 4.09045226 -7.875 1.0625 C-5.15050101 -0.48138276 -3.07108055 -0.3267107 0 0 Z M-5 2 C-6.35618499 3.12534105 -6.35618499 3.12534105 -6.0625 6.0625 C-6.041875 7.031875 -6.02125 8.00125 -6 9 C-4.02 9.99 -4.02 9.99 -2 11 C-0.66351983 9.88898816 -0.66351983 9.88898816 -0.875 7.0625 C-0.78674336 4.08454272 -0.78674336 4.08454272 -2 2 C-2.99 2 -3.98 2 -5 2 Z " fill="#231F20" transform="translate(212,63)"/>
<path d="M0 0 C2 2 2 2 2.3125 5.9375 C2.23719217 8.53091352 2.15247863 9.74319388 0.8125 12 C-1.69461993 13.38323858 -3.1819827 13.49315303 -6 13 C-8.5348994 10.72733157 -8.96041822 9.32325124 -9.375 5.9375 C-9 3 -9 3 -7.875 1.125 C-5.15781176 -0.50531294 -3.10347254 -0.33015665 0 0 Z M-4 1 C-4.66 1.66 -5.32 2.32 -6 3 C-5.67673447 6.59679066 -5.67673447 6.59679066 -5 10 C-3.68 10 -2.36 10 -1 10 C-0.59250325 5.74268432 -0.59250325 5.74268432 -2.5 2.125 C-2.995 1.75375 -3.49 1.3825 -4 1 Z " fill="#231F20" transform="translate(248,63)"/>
<path d="M0 0 C1.4540625 0.0309375 1.4540625 0.0309375 2.9375 0.0625 C2.751875 0.866875 2.56625 1.67125 2.375 2.5 C2.1584375 3.7684375 2.1584375 3.7684375 1.9375 5.0625 C2.2675 5.3925 2.5975 5.7225 2.9375 6.0625 C2.97830783 8.06208364 2.98004356 10.06295254 2.9375 12.0625 C0.22870665 13.41689668 -2.07183268 13.12751451 -5.0625 13.0625 C-5.0625 0.10331633 -5.0625 0.10331633 0 0 Z M-1.0625 2.0625 C-1.0625 2.7225 -1.0625 3.3825 -1.0625 4.0625 C-0.4025 3.7325 0.2575 3.4025 0.9375 3.0625 C0.2775 2.7325 -0.3825 2.4025 -1.0625 2.0625 Z M-3.0625 8.0625 C-2.7325 9.0525 -2.4025 10.0425 -2.0625 11.0625 C-1.4025 11.0625 -0.7425 11.0625 -0.0625 11.0625 C-0.3925 10.0725 -0.7225 9.0825 -1.0625 8.0625 C-1.7225 8.0625 -2.3825 8.0625 -3.0625 8.0625 Z " fill="#231F20" transform="translate(141.0625,62.9375)"/>
<path d="M0 0 C1.4540625 0.0309375 1.4540625 0.0309375 2.9375 0.0625 C3.15901549 1.85258467 3.36432213 3.64468162 3.5625 5.4375 C3.67851562 6.43523437 3.79453125 7.43296875 3.9140625 8.4609375 C3.92179688 9.31945312 3.92953125 10.17796875 3.9375 11.0625 C1.9375 13.0625 1.9375 13.0625 -1.1875 13.1875 C-2.610625 13.125625 -2.610625 13.125625 -4.0625 13.0625 C-4.08936553 11.08340602 -4.10883375 9.10421029 -4.125 7.125 C-4.13660156 6.02285156 -4.14820313 4.92070313 -4.16015625 3.78515625 C-4.02168594 -0.07539595 -3.9087853 0.07977113 0 0 Z M-1.0625 2.0625 C-0.4025 2.7225 0.2575 3.3825 0.9375 4.0625 C0.9375 3.4025 0.9375 2.7425 0.9375 2.0625 C0.2775 2.0625 -0.3825 2.0625 -1.0625 2.0625 Z M-3.0625 8.0625 C-2.0725 9.0525 -1.0825 10.0425 -0.0625 11.0625 C-0.3925 10.0725 -0.7225 9.0825 -1.0625 8.0625 C-1.7225 8.0625 -2.3825 8.0625 -3.0625 8.0625 Z " fill="#231F20" transform="translate(193.0625,62.9375)"/>
<path d="M0 0 C0.94875 0.04125 1.8975 0.0825 2.875 0.125 C3.205 1.775 3.535 3.425 3.875 5.125 C1.895 5.455 -0.085 5.785 -2.125 6.125 C-2.125 7.115 -2.125 8.105 -2.125 9.125 C-0.475 9.125 1.175 9.125 2.875 9.125 C2.875 8.465 2.875 7.805 2.875 7.125 C3.535 7.125 4.195 7.125 4.875 7.125 C4.1875 9.5625 4.1875 9.5625 2.875 12.125 C0.4375 13.0625 0.4375 13.0625 -2.125 13.125 C-3.115 12.465 -4.105 11.805 -5.125 11.125 C-5.48828125 9.03125 -5.48828125 9.03125 -5.4375 6.625 C-5.43363281 5.8309375 -5.42976563 5.036875 -5.42578125 4.21875 C-4.8969125 0.53727401 -3.56395767 0.14255831 0 0 Z M-2.125 2.125 C-2.125 2.785 -2.125 3.445 -2.125 4.125 C-1.135 4.125 -0.145 4.125 0.875 4.125 C0.875 3.465 0.875 2.805 0.875 2.125 C-0.115 2.125 -1.105 2.125 -2.125 2.125 Z " fill="#231F20" transform="translate(287.125,62.875)"/>
<path d="M0 0 C0 0.99 0 1.98 0 3 C-0.99 3 -1.98 3 -3 3 C-3.33 3.66 -3.66 4.32 -4 5 C-3.01 5 -2.02 5 -1 5 C-1 5.66 -1 6.32 -1 7 C-1.99 7 -2.98 7 -4 7 C-3.87625 8.27875 -3.7525 9.5575 -3.625 10.875 C-3.55539063 11.59429687 -3.48578125 12.31359375 -3.4140625 13.0546875 C-3.13625251 15.22668245 -3.13625251 15.22668245 -1 17 C-3.64 17 -6.28 17 -9 17 C-8.34 16.67 -7.68 16.34 -7 16 C-7 13.03 -7 10.06 -7 7 C-7.66 7 -8.32 7 -9 7 C-9 6.34 -9 5.68 -9 5 C-8.34 5 -7.68 5 -7 5 C-6.87625 4.195625 -6.7525 3.39125 -6.625 2.5625 C-6.41875 1.716875 -6.2125 0.87125 -6 0 C-3.50907189 -1.24546405 -2.58919267 -0.7767578 0 0 Z " fill="#231F20" transform="translate(223,58)"/>
<path d="M0 0 C0.66 0 1.32 0 2 0 C2 0.99 2 1.98 2 3 C2.66 3 3.32 3 4 3 C4 3.66 4 4.32 4 5 C3.34 5 2.68 5 2 5 C2 7.64 2 10.28 2 13 C2.99 13.33 3.98 13.66 5 14 C4.34 14.66 3.68 15.32 3 16 C1.68 15.67 0.36 15.34 -1 15 C-1 11.7 -1 8.4 -1 5 C-1.66 4.67 -2.32 4.34 -3 4 C-1.625 2 -1.625 2 0 0 Z " fill="#231F20" transform="translate(265,60)"/>
<path d="M0 0 C1.65 0 3.3 0 5 0 C5.33 3.96 5.66 7.92 6 12 C4.02 12 2.04 12 0 12 C0 8.04 0 4.08 0 0 Z " fill="#231F20" transform="translate(157,63)"/>
<path d="M0 0 C0.33 0.99 0.66 1.98 1 3 C1.99 3 2.98 3 4 3 C4 3.66 4 4.32 4 5 C3.01 5 2.02 5 1 5 C1 7.64 1 10.28 1 13 C1.99 13 2.98 13 4 13 C3.67 13.99 3.34 14.98 3 16 C1.68 16 0.36 16 -1 16 C-1 12.37 -1 8.74 -1 5 C-1.66 5 -2.32 5 -3 5 C-1.125 1.125 -1.125 1.125 0 0 Z " fill="#231F20" transform="translate(314,60)"/>
<path d="M0 0 C1.32 0 2.64 0 4 0 C4 1.32 4 2.64 4 4 C2.68 4 1.36 4 0 4 C0 2.68 0 1.36 0 0 Z " fill="#231F20" transform="translate(158,58)"/>
</svg>
