<?xml version="1.0" encoding="UTF-8"?>
<svg version="1.1" xmlns="http://www.w3.org/2000/svg" width="582" height="263">
<path d="M0 0 C11.17056025 12.17591068 10.80819055 27.67071834 10.2578125 43.22119141 C9.80008573 50.50248003 8.2171123 57.37723016 6.0625 64.328125 C5.85351074 65.01165039 5.64452148 65.69517578 5.42919922 66.39941406 C-0.83431131 86.20805935 -11.78808701 103.21236804 -30.4375 113.203125 C-38.7755006 115.88319662 -45.85649786 115.89945177 -53.9375 112.328125 C-60.2366378 108.40602033 -63.28783703 102.36064115 -65.5546875 95.4453125 C-68.03805413 81.71077462 -65.08436551 66.98409878 -57.4609375 55.35546875 C-55.47533181 52.71308579 -53.41106904 50.51900043 -50.9375 48.328125 C-50.6075 47.998125 -50.2775 47.668125 -49.9375 47.328125 C-47.0625 47.015625 -47.0625 47.015625 -43.9375 47.328125 C-42 48.953125 -42 48.953125 -40.9375 51.328125 C-41.39978675 57.00764798 -43.80930312 61.59110068 -46.32226562 66.5859375 C-50.00258542 74.11775475 -52.05591958 81.90003459 -50.9375 90.328125 C-49.07944623 95.75262726 -49.07944623 95.75262726 -44.9375 99.328125 C-39.84431346 100.17878406 -35.81986448 99.70106395 -31.375 97.015625 C-16.1126 85.62854743 -8.70438488 63.65143425 -5.625 45.453125 C-4.11374468 33.7804768 -4.10775813 21.45579017 -10.9375 11.328125 C-15.98539214 6.5264715 -20.22633032 5.97087793 -26.96484375 6.05078125 C-39.58460286 7.22818322 -50.41705499 16.50605937 -58.51708984 25.61474609 C-71.91068767 41.7708598 -79.76368582 61.21583325 -84.9375 81.328125 C-85.205625 82.359375 -85.47375 83.390625 -85.75 84.453125 C-89.80791892 103.84095983 -87.92455669 125.26230997 -77.91796875 142.48046875 C-72.20998319 150.68780894 -64.91670169 155.18067832 -55.5 158.078125 C-37.64638595 159.819941 -21.33414844 153.62907007 -7.5625 142.453125 C-1.76921195 137.45626882 -1.76921195 137.45626882 -0.0625 130.203125 C0.10372304 128.84467568 0.27323142 127.48662594 0.4453125 126.12890625 C0.54102539 125.37174316 0.63673828 124.61458008 0.73535156 123.83447266 C6.03330096 83.24585437 6.03330096 83.24585437 18.57421875 71.96875 C23.6942455 68.34877951 30.04160505 68.41760819 36.0625 69.328125 C41.05993004 71.8411593 44.27100315 74.95363444 46.0625 80.328125 C47.47129744 93.77207768 43.23729551 106.0621695 36.0625 117.328125 C37.01125 117.740625 37.96 118.153125 38.9375 118.578125 C42.25232996 120.43442978 42.86892891 120.88398952 44.0625 124.328125 C44.07421875 127.140625 44.07421875 127.140625 43.75 130.328125 C43.64300781 131.46894531 43.53601563 132.60976562 43.42578125 133.78515625 C43.30589844 134.95433594 43.18601563 136.12351563 43.0625 137.328125 C42.84797088 139.55670393 42.63922865 141.78585094 42.4375 144.015625 C42.34210938 144.98886719 42.24671875 145.96210938 42.1484375 146.96484375 C41.87269202 149.34802683 41.87269202 149.34802683 43.0625 151.328125 C46.5907431 150.47874451 48.56897111 149.98005515 50.79833984 147.03515625 C54.84131995 138.36724085 57.64008538 129.55144681 60.24511719 120.36083984 C60.79077845 118.45102542 61.35222108 116.54574221 61.9140625 114.640625 C62.23197754 113.52300781 62.54989258 112.40539062 62.87744141 111.25390625 C64.16729188 108.06940521 65.36598776 106.43641047 68.0625 104.328125 C74.06788525 103.59062155 74.06788525 103.59062155 76.78515625 105.60546875 C78.40471324 107.78964194 78.31901003 108.6673371 77.9375 111.328125 C77.82277344 112.12863281 77.70804688 112.92914063 77.58984375 113.75390625 C77.04629064 116.40725067 76.29869312 118.92847073 75.5 121.515625 C73.36795877 128.97251796 72.44037698 137.38341676 75.4375 144.671875 C76.8292592 147.47354402 76.8292592 147.47354402 79.4375 148.515625 C82.32412423 148.56775141 82.32412423 148.56775141 84.8125 146.015625 C87.80517315 142.44104319 88.15342723 140.72883647 88.30151367 136.12329102 C88.76053251 122.95814285 91.59632236 110.97032255 101.05078125 101.29296875 C106.34142021 96.44072549 110.50486937 93.79070139 117.94140625 94.015625 C123.38387827 94.8174625 127.10754417 97.1283087 130.5 101.390625 C133.77812914 107.55350779 134.22016365 114.16934415 132.34375 120.91015625 C130.47594629 125.4516306 128.55333471 128.97578301 124.0625 131.328125 C120.33543127 131.18196544 118.72038293 130.98600793 116.0625 128.328125 C115.57841367 122.51908908 116.24010065 119.50252382 119.0625 114.328125 C119.0625 113.008125 119.0625 111.688125 119.0625 110.328125 C115.82058375 110.328125 113.75365015 110.64833178 111.3984375 112.96484375 C106.63143078 119.12907658 104.77564201 124.53562291 104.75 132.390625 C104.72486328 134.17146484 104.72486328 134.17146484 104.69921875 135.98828125 C105.19999678 140.5922083 106.70703773 143.20502769 110.25 146.140625 C115.67149871 148.42970223 120.24449035 147.89282886 125.5625 145.765625 C135.10388481 141.01956612 140.50493631 134.36313956 144.0625 124.328125 C146.16879957 115.89407674 146.98916047 107.31609966 147.80078125 98.67578125 C147.89633553 97.67082611 147.89633553 97.67082611 147.99382019 96.64556885 C148.31246211 93.27242473 148.61419509 89.89926447 148.88549805 86.52197266 C148.99547119 85.27593262 149.10544434 84.02989258 149.21875 82.74609375 C149.30962891 81.63000732 149.40050781 80.5139209 149.49414062 79.36401367 C150.16709232 75.76944568 151.44907258 72.94155242 154.0625 70.328125 C158.09410191 70.06519444 159.62142734 70.03407656 163.0625 72.328125 C164.12682275 75.52109325 164.10038336 77.53257441 163.94140625 80.87109375 C163.86889648 82.48081055 163.86889648 82.48081055 163.79492188 84.12304688 C163.73884766 85.24259766 163.68277344 86.36214844 163.625 87.515625 C163.57279297 88.64677734 163.52058594 89.77792969 163.46679688 90.94335938 C163.33706193 93.7385578 163.20209359 96.5334044 163.0625 99.328125 C163.65200439 99.0401001 164.24150879 98.7520752 164.84887695 98.45532227 C171.04505752 95.54241466 175.33684438 94.37219454 182.0625 96.328125 C186.20259303 98.44165989 188.99597925 101.79721456 190.58984375 106.1875 C192.71627406 115.81794472 190.82914567 124.24938848 185.70703125 132.515625 C181.45380325 138.53628019 176.28808864 144.13855268 169.0625 146.328125 C171.9420976 150.90561009 171.9420976 150.90561009 176.0625 154.328125 C180.95431907 154.88948129 183.00569754 155.00447858 187.1875 152.328125 C189.53413289 150.12736388 191.24789161 147.66232066 193.0625 145.015625 C195.64376155 141.40865163 195.64376155 141.40865163 199.3125 140.703125 C202.0625 141.328125 202.0625 141.328125 204.0625 143.328125 C204.59957644 149.96583896 202.19498823 155.29496626 198.0625 160.328125 C193.62541756 164.89690166 189.50143368 167.949446 183.01171875 168.6640625 C176.16865197 168.7460154 170.53309458 168.75352468 165.0625 164.328125 C161.88112738 161.13674807 158.9282547 157.80417931 156.0625 154.328125 C155.90394531 155.20855469 155.74539063 156.08898437 155.58203125 156.99609375 C153.43534294 167.68209469 153.43534294 167.68209469 150.8125 170.703125 C148.0625 172.328125 148.0625 172.328125 144.375 172.390625 C141.0625 171.328125 141.0625 171.328125 139.83203125 169.71484375 C138.75297686 166.36813191 139.11462322 163.56519426 139.4375 160.078125 C139.54835937 158.81484375 139.65921875 157.5515625 139.7734375 156.25 C139.91652344 154.80367188 139.91652344 154.80367188 140.0625 153.328125 C139.61261719 153.71484375 139.16273438 154.1015625 138.69921875 154.5 C131.01077481 160.72471213 122.75856969 164.12883717 112.765625 163.71484375 C105.28475231 162.64460329 99.48862893 159.4686682 94.0625 154.328125 C93.8046875 154.93140625 93.546875 155.5346875 93.28125 156.15625 C91.17089988 159.91700215 87.96980561 161.67678452 84.0625 163.328125 C78.88202745 164.34643942 74.58070819 164.1016969 70.125 161.140625 C67.40579114 158.88316859 65.55157665 156.56905654 64.0625 153.328125 C64.0625 152.668125 64.0625 152.008125 64.0625 151.328125 C63.4025 151.328125 62.7425 151.328125 62.0625 151.328125 C61.876875 152.00875 61.69125 152.689375 61.5 153.390625 C58.98038183 158.53940996 54.92669442 162.04390218 50.25 165.265625 C44.43979539 167.20235987 39.26196403 167.28789112 33.625 164.828125 C28.93850786 160.25593755 27.89147823 155.07346931 27.76953125 148.734375 C27.7892209 146.76540958 27.82462706 144.79654444 27.875 142.828125 C27.88853516 141.81492188 27.90207031 140.80171875 27.91601562 139.7578125 C27.95106937 137.28068096 28.00020236 134.80469573 28.0625 132.328125 C24.43374599 132.81362726 22.39016921 133.09189836 19.375 135.265625 C13.93698332 142.46732276 13.6729664 150.71263172 13.44042969 159.43847656 C13.21030487 166.51400443 13.21030487 166.51400443 11.0625 169.328125 C5.23037409 170.94815997 5.23037409 170.94815997 1.9140625 169.1875 C-0.50431543 166.75891794 -0.71283484 165.00283657 -1.1875 161.640625 C-1.33703125 160.64675781 -1.4865625 159.65289062 -1.640625 158.62890625 C-1.73859375 157.86964844 -1.8365625 157.11039063 -1.9375 156.328125 C-2.77410156 156.90820312 -3.61070313 157.48828125 -4.47265625 158.0859375 C-20.73109371 169.09887966 -38.15546597 175.94138577 -58.1484375 172.828125 C-72.82931351 169.50700138 -84.01350037 161.82311879 -92.3125 149.140625 C-105.57931812 126.08680991 -106.32017874 96.86049902 -99.56591797 71.60009766 C-99.35854004 70.85034668 -99.15116211 70.1005957 -98.9375 69.328125 C-98.73914551 68.58481934 -98.54079102 67.84151367 -98.33642578 67.07568359 C-90.85539259 39.82377351 -74.08391156 12.2289693 -49.078125 -2.0859375 C-33.28674547 -10.06019134 -14.33949388 -12.37359553 0 0 Z M25.625 83.265625 C20.07238767 89.90167389 18.27649553 97.64565055 16.8125 106.015625 C16.63976562 106.92634766 16.46703125 107.83707031 16.2890625 108.77539062 C15.45212696 113.34864553 14.8456318 117.65771339 15.0625 122.328125 C24.37623074 113.86109705 31.97786447 101.8359382 34.0625 89.328125 C33.76217891 84.78526905 33.76217891 84.78526905 31.0625 81.328125 C27.93495668 81.01700294 27.93495668 81.01700294 25.625 83.265625 Z M165.0625 114.328125 C161.25758531 121.36530835 159.90559745 127.32609518 160.0625 135.328125 C167.36214931 132.12652443 173.45939005 128.13488155 177.0625 120.765625 C178.14122688 117.05750136 178.17330193 115.002316 177.0625 111.328125 C175.24832291 109.13839003 175.24832291 109.13839003 172.75 108.890625 C168.76587632 109.53920327 167.56009643 111.19011923 165.0625 114.328125 Z " fill="#E51535" transform="translate(103.9375,69.671875)"/>
<path d="M0 0 C3.75330442 2.82182741 5.32673006 5.47684231 6.16796875 10.01953125 C6.85773241 17.85775461 5.66252754 24.60093034 3.16796875 32.01953125 C2.91273438 32.81875 2.6575 33.61796875 2.39453125 34.44140625 C-1.62501061 45.72562467 -8.84901701 55.55817489 -17.1796875 64.03125 C-19.15160298 65.97320051 -19.15160298 65.97320051 -18.83203125 69.01953125 C-14.25484378 71.38195059 -9.86940566 71.7072579 -4.83203125 71.01953125 C1.75380734 68.04944718 5.56206843 61.79858007 8.3215332 55.30493164 C9.68619772 51.50750354 10.93640295 47.6790131 12.17773438 43.83984375 C14.03386716 38.37309973 15.50053677 34.55546457 20.16796875 31.01953125 C24.31021181 30.43961722 25.64972364 30.67403451 29.16796875 33.01953125 C30.24754806 38.33275491 29.12471618 43.58066767 27.66796875 48.70703125 C25.2140789 57.69687416 24.80054987 67.24545974 28.16796875 76.01953125 C34.00191264 77.12596889 36.93376088 77.29091117 42.16796875 74.01953125 C41.95140625 72.25609375 41.95140625 72.25609375 41.73046875 70.45703125 C41.53734982 68.64512132 41.35071004 66.83251722 41.16796875 65.01953125 C40.99007812 63.31410156 40.99007812 63.31410156 40.80859375 61.57421875 C39.33458437 44.76349267 41.86310997 27.97797194 52.2734375 14.2109375 C56.22386041 9.64147925 61.02904115 4.21737078 67.16796875 3.01953125 C71.84884805 2.88853649 75.80410961 3.31874367 79.60546875 6.20703125 C84.8718005 11.98715146 84.59823934 18.6394135 84.41015625 26.08984375 C83.26211221 44.71778412 74.50610446 62.13302542 61.16796875 75.01953125 C61.8962784 78.21293232 61.8962784 78.21293232 64.73046875 79.76953125 C68.92168482 81.29360982 71.95721823 81.58875505 76.16796875 80.01953125 C79.20480505 77.05171396 80.9782196 74.33380328 83.16796875 70.70703125 C85.16796875 68.01953125 85.16796875 68.01953125 87.73046875 67.01953125 C90.16796875 67.01953125 90.16796875 67.01953125 93.16796875 69.01953125 C93.93436467 75.36966891 92.67665895 79.70506564 89.16796875 85.01953125 C84.75172928 90.13307169 79.46450906 94.63125131 72.53125 95.2578125 C63.17890994 95.48533422 57.06471899 93.4852346 50.16796875 87.01953125 C50.16796875 86.35953125 50.16796875 85.69953125 50.16796875 85.01953125 C49.4409375 85.45265625 48.71390625 85.88578125 47.96484375 86.33203125 C40.6149801 90.40272496 34.58971708 92.48146679 26.16796875 91.01953125 C19.49546994 87.80243361 16.22061759 82.58272625 13.16796875 76.01953125 C12.51054687 76.70789063 12.51054687 76.70789063 11.83984375 77.41015625 C6.23308939 82.83457713 0.63970963 85.01461411 -6.83203125 87.01953125 C-6.61546875 87.73496094 -6.39890625 88.45039063 -6.17578125 89.1875 C-3.24809057 99.66483749 -1.83162397 110.01871668 -6.83203125 120.01953125 C-9.16688543 123.48415357 -10.97469422 125.46294215 -14.83203125 127.01953125 C-19.94109971 127.68324709 -24.42382074 127.65721148 -29.14453125 125.51953125 C-38.92210856 116.4241105 -43.41947511 104.17527802 -44.83203125 91.01953125 C-44.85749124 89.35305906 -44.86476303 87.68587647 -44.83203125 86.01953125 C-45.76015625 86.08140625 -46.68828125 86.14328125 -47.64453125 86.20703125 C-50.83203125 86.01953125 -50.83203125 86.01953125 -52.70703125 84.89453125 C-54.39494272 82.08134546 -54.28354166 80.2446056 -53.83203125 77.01953125 C-52.05129469 74.28482868 -50.6713257 72.45337707 -47.75390625 70.9453125 C-44.63883388 67.82390868 -45.0627258 64.14629922 -44.83203125 59.89453125 C-43.19356134 39.17171689 -38.10908824 18.32570467 -22.39453125 3.64453125 C-15.88439681 -1.56067646 -7.80144873 -4.17518898 0 0 Z M-14.67578125 15.72265625 C-23.84511337 25.48998829 -29.76897964 41.73138618 -30.83203125 55.01953125 C-30.42576501 57.2165884 -30.42576501 57.2165884 -29.83203125 59.01953125 C-18.83247487 47.69028789 -8.51671079 32.85914051 -5.83203125 17.01953125 C-6.11049732 13.66164068 -6.11049732 13.66164068 -6.83203125 11.01953125 C-10.26599361 11.01953125 -12.22024147 13.49843544 -14.67578125 15.72265625 Z M69.16796875 15.01953125 C59.66908986 24.32679011 54.36527013 37.80661163 53.98828125 51.109375 C53.95303376 54.74920892 54.03379366 58.38189544 54.16796875 62.01953125 C55.15796875 62.01953125 56.14796875 62.01953125 57.16796875 62.01953125 C66.11712288 47.0080469 72.70126988 33.79623552 72.16796875 16.01953125 C71.17796875 15.68953125 70.18796875 15.35953125 69.16796875 15.01953125 Z M-32.83203125 78.01953125 C-32.17000255 96.25099473 -32.17000255 96.25099473 -23.83203125 112.01953125 C-21.20743728 113.57714894 -21.20743728 113.57714894 -18.83203125 114.01953125 C-16.76654118 112.34303268 -15.91102465 111.42801966 -15.3984375 108.77734375 C-15.38705256 101.10389208 -16.21344 91.49677127 -21.21484375 85.30859375 C-23.03840295 83.85503207 -24.90291418 82.60811474 -26.89453125 81.39453125 C-27.58675781 80.96914062 -28.27898437 80.54375 -28.9921875 80.10546875 C-30.24659666 79.36507439 -31.52919553 78.67094911 -32.83203125 78.01953125 Z " fill="#E51535" transform="translate(377.83203125,134.98046875)"/>
<path d="M0 0 C4.86979684 2.38895694 7.31913003 5.33330042 10 10 C12.9360281 18.80808429 10.35181916 27.65568143 7 36 C5.88357509 37.9339443 4.73861113 39.85176194 3.5625 41.75 C1.55271033 45.25477171 1.55271033 45.25477171 0.96875 49.15625 C1.68766903 51.69138554 2.70627379 53.69544237 4 56 C4.49669189 56.90782227 4.49669189 56.90782227 5.00341797 57.83398438 C9.09442461 66.48807005 9.09442461 66.48807005 16 72 C19.37390778 70.42823459 22.59716297 68.7066692 25.84375 66.89257812 C30.4151098 64.45652455 33.68473944 63.44507343 39 64 C40.9375 65.125 40.9375 65.125 42 67 C42.64983394 70.73654513 42.43681491 72.3759787 40.25 75.5 C35.91975678 79.37575705 30.21928867 81.57765071 25 84 C29.7869556 89.38532505 34.87779642 92.12987769 41.8125 94.0625 C46.43478261 95.42199488 46.43478261 95.42199488 48 98 C48.39015561 101.12124489 48.55877549 103.09975061 46.875 105.8125 C42.85224257 108.36024637 38.87585853 108.15915179 34.3125 107.5 C25.68463141 105.5438316 19.20877558 100.51300642 13.4375 94 C10.59475242 90.95294574 10.59475242 90.95294574 6.81640625 89.58203125 C4.1430553 89.84801389 1.62185191 90.41085851 -1 91 C-2.96489679 91.26346108 -4.93031266 91.52477247 -6.89990234 91.75048828 C-8.35921947 91.91885835 -9.81670276 92.1038383 -11.27197266 92.30419922 C-15.00697923 92.79356895 -18.45096837 93.04185895 -22.20703125 92.68359375 C-28.03012129 92.25450242 -32.5917121 92.23586117 -37.46630859 95.80664062 C-42.65167594 100.43398167 -47.22655725 105.56231072 -51.84423828 110.74365234 C-56.70034705 115.82634286 -61.37849756 119.61198188 -68.5 120.375 C-72 120 -72 120 -74 117.875 C-75.29098115 114.1634292 -75.40821675 112.70583355 -74 109 C-71.58907204 106.34606073 -68.81710528 104.20740003 -66 102 C-64.01784129 100.39953187 -62.03873133 98.79528142 -60.0625 97.1875 C-59.12535156 96.43855469 -58.18820312 95.68960938 -57.22265625 94.91796875 C-54.93666852 93.19416673 -54.93666852 93.19416673 -54 91 C-54.639375 90.79375 -55.27875 90.5875 -55.9375 90.375 C-58 89 -58 89 -58.9375 86.125 C-59 83 -59 83 -57.9453125 80.80859375 C-56 79 -56 79 -52.77734375 78.77734375 C-51.51019531 78.83019531 -50.24304688 78.88304687 -48.9375 78.9375 C-44.89713316 78.84746799 -41.75871433 78.50801833 -38.31640625 76.203125 C-36.18380273 73.88711039 -34.29755125 71.50039378 -32.46777344 68.94042969 C-30.72989988 66.64292153 -28.83395542 64.5303261 -26.9140625 62.3828125 C-19.57873688 54.47584455 -19.57873688 54.47584455 -15.70996094 44.74023438 C-16.14374006 39.83605802 -18.16403856 35.52039592 -20 31 C-21.61564135 22.26392732 -21.66185575 13.85166981 -16.82421875 6.12109375 C-12.19273839 0.17043013 -7.2248156 -1.00519173 0 0 Z M-5 13 C-7.14971323 14.72542773 -7.93849591 15.56141727 -8.328125 18.33984375 C-8.30234375 19.19707031 -8.2765625 20.05429688 -8.25 20.9375 C-8.23453125 21.79214844 -8.2190625 22.64679688 -8.203125 23.52734375 C-8.01658587 25.79809898 -7.62855941 27.81524914 -7 30 C-6.34 30 -5.68 30 -5 30 C-2.81162432 24.80260777 -1.31026482 20.74779318 -2 15 C-2.99 14.34 -3.98 13.68 -5 13 Z M-10 62 C-11.52588107 63.82045271 -12.97150831 65.70860437 -14.375 67.625 C-15.14585937 68.66914063 -15.91671875 69.71328125 -16.7109375 70.7890625 C-18.87373223 73.82288036 -20.95314829 76.88766383 -23 80 C-20.66585761 79.88450858 -18.33317081 79.75781807 -16 79.625 C-14.0509375 79.52058594 -14.0509375 79.52058594 -12.0625 79.4140625 C-7.29298538 79.0257097 -7.29298538 79.0257097 0 77 C-2.64 72.05 -5.28 67.1 -8 62 C-8.66 62 -9.32 62 -10 62 Z " fill="#E51535" transform="translate(533,131)"/>
<path d="M0 0 C3.9098926 2.90735603 6.56056916 6.33182681 8.4375 10.8125 C9.81863992 20.7276308 7.33727301 27.51995091 1.5234375 35.41015625 C-5.50519341 43.88285133 -15.54162285 50.83940748 -26.5625 52.8125 C-40.14806992 53.97744621 -40.14806992 53.97744621 -45.5625 49.8125 C-48.9515937 46.24503295 -49.85932202 43.35750038 -50.0625 38.5625 C-49.63863832 28.47185743 -45.08122281 21.2317474 -38.5625 13.8125 C-37.98886719 13.1215625 -37.41523437 12.430625 -36.82421875 11.71875 C-27.40600681 1.23166176 -13.83648883 -4.61216294 0 0 Z " fill="#E51535" transform="translate(157.5625,19.1875)"/>
<path d="M0 0 C4.62105817 2.22278747 7.11568881 5.52336545 8.9375 10.25 C11.88177334 21.18587239 9.46207582 32.29044502 4.16796875 42.1484375 C1.25082979 46.77293205 -1.8235183 50.91583602 -7 53 C-10.12579253 53.64220828 -12.88089297 53.70815082 -16 53 C-21.38917514 49.04641908 -23.38464946 43.47927525 -24.51953125 37.0625 C-25.52234442 26.57975964 -24.76738543 15.40548444 -18.36328125 6.62109375 C-12.93634257 0.16785722 -8.29257764 -1.66092266 0 0 Z " fill="#E51535" transform="translate(102,1)"/>
<path d="M0 0 C7.39174004 4.32814408 10.93733695 10.95406042 13.25 18.9375 C14.91689912 26.61124277 14.36583065 32.89435752 11 40 C7.19355712 42.53762859 5.52642303 42.51942559 1 42 C-7.22856127 38.72763779 -10.9645719 32.00066903 -14.8125 24.4375 C-17.08595934 17.85643348 -18.00455125 11.523771 -15 5 C-10.71634825 -0.01500693 -6.35502183 -1.67746769 0 0 Z " fill="#E51535" transform="translate(59,14)"/>
<path d="M0 0 C9.47758492 1.00875285 17.32295916 5.35049196 23.828125 12.3203125 C25 14 25 14 25.4375 16.9375 C25.2209375 17.9584375 25.2209375 17.9584375 25 19 C23.80375 19.515625 22.6075 20.03125 21.375 20.5625 C15.89776998 22.98813044 10.57131689 25.69815207 5.234375 28.4140625 C2.52035544 29.74484987 -0.17626376 30.92782947 -3 32 C-2.86722656 31.19820312 -2.73445313 30.39640625 -2.59765625 29.5703125 C-1.06762366 19.72002968 -0.42871129 9.95061459 0 0 Z " fill="#E51535" transform="translate(118,97)"/>
<path d="M0 0 C5.54192543 2.82529532 8.79903201 6.85576002 12.3125 11.875 C13.44791193 15.38445506 13.29281908 18.31047964 13 22 C11.54256658 24.37791769 10.42599777 24.82458915 7.875 25.875 C2.29224647 26.11772841 -2.96452098 24.08609854 -7.375 20.6875 C-10.70241585 17.28085996 -12.89184572 14.62724764 -13.09375 9.72265625 C-12.86653946 6.21793366 -12.58214874 3.76843634 -10.4375 0.9375 C-6.90482967 -0.42121936 -3.69040752 -0.63529259 0 0 Z " fill="#E51535" transform="translate(36,42)"/>
<path d="M0 0 C3.31942498 2.34312352 4.69204333 3.59708628 5.5625 7.5625 C4.82403588 10.76251117 3.53911011 11.96871191 1 14 C-2.16009533 15.05336511 -4.5553136 15.20032888 -7.875 15.25 C-9.41800781 15.28867188 -9.41800781 15.28867188 -10.9921875 15.328125 C-14.4392797 14.95207858 -16.23592829 14.06101514 -19 12 C-21 9 -21 9 -20.9375 6 C-20 3 -20 3 -17.6875 1.1875 C-11.74165996 -1.43973164 -6.33910441 -1.36909651 0 0 Z " fill="#E51536" transform="translate(322,179)"/>
<path d="M0 0 C1.8125 2.8125 1.8125 2.8125 1.8125 5.9375 C0.81793826 8.79686501 0.22388526 10.05033385 -2.1875 11.8125 C-5.34759533 12.86586511 -7.7428136 13.01282888 -11.0625 13.0625 C-12.60550781 13.10117188 -12.60550781 13.10117188 -14.1796875 13.140625 C-17.6267797 12.76457858 -19.42342829 11.87351514 -22.1875 9.8125 C-24.1875 6.8125 -24.1875 6.8125 -24.125 3.8125 C-23.1875 0.8125 -23.1875 0.8125 -20.9375 -1 C-14.03117163 -3.98227816 -6.35452762 -4.36095033 0 0 Z " fill="#E51535" transform="translate(496.1875,181.1875)"/>
<path d="M0 0 C2.4375 0.75 2.4375 0.75 4.4375 2.75 C4.79288316 8.67305265 3.23125628 13.17517625 -0.5625 17.75 C-3.5625 19.75 -3.5625 19.75 -6.125 19.5 C-8.5625 18.75 -8.5625 18.75 -10.5625 16.75 C-11.34946214 11.12884184 -9.93095432 8.00688664 -6.94921875 3.44921875 C-4.82069231 0.84102437 -3.41677721 -0.33334412 0 0 Z " fill="#E51535" transform="translate(88.5625,92.25)"/>
<path d="M0 0 C2.4375 1.5 2.4375 1.5 4 4 C4.79841448 8.01676563 4.61897146 10.9683809 2.5 14.5 C-1.25648836 16.75389302 -3.64579381 16.48380069 -8 16 C-10.71240136 14.42505728 -10.94143553 13.18824293 -11.875 10.1875 C-12.02817911 6.28143268 -11.05994354 4.28065082 -9 1 C-5.90826248 -0.54586876 -3.40570448 -0.29359521 0 0 Z " fill="#E51534" transform="translate(184,154)"/>
<path d="M0 0 C2.75806231 2.39032067 2.98155872 3.85246979 3.4375 7.5 C3 11 3 11 1.4375 13.4375 C-1.96719488 15.61999672 -4.03430012 15.63734462 -8 15 C-10.97118368 12.40973731 -11.88008526 10.83940315 -12.4375 6.9375 C-11.95374115 3.68940486 -11.30588726 2.30588726 -9 0 C-5.4314543 -1.18951523 -3.60804584 -0.97717908 0 0 Z " fill="#E51535" transform="translate(410,147)"/>
<path d="M0 0 C3.9375 0.5 3.9375 0.5 5.875 1.6875 C7.25706119 4.04513379 7.7420898 5.76425721 7.9375 8.5 C7.15950042 11.47054386 6.28119547 13.13175485 4.1875 15.375 C1.0429236 16.9472882 -0.74105345 16.48936706 -4.0625 15.5 C-6.89586378 13.74136041 -7.09137833 12.396038 -8 9.125 C-8.0625 5.5 -8.0625 5.5 -6.625 2.5625 C-3.94914734 0.40876493 -3.2669763 0.13863553 0 0 Z M-2.0625 2.5 C1.9375 3.5 1.9375 3.5 1.9375 3.5 Z M-5.0625 5.5 C-5.0625 7.15 -5.0625 8.8 -5.0625 10.5 C-4.7325 10.5 -4.4025 10.5 -4.0625 10.5 C-4.0625 8.85 -4.0625 7.2 -4.0625 5.5 C-4.3925 5.5 -4.7225 5.5 -5.0625 5.5 Z M3.9375 5.5 C3.6075 7.48 3.2775 9.46 2.9375 11.5 C3.5975 11.17 4.2575 10.84 4.9375 10.5 C4.9375 8.85 4.9375 7.2 4.9375 5.5 C4.6075 5.5 4.2775 5.5 3.9375 5.5 Z M-1.0625 9.5 C-1.3925 10.82 -1.7225 12.14 -2.0625 13.5 C-0.7425 13.17 0.5775 12.84 1.9375 12.5 C0.9475 11.51 -0.0425 10.52 -1.0625 9.5 Z " fill="#E51536" transform="translate(558.0625,136.5)"/>
</svg>
