<?xml version="1.0" encoding="UTF-8"?>
<svg version="1.1" xmlns="http://www.w3.org/2000/svg" width="260" height="152">
<path d="M0 0 C0.99 0 1.98 0 3 0 C3 0.99 3 1.98 3 3 C3.68615891 2.98747192 4.37231781 2.97494385 5.07926941 2.96203613 C38.30050923 2.36112591 71.518594 1.89260585 104.74579239 1.87661743 C106.90266654 1.87502571 109.05952936 1.87148934 111.21640015 1.86743164 C125.67056517 1.8434208 140.11786679 1.94108655 154.56640625 2.3828125 C156.2967234 2.4283577 156.2967234 2.4283577 158.06199646 2.474823 C163.71006812 2.67515521 168.65889798 3.1141164 174 5 C174 4.34 174 3.68 174 3 C179.4809035 2.90106672 184.96128645 2.82850135 190.44287109 2.78027344 C192.30722101 2.76016739 194.17150794 2.7328782 196.03564453 2.69824219 C198.71662948 2.64967879 201.39678023 2.62702162 204.078125 2.609375 C204.91055725 2.58872986 205.7429895 2.56808472 206.60064697 2.54681396 C212.37350735 2.54457937 212.37350735 2.54457937 215.51147461 4.82568359 C219.00714121 9.93186807 218.19297062 17.12008151 218.1875 23.125 C218.18741943 23.95378662 218.18733887 24.78257324 218.18725586 25.63647461 C218.03756075 41.9248785 218.03756075 41.9248785 215 48 C214.01 48 213.02 48 212 48 C212 48.99 212 49.98 212 51 C212.66 51 213.32 51 214 51 C214.41121094 51.99386719 214.82242188 52.98773438 215.24609375 54.01171875 C216.68033768 57.36277958 218.30811598 60.57206916 220.0078125 63.79467773 C228.13380174 79.34127521 229.41956984 95.14811948 224.16796875 111.94921875 C222.96588787 115.08910226 221.55421959 118.02038651 220 121 C219.484375 122.03125 218.96875 123.0625 218.4375 124.125 C214.97261241 128.21179049 211.10821639 129.62259188 206 131 C202.74253784 131.26269856 200.20170643 131.32667895 197.06103516 130.47290039 C194.86660751 129.96939336 193.14067539 129.97186631 190.8984375 130.12109375 C190.03992188 130.16959473 189.18140625 130.2180957 188.296875 130.26806641 C187.33265625 130.32397949 186.3684375 130.37989258 185.375 130.4375 C171.58666544 131.11445221 157.80176942 131.1181889 144 131.125 C142.32970734 131.12861038 142.32970734 131.12861038 140.62567139 131.1322937 C137.39625084 131.13826124 134.16692208 131.13680373 130.9375 131.1328125 C129.96946442 131.13480148 129.00142883 131.13679047 128.00405884 131.13883972 C112.94256536 131.0878366 112.94256536 131.0878366 107.875 128.25 C106.92625 127.8375 105.9775 127.425 105 127 C103.30968563 127.74925053 101.62060541 128.50161616 99.94229126 129.27737427 C96.71741885 130.47718185 93.4865173 130.28317646 90.10546875 130.15234375 C88.505752 130.12178513 86.90597129 130.09445808 85.30615234 130.06982422 C84.45148376 130.05457703 83.59681519 130.03932983 82.71624756 130.02362061 C77.8255402 129.9810908 72.93949133 130.12599402 68.05078125 130.25390625 C65.94466569 130.30421407 63.83854584 130.35434231 61.73242188 130.40429688 C58.51415063 130.48258777 55.29597558 130.56293777 52.07788086 130.64819336 C39.98551648 130.96445943 28.05334811 131.16301045 16 130 C15.67 130.99 15.34 131.98 15 133 C14.50628906 132.566875 14.01257813 132.13375 13.50390625 131.6875 C12.86324219 131.130625 12.22257812 130.57375 11.5625 130 C10.92441406 129.443125 10.28632812 128.88625 9.62890625 128.3125 C8.21886821 126.89542935 8.21886821 126.89542935 7 127 C6.28070312 127.32097656 5.56140625 127.64195312 4.8203125 127.97265625 C1.69886288 129.10969399 -0.81001576 129.36688004 -4.125 129.4375 C-5.15882812 129.47746094 -6.19265625 129.51742187 -7.2578125 129.55859375 C-10 129 -10 129 -11.8046875 126.72265625 C-14.18537 121.29999055 -14.05516565 116.75828238 -13.9375 110.875 C-13.99194366 108.37059161 -14.26798166 106.3790596 -15 104 C-13.515 103.505 -13.515 103.505 -12 103 C-11.95875 102.319375 -11.9175 101.63875 -11.875 100.9375 C-10.64701039 96.81496347 -8.15076207 93.90003829 -5 91 C-4.34 91 -3.68 91 -3 91 C-3 71.53 -3 52.06 -3 32 C-5.31 31.01 -7.62 30.02 -10 29 C-12.94798068 26.44307798 -12.99791658 25.02056863 -13.3984375 21.06640625 C-13.4063739 19.56510482 -13.39807482 18.06364507 -13.375 16.5625 C-13.38660156 15.81162109 -13.39820313 15.06074219 -13.41015625 14.28710938 C-13.38654534 9.81284136 -13.1432079 6.46366511 -10 3 C-7.51953125 2.51171875 -7.51953125 2.51171875 -4.8125 2.6875 C-3.91144531 2.73261719 -3.01039062 2.77773437 -2.08203125 2.82421875 C-1.05142578 2.91123047 -1.05142578 2.91123047 0 3 C0 2.01 0 1.02 0 0 Z M94 25 C94 31.27 94 37.54 94 44 C94.33 44 94.66 44 95 44 C95.04898438 43.02417969 95.09796875 42.04835938 95.1484375 41.04296875 C95.22320312 39.77066406 95.29796875 38.49835937 95.375 37.1875 C95.44460937 35.92292969 95.51421875 34.65835938 95.5859375 33.35546875 C96 30 96 30 98 27 C98 26.34 98 25.68 98 25 C96.68 25 95.36 25 94 25 Z M130 25 C130 25.99 130 26.98 130 28 C131.32 28 132.64 28 134 28 C134 27.01 134 26.02 134 25 C132.68 25 131.36 25 130 25 Z M130 29 C130 33.62 130 38.24 130 43 C131.65 43 133.3 43 135 43 C134.67 38.38 134.34 33.76 134 29 C133.67 29 133.34 29 133 29 C133 33.29 133 37.58 133 42 C132.34 42 131.68 42 131 42 C131 37.71 131 33.42 131 29 C130.67 29 130.34 29 130 29 Z M45 95 C44.60235737 96.98821313 44.26224651 98.98944339 44 101 C46.97359449 102.48679725 49.66299179 102.11112605 52.9765625 102.09765625 C53.66181 102.0962413 54.3470575 102.09482635 55.05307007 102.09336853 C57.24375761 102.08776675 59.4343433 102.07521406 61.625 102.0625 C63.10937352 102.05748522 64.59374865 102.05292228 66.078125 102.04882812 C69.71878315 102.03779677 73.35938164 102.02053099 77 102 C77.33 99.69 77.66 97.38 78 95 C78.66 95 79.32 95 80 95 C80 94.01 80 93.02 80 92 C83.45866792 92.13850705 86.91683275 92.28704727 90.375 92.4375 C91.35984375 92.47681641 92.3446875 92.51613281 93.359375 92.55664062 C94.30039063 92.59853516 95.24140625 92.64042969 96.2109375 92.68359375 C97.08024902 92.72025146 97.94956055 92.75690918 98.84521484 92.79467773 C101 93 101 93 103 94 C104.51845202 94.09472912 106.04110384 94.1298841 107.5625 94.125 C108.36816406 94.12757812 109.17382812 94.13015625 110.00390625 94.1328125 C111.99942021 94.22011391 111.99942021 94.22011391 113 93 C115.5751945 92.87227986 118.11173199 92.81478146 120.6875 92.8125 C121.39583984 92.80025391 122.10417969 92.78800781 122.83398438 92.77539062 C127.23839654 92.76319004 130.9360992 93.09943887 135 95 C136.61640537 97.2467018 137.11067968 99.33203904 138 102 C140.97 102 143.94 102 147 102 C148.59914349 98.97939564 149.07021836 97.41166186 148.48828125 94 C147.22988171 90.74149006 147.22988171 90.74149006 143.91015625 89.3203125 C142.63721756 88.89215437 141.35352471 88.49506417 140.0625 88.125 C139.38300293 87.91431885 138.70350586 87.7036377 138.00341797 87.48657227 C133.19005489 86.09161672 128.98779743 85.80138612 123.98046875 86.08984375 C120.13536233 85.97393622 116.62885909 84.99054812 112.9375 84 C93.82994554 79.09112961 59.88796424 80.11203576 45 95 Z " fill="#FCF9FA" transform="translate(24,9)"/>
<path d="M0 0 C0.66 -0.99 1.32 -1.98 2 -3 C3.32 -3 4.64 -3 6 -3 C6 6.24 6 15.48 6 25 C3.03 25 0.06 25 -3 25 C-3.2475 23.783125 -3.495 22.56625 -3.75 21.3125 C-4.80819303 17.31409277 -5.63027939 14.63002584 -9 12 C-12.71707794 11.4768557 -16.28610945 11.43996888 -20 12 C-20.66 12.66 -21.32 13.32 -22 14 C-22.08354267 18.15627625 -22.08354267 18.15627625 -21 22 C-17.15776601 25.56658324 -12.93779401 28.49543802 -8.6875 31.5625 C2.53024014 39.99984312 11.13745218 52.38311427 13.71484375 66.37109375 C15.04109285 78.5980204 14.66041357 90.91526396 7.9375 101.6875 C6 104 6 104 3 106 C-0.41096116 105.90129051 -1.66879474 105.33870425 -4.0703125 102.8828125 C-4.74835938 101.97273438 -5.42640625 101.06265625 -6.125 100.125 C-14.24955863 89.75035631 -23.37303544 80.3392498 -35.26953125 74.35546875 C-38 72 -38 72 -38.47680664 70.08813477 C-38.59139718 67.7806863 -38.52409394 65.55522162 -38.375 63.25 C-38.34792969 62.45722656 -38.32085937 61.66445312 -38.29296875 60.84765625 C-38.22247273 58.89726634 -38.11485499 56.94828099 -38 55 C-36.02 55 -34.04 55 -32 55 C-31.79246094 55.67546875 -31.58492187 56.3509375 -31.37109375 57.046875 C-29.28938327 63.27119825 -29.28938327 63.27119825 -24.6875 67.6875 C-20.48831895 69.18212376 -18.26173327 69.22934614 -14 68 C-11.87129307 67.03882095 -11.87129307 67.03882095 -11 65 C-10.81460001 60.2723003 -12.05031095 57.53276711 -15 54 C-18.30585797 50.48413875 -21.94266431 47.60749155 -25.79296875 44.71484375 C-33.265986 38.90837548 -38.66044458 32.35822169 -41 23 C-41.76884358 16.08040775 -39.65265675 11.4618226 -35.52734375 6.078125 C-25.92857715 -4.54178698 -12.659271 -5.25125316 0 0 Z " fill="#C11632" transform="translate(225,24)"/>
<path d="M0 0 C22.44 0 44.88 0 68 0 C68 7.26 68 14.52 68 22 C67.01 22 66.02 22 65 22 C64.60167969 21.06027344 64.60167969 21.06027344 64.1953125 20.1015625 C63.66550781 18.87566406 63.66550781 18.87566406 63.125 17.625 C62.77695313 16.81289063 62.42890625 16.00078125 62.0703125 15.1640625 C60.854265 12.70533872 59.87833466 11.30907529 57.24121094 10.38110352 C54.50670188 9.91611782 51.91498878 9.88818883 49.140625 9.90234375 C48.02558594 9.90556641 46.91054687 9.90878906 45.76171875 9.91210938 C44.02341797 9.92467773 44.02341797 9.92467773 42.25 9.9375 C40.48849609 9.94426758 40.48849609 9.94426758 38.69140625 9.95117188 C35.79424905 9.96294894 32.89711807 9.98088412 30 10 C29.67 14.62 29.34 19.24 29 24 C36.21597692 23.95134972 36.21597692 23.95134972 42.5625 21.1875 C43.8883366 19.16992257 45.04891367 17.21920143 46 15 C46.99 15 47.98 15 49 15 C49 24.24 49 33.48 49 43 C47.68 42.67 46.36 42.34 45 42 C43.875 39.5625 43.875 39.5625 43 37 C40.05066065 33.62003248 40.05066065 33.62003248 29 34 C29 42.91 29 51.82 29 61 C33.269375 61.0928125 33.269375 61.0928125 37.625 61.1875 C38.51010254 61.21481201 39.39520508 61.24212402 40.30712891 61.27026367 C46.28063996 61.33278185 50.31642603 60.29641804 54.9765625 56.30859375 C59.3972912 51.29075241 61.90837894 46.33982036 64 40 C64.99 40 65.98 40 67 40 C67 47.92 67 55.84 67 64 C64.03 64.99 61.06 65.98 58 67 C36.61002306 74.80217548 19.47935723 85.74242939 4.62109375 103.125 C3.14574216 104.83143076 1.61631567 106.42789966 0 108 C-0.3434683 102.94338334 -0.53142995 98.04858448 0 93 C2.75 90.125 2.75 90.125 6 88 C11.10937931 80.83578611 10.55373968 72.41776701 10.4609375 64.0078125 C10.4585486 62.57054816 10.4576487 61.13328064 10.4581604 59.6960144 C10.45505061 56.70208852 10.43861752 53.70864772 10.41162109 50.71484375 C10.37745829 46.8780743 10.36999875 43.04183125 10.37151146 39.20492744 C10.37096809 36.24523906 10.36000937 33.28566564 10.34550858 30.32601547 C10.3391507 28.91063174 10.33520404 27.49523503 10.33372116 26.0798378 C10.32938806 24.10802765 10.31030491 22.1362665 10.29052734 20.16455078 C10.28290375 19.04364044 10.27528015 17.9227301 10.26742554 16.76785278 C10.19928836 13.78747967 10.19928836 13.78747967 8 11 C6.04614933 10.21011855 6.04614933 10.21011855 3.875 9.8125 C2.59625 9.544375 1.3175 9.27625 0 9 C0 6.03 0 3.06 0 0 Z " fill="#C21734" transform="translate(21,21)"/>
<path d="M0 0 C1.65 0 3.3 0 5 0 C6.60051664 1.60051664 6.12731472 3.28846122 6.12939453 5.50390625 C6.13254669 6.46159912 6.13569885 7.41929199 6.13894653 8.40600586 C6.1369223 9.44764893 6.13489807 10.48929199 6.1328125 11.5625 C6.13376923 12.62412354 6.13472595 13.68574707 6.13571167 14.77954102 C6.13639364 17.02913472 6.13453819 19.27873037 6.13037109 21.52832031 C6.1250231 24.98507071 6.13031554 28.44169117 6.13671875 31.8984375 C6.13605797 34.07812529 6.13477682 36.257813 6.1328125 38.4375 C6.13483673 39.47914307 6.13686096 40.52078613 6.13894653 41.59399414 C6.13421829 43.03053345 6.13421829 43.03053345 6.12939453 44.49609375 C6.12859894 45.34357178 6.12780334 46.1910498 6.12698364 47.06420898 C6 49 6 49 5 50 C3.35 50 1.7 50 0 50 C0 44.72 0 39.44 0 34 C-1.98 34 -3.96 34 -6 34 C-5.8453125 35.485 -5.8453125 35.485 -5.6875 37 C-5.723025 42.87346726 -9.00576577 46.98636661 -13.0078125 51.02734375 C-18.6791339 56.14408944 -22.42681629 57.16550761 -30.0625 57.125 C-30.79533203 57.12886719 -31.52816406 57.13273437 -32.28320312 57.13671875 C-37.74663018 57.12668491 -37.74663018 57.12668491 -40 56 C-40 47.09 -40 38.18 -40 29 C-36.04 29 -32.08 29 -28 29 C-23.95454545 33.04545455 -23.95454545 33.04545455 -23 37 C-21.515 37.495 -21.515 37.495 -20 38 C-20 28.76 -20 19.52 -20 10 C-20.99 10 -21.98 10 -23 10 C-23.2475 10.928125 -23.495 11.85625 -23.75 12.8125 C-25.12328633 16.31438014 -25.810462 17.16492334 -29 19 C-31.796875 19.29296875 -31.796875 19.29296875 -34.75 19.1875 C-36.22726563 19.14689453 -36.22726563 19.14689453 -37.734375 19.10546875 C-38.48203125 19.07066406 -39.2296875 19.03585938 -40 19 C-40.02685412 16.68756208 -40.04632841 14.3750373 -40.0625 12.0625 C-40.07410156 10.77472656 -40.08570313 9.48695312 -40.09765625 8.16015625 C-40 5 -40 5 -39 4 C-34.92312314 3.74572938 -30.83385945 3.81476629 -26.75 3.8125 C-25.60402344 3.80025391 -24.45804688 3.78800781 -23.27734375 3.77539062 C-22.17003906 3.77345703 -21.06273437 3.77152344 -19.921875 3.76953125 C-18.90706055 3.76542236 -17.89224609 3.76131348 -16.84667969 3.75708008 C-12.50227385 4.12780768 -9.83518081 5.16481919 -6.75 8.25 C-4.83739262 11.25552588 -4.32734163 13.48107743 -4 17 C-2.68 17 -1.36 17 0 17 C0 11.39 0 5.78 0 0 Z " fill="#FDF9FA" transform="translate(90,26)"/>
<path d="M0 0 C8.25 0 16.5 0 25 0 C25 1.32 25 2.64 25 4 C23.02 4.66 21.04 5.32 19 6 C18.67 21.51 18.34 37.02 18 53 C24.31958815 50.89347062 24.73083593 50.70940092 27.6875 45.375 C29.38671875 42.3359375 29.38671875 42.3359375 31 40 C31.99 40 32.98 40 34 40 C34 48.25 34 56.5 34 65 C21.45614035 63.0994152 21.45614035 63.0994152 18.5625 62.46875 C15.12172717 61.83934034 11.67349015 61.64098842 8.1875 61.4375 C7.14819336 61.37272461 7.14819336 61.37272461 6.08789062 61.30664062 C4.39211314 61.20138547 2.69607948 61.10027137 1 61 C1 57.04 1 53.08 1 49 C2.32 48.34 3.64 47.68 5 47 C6.26459707 43.20620878 6.16238301 39.63675941 6.16796875 35.68359375 C6.17129715 34.87132828 6.17462555 34.05906281 6.17805481 33.22218323 C6.18311405 31.50660773 6.18546344 29.7910224 6.18530273 28.07543945 C6.18749458 25.44400999 6.20567522 22.81299621 6.22460938 20.18164062 C6.22754238 18.51562644 6.2295278 16.84961025 6.23046875 15.18359375 C6.23765427 14.39399765 6.24483978 13.60440155 6.25224304 12.7908783 C6.40540547 8.4286401 6.40540547 8.4286401 4 5 C1.93125966 4.3574765 1.93125966 4.3574765 0 4 C0 2.68 0 1.36 0 0 Z " fill="#BF1935" transform="translate(125,21)"/>
<path d="M0 0 C8.25 0 16.5 0 25 0 C25 1.32 25 2.64 25 4 C23.02 4.66 21.04 5.32 19 6 C19 21.18 19 36.36 19 52 C24.0819517 49.96721932 24.60917617 49.70551643 27.125 45.375 C28.5703125 42.8984375 28.5703125 42.8984375 30 41 C30.99 41 31.98 41 33 41 C33 47.27 33 53.54 33 60 C31.12054688 60.20496094 29.24109375 60.40992188 27.3046875 60.62109375 C24.82811536 60.89314145 22.35155339 61.16528171 19.875 61.4375 C18.6375 61.57220703 17.4 61.70691406 16.125 61.84570312 C14.92617187 61.97783203 13.72734375 62.10996094 12.4921875 62.24609375 C11.39245605 62.36654053 10.29272461 62.4869873 9.15966797 62.61108398 C6.08767381 62.98920844 3.04871665 63.46778003 0 64 C0 61.36 0 58.72 0 56 C1.65 55.34 3.3 54.68 5 54 C5 38.16 5 22.32 5 6 C2.525 5.01 2.525 5.01 0 4 C0 2.68 0 1.36 0 0 Z " fill="#C21A36" transform="translate(90,21)"/>
<path d="M0 0 C8.25 0 16.5 0 25 0 C25 1.32 25 2.64 25 4 C24.030625 4.309375 23.06125 4.61875 22.0625 4.9375 C19.15934208 5.69523342 19.15934208 5.69523342 18 7 C17.89641221 8.52386231 17.86148862 10.05246986 17.85473633 11.57983398 C17.84835648 12.55431992 17.84197662 13.52880585 17.83540344 14.53282166 C17.83429062 15.59320145 17.8331778 16.65358124 17.83203125 17.74609375 C17.82870285 18.82754166 17.82537445 19.90898956 17.82194519 21.02320862 C17.81687123 23.31567966 17.81453701 25.60815812 17.81469727 27.90063477 C17.81251155 31.41890567 17.79436272 34.93686281 17.77539062 38.45507812 C17.77245672 40.67708225 17.77047191 42.89908788 17.76953125 45.12109375 C17.76234573 46.17944931 17.75516022 47.23780487 17.74775696 48.32823181 C17.75083359 49.3058699 17.75391022 50.283508 17.75708008 51.29077148 C17.75565506 52.15379379 17.75423004 53.0168161 17.75276184 53.9059906 C17.80677892 56.21965718 17.80677892 56.21965718 20 58 C21.65 58.33 23.3 58.66 25 59 C25 63.95 25 68.9 25 74 C16.82602049 71.41874331 8.93359166 68.22988119 1 65 C1 62.03 1 59.06 1 56 C2.98 55.34 4.96 54.68 7 54 C7 38.16 7 22.32 7 6 C4.69 5.34 2.38 4.68 0 4 C0 2.68 0 1.36 0 0 Z " fill="#BF1F3A" transform="translate(160,21)"/>
<path d="M0 0 C3.3 0 6.6 0 10 0 C10 1.32 10 2.64 10 4 C7.03 3.505 7.03 3.505 4 3 C4.66 4.65 5.32 6.3 6 8 C4.35 8.66 2.7 9.32 1 10 C1.33 12.31 1.66 14.62 2 17 C4.31 17 6.62 17 9 17 C9.33 15.35 9.66 13.7 10 12 C9.01 11.67 8.02 11.34 7 11 C6.67 11.99 6.34 12.98 6 14 C6.3125 11.625 6.3125 11.625 7 9 C9.94414048 7.03723968 10.80204933 6.74523621 14.125 6.5 C16.043125 6.2525 16.043125 6.2525 18 6 C18.33 5.34 18.66 4.68 19 4 C19.66 4 20.32 4 21 4 C19.125 7.875 19.125 7.875 18 9 C15.67182036 9.36760731 13.3381615 9.70241581 11 10 C11.66 10.66 12.32 11.32 13 12 C12.84285399 15.06434726 12.41646074 16.55269031 10.3125 18.8125 C7.21737291 20.40188959 5.43979993 20.56159999 2 20 C-0.9375 17.875 -0.9375 17.875 -3 15 C-3.07921738 11.11834816 -2.48357385 9.55684261 0.0625 6.625 C0.701875 6.08875 1.34125 5.5525 2 5 C1.34 3.35 0.68 1.7 0 0 Z " fill="#444444" transform="translate(110,110)"/>
<path d="M0 0 C1.65 0.33 3.3 0.66 5 1 C5.33 7.27 5.66 13.54 6 20 C4.39125 20.04125 2.7825 20.0825 1.125 20.125 C0.22007812 20.14820313 -0.68484375 20.17140625 -1.6171875 20.1953125 C-4 20 -4 20 -6 18 C-6.3125 15 -6.3125 15 -6 12 C-3 10 -3 10 1 10 C1.33 7.36 1.66 4.72 2 2 C1.34 2 0.68 2 0 2 C0 1.34 0 0.68 0 0 Z " fill="#6F6F6F" transform="translate(181,110)"/>
<path d="M0 0 C1.98 0 3.96 0 6 0 C6 0.66 6 1.32 6 2 C5.34 2 4.68 2 4 2 C4 7.28 4 12.56 4 18 C4.66 18 5.32 18 6 18 C6 18.66 6 19.32 6 20 C4.02 20 2.04 20 0 20 C0 19.34 0 18.68 0 18 C0.66 18 1.32 18 2 18 C2 14.7 2 11.4 2 8 C-0.97 8 -3.94 8 -7 8 C-7 11.3 -7 14.6 -7 18 C-6.34 18 -5.68 18 -5 18 C-5 18.66 -5 19.32 -5 20 C-6.98 20 -8.96 20 -11 20 C-11 13.73 -11 7.46 -11 1 C-9.35 1 -7.7 1 -6 1 C-6.33 2.98 -6.66 4.96 -7 7 C-4.03 7 -1.06 7 2 7 C2 5.35 2 3.7 2 2 C1.34 2 0.68 2 0 2 C0 1.34 0 0.68 0 0 Z " fill="#444444" transform="translate(54,110)"/>
<path d="M0 0 C0.99 0.66 1.98 1.32 3 2 C2.67 3.32 2.34 4.64 2 6 C1.62875 5.505 1.2575 5.01 0.875 4.5 C-1.79160885 2.36671292 -3.67893663 2.64669539 -7 3 C-9.22052862 4.80599761 -9.22052862 4.80599761 -9.265625 7.3125 C-9.26046875 8.199375 -9.2553125 9.08625 -9.25 10 C-9.25773438 11.3303125 -9.25773438 11.3303125 -9.265625 12.6875 C-9.22052862 15.19400239 -9.22052862 15.19400239 -7 17 C-3.41656024 17.16677282 -3.41656024 17.16677282 0 17 C0.33 16.01 0.66 15.02 1 14 C0.01 14 -0.98 14 -2 14 C-2 13.34 -2 12.68 -2 12 C-0.02 12 1.96 12 4 12 C4.3125 14.3125 4.3125 14.3125 4 17 C1.39052778 19.22572631 -0.56586272 19.92610429 -3.9375 20.5 C-7.22004263 19.96407467 -9.38801855 19.03146454 -11.859375 16.76171875 C-14.19362128 13.15642741 -13.8263568 9.07669355 -13 5 C-9.33569897 -0.00787808 -6.00655746 -0.3161346 0 0 Z " fill="#474747" transform="translate(149,110)"/>
<path d="M0 0 C3.0625 0.3125 3.0625 0.3125 5 1.5 C6.0625 3.3125 6.0625 3.3125 5.875 5.875 C5.0625 8.3125 5.0625 8.3125 3.0625 10.3125 C-0.5625 9.9375 -0.5625 9.9375 -3.9375 9.3125 C-4.5625 5.9375 -4.5625 5.9375 -4.9375 2.3125 C-2.9375 0.3125 -2.9375 0.3125 0 0 Z " fill="#3B3B3B" transform="translate(65.9375,119.6875)"/>
<path d="M0 0 C0.7425 0.185625 1.485 0.37125 2.25 0.5625 C5.05944338 1.0094569 6.32144789 0.73051421 9 0 C12.1875 -0.125 12.1875 -0.125 15 0 C16 1 16 1 16.09765625 2.84765625 C16.06510417 4.8984375 16.03255208 6.94921875 16 9 C15.01 9 14.02 9 13 9 C12.67 7.02 12.34 5.04 12 3 C11.34 3 10.68 3 10 3 C10 4.98 10 6.96 10 9 C9.01 9 8.02 9 7 9 C6.67 7.02 6.34 5.04 6 3 C5.34 3 4.68 3 4 3 C4 4.98 4 6.96 4 9 C3.01 8.67 2.02 8.34 1 8 C1.33 6.02 1.66 4.04 2 2 C1.34 2 0.68 2 0 2 C0 1.34 0 0.68 0 0 Z " fill="#4E4E4E" transform="translate(73,120)"/>
<path d="M0 0 C2.625 0.375 2.625 0.375 5 1 C5 1.66 5 2.32 5 3 C6.32 3.33 7.64 3.66 9 4 C8.125 8.875 8.125 8.875 7 10 C3.5625 10.25 3.5625 10.25 0 10 C-2.14915785 6.77626323 -2.38286803 5.73296326 -2 2 C-1.34 1.34 -0.68 0.68 0 0 Z " fill="#EFEFEF" transform="translate(112,118)"/>
<path d="M0 0 C2.875 -0.125 2.875 -0.125 6 0 C9.00617269 3.00617269 8.59585316 5.82381598 9 10 C7.54207116 10.05399736 6.08357288 10.09279177 4.625 10.125 C3.81289062 10.14820313 3.00078125 10.17140625 2.1640625 10.1953125 C0 10 0 10 -2 8 C-1.625 5.375 -1.625 5.375 -1 3 C0.98 3 2.96 3 5 3 C5 2.34 5 1.68 5 1 C3.35 1.33 1.7 1.66 0 2 C0 1.34 0 0.68 0 0 Z " fill="#494949" transform="translate(156,120)"/>
<path d="M0 0 C0.33 2.97 0.66 5.94 1 9 C-2.63 9 -6.26 9 -10 9 C-10 8.34 -10 7.68 -10 7 C-9.34 7 -8.68 7 -8 7 C-8.33 4.69 -8.66 2.38 -9 0 C-5.32431536 -0.91892116 -3.83619425 -0.95904856 0 0 Z " fill="#4A4A4A" transform="translate(210,121)"/>
<path d="M0 0 C1.98 0 3.96 0 6 0 C6 0.66 6 1.32 6 2 C5.34 2 4.68 2 4 2 C4 7.28 4 12.56 4 18 C4.66 18 5.32 18 6 18 C6 18.66 6 19.32 6 20 C4.02 20 2.04 20 0 20 C0 19.34 0 18.68 0 18 C0.66 18 1.32 18 2 18 C2 14.7 2 11.4 2 8 C-0.64 8 -3.28 8 -6 8 C-6 7.67 -6 7.34 -6 7 C-3.36 7 -0.72 7 2 7 C2 5.35 2 3.7 2 2 C1.34 2 0.68 2 0 2 C0 1.34 0 0.68 0 0 Z " fill="#3B3B3B" transform="translate(54,110)"/>
<path d="M0 0 C0.99 0.66 1.98 1.32 3 2 C2.67 3.32 2.34 4.64 2 6 C1.62875 5.505 1.2575 5.01 0.875 4.5 C-0.9985579 2.74209948 -0.9985579 2.74209948 -4 2.5625 C-7.01195183 2.72763185 -7.01195183 2.72763185 -8.8125 4.5625 C-10.31951809 7.65585293 -10.55196177 10.60771054 -11 14 C-11.99 14.495 -11.99 14.495 -13 15 C-13.62805304 5.85833915 -13.62805304 5.85833915 -11.125 2.4375 C-7.25295191 -0.18182665 -4.69194048 -0.24694424 0 0 Z " fill="#454545" transform="translate(149,110)"/>
<path d="M0 0 C1.98 0 3.96 0 6 0 C6 5.28 6 10.56 6 16 C6.99 16.33 7.98 16.66 9 17 C8.01 17.33 7.02 17.66 6 18 C5.67 20.31 5.34 22.62 5 25 C4.67 25 4.34 25 4 25 C4 17.08 4 9.16 4 1 C3.01 1 2.02 1 1 1 C0.67 1.99 0.34 2.98 0 4 C0 2.68 0 1.36 0 0 Z " fill="#E8CCD2" transform="translate(84,60)"/>
<path d="M0 0 C0.33 0 0.66 0 1 0 C1 4.95 1 9.9 1 15 C1.66 15 2.32 15 3 15 C3 15.66 3 16.32 3 17 C1.37536158 17.05395478 -0.24978541 17.09277195 -1.875 17.125 C-2.77992188 17.14820313 -3.68484375 17.17140625 -4.6171875 17.1953125 C-7 17 -7 17 -9 15 C-9.125 11.875 -9.125 11.875 -9 9 C-7.68 8.67 -6.36 8.34 -5 8 C-5.33 9.98 -5.66 11.96 -6 14 C-5.01 14.33 -4.02 14.66 -3 15 C-2.34 14.67 -1.68 14.34 -1 14 C-0.52998967 10.72444392 -0.52998967 10.72444392 -0.375 6.9375 C-0.30023438 5.64714844 -0.22546875 4.35679688 -0.1484375 3.02734375 C-0.09945312 2.02832031 -0.05046875 1.02929688 0 0 Z " fill="#353535" transform="translate(184,113)"/>
<path d="M0 0 C3 0.25 3 0.25 5 2.25 C5 3.24 5 4.23 5 5.25 C2.69 5.25 0.38 5.25 -2 5.25 C-0.68 4.59 0.64 3.93 2 3.25 C0.68 2.92 -0.64 2.59 -2 2.25 C-2.59070014 4.19603274 -2.59070014 4.19603274 -3 6.25 C-1.87465895 7.60618499 -1.87465895 7.60618499 1.0625 7.3125 C2.031875 7.291875 3.00125 7.27125 4 7.25 C4 7.91 4 8.57 4 9.25 C-2.41194487 10.58078101 -2.41194487 10.58078101 -5 9.125 C-6 7.25 -6 7.25 -5.8125 4.6875 C-4.61374094 1.09122283 -3.8124642 0.31770535 0 0 Z " fill="#383838" transform="translate(97,119.75)"/>
<path d="M0 0 C3 0.25 3 0.25 5 2.25 C5 3.24 5 4.23 5 5.25 C2.69 5.25 0.38 5.25 -2 5.25 C-0.68 4.59 0.64 3.93 2 3.25 C0.68 2.92 -0.64 2.59 -2 2.25 C-2.66 3.9 -3.32 5.55 -4 7.25 C-1.36 7.25 1.28 7.25 4 7.25 C4 7.91 4 8.57 4 9.25 C-2.41194487 10.58078101 -2.41194487 10.58078101 -5 9.125 C-6 7.25 -6 7.25 -5.8125 4.6875 C-4.61374094 1.09122283 -3.8124642 0.31770535 0 0 Z " fill="#3F3F3F" transform="translate(194,119.75)"/>
<path d="M0 0 C0.33 0 0.66 0 1 0 C1 15.51 1 31.02 1 47 C0.67 47 0.34 47 0 47 C0 31.49 0 15.98 0 0 Z " fill="#050505" transform="translate(19,41)"/>
<path d="M0 0 C3.3 0 6.6 0 10 0 C10 1.32 10 2.64 10 4 C7.03 3.505 7.03 3.505 4 3 C4.66 4.65 5.32 6.3 6 8 C4.125 7.375 4.125 7.375 2 6 C0.75 2.875 0.75 2.875 0 0 Z " fill="#505050" transform="translate(110,110)"/>
<path d="M0 0 C2.125 0.375 2.125 0.375 4 1 C4.38218767 2.65614657 4.71395102 4.32457024 5 6 C4 7 4 7 1.4375 7.0625 C0.2309375 7.0315625 0.2309375 7.0315625 -1 7 C-1.625 4.625 -1.625 4.625 -2 2 C-1.34 1.34 -0.68 0.68 0 0 Z " fill="#E6E6E6" transform="translate(65,121)"/>
<path d="M0 0 C2.91387197 0.2913872 3.82565583 0.79452294 5.75 3.0625 C6.36875 4.0215625 6.36875 4.0215625 7 5 C6.34 5 5.68 5 5 5 C5 5.66 5 6.32 5 7 C2.69 6.67 0.38 6.34 -2 6 C-1.125 1.125 -1.125 1.125 0 0 Z " fill="#D9D9D9" transform="translate(192,121)"/>
<path d="M0 0 C0.33 0 0.66 0 1 0 C1 9.24 1 18.48 1 28 C-0.32 27.67 -1.64 27.34 -3 27 C-3 26.01 -3 25.02 -3 24 C-2.34 24 -1.68 24 -1 24 C-0.67 16.08 -0.34 8.16 0 0 Z " fill="#CE2B45" transform="translate(69,36)"/>
<path d="M0 0 C0.7425 0.185625 1.485 0.37125 2.25 0.5625 C4.94990963 0.99203108 6.44631077 0.85122974 9 0 C8.67 2.64 8.34 5.28 8 8 C7.67 8 7.34 8 7 8 C6.67 6.35 6.34 4.7 6 3 C5.34 3 4.68 3 4 3 C4 4.98 4 6.96 4 9 C3.01 8.67 2.02 8.34 1 8 C1.33 6.02 1.66 4.04 2 2 C1.34 2 0.68 2 0 2 C0 1.34 0 0.68 0 0 Z " fill="#5B5B5B" transform="translate(73,120)"/>
<path d="M0 0 C2.91387197 0.2913872 3.82565583 0.79452294 5.75 3.0625 C6.36875 4.0215625 6.36875 4.0215625 7 5 C5 7 5 7 2.5 7.25 C0 7 0 7 -2 5 C-1.46428571 1.46428571 -1.46428571 1.46428571 0 0 Z " fill="#D4D4D4" transform="translate(95,121)"/>
<path d="M0 0 C2.125 0.375 2.125 0.375 4 1 C3.01 1.66 2.02 2.32 1 3 C1.48484276 7.64586892 1.48484276 7.64586892 3 12 C1.125 11.6875 1.125 11.6875 -1 11 C-3 8 -3 8 -2.75 4.9375 C-2 2 -2 2 0 0 Z " fill="#404040" transform="translate(110,117)"/>
<path d="M0 0 C1.65 0 3.3 0 5 0 C5 1.98 5 3.96 5 6 C3.125 6.625 3.125 6.625 1 7 C0.34 6.34 -0.32 5.68 -1 5 C-0.625 2.375 -0.625 2.375 0 0 Z " fill="#F6F6F6" transform="translate(178,122)"/>
<path d="M0 0 C-0.515625 0.556875 -1.03125 1.11375 -1.5625 1.6875 C-3.29476698 3.94085007 -3.29476698 3.94085007 -2.6875 6.75 C-2.460625 7.4925 -2.23375 8.235 -2 9 C-3.65 9 -5.3 9 -7 9 C-7 6.03 -7 3.06 -7 0 C-2.25 -1.125 -2.25 -1.125 0 0 Z " fill="#3E3E3E" transform="translate(174,121)"/>
<path d="M0 0 C0 2.31 0 4.62 0 7 C1.32 6.67 2.64 6.34 4 6 C4 6.66 4 7.32 4 8 C0.37 8 -3.26 8 -7 8 C-6.67 7.34 -6.34 6.68 -6 6 C-5.01 6.33 -4.02 6.66 -3 7 C-3 5.02 -3 3.04 -3 1 C-1 0 -1 0 0 0 Z " fill="#C6C6C6" transform="translate(86,122)"/>
<path d="M0 0 C0.66 0 1.32 0 2 0 C1.71905418 1.8141927 1.42493567 3.62635001 1.125 5.4375 C0.88136719 6.95150391 0.88136719 6.95150391 0.6328125 8.49609375 C0.42398438 9.32238281 0.21515625 10.14867188 0 11 C-0.99 11.495 -0.99 11.495 -2 12 C-2.05395478 10.37536158 -2.09277195 8.75021459 -2.125 7.125 C-2.14820313 6.22007813 -2.17140625 5.31515625 -2.1953125 4.3828125 C-2 2 -2 2 0 0 Z " fill="#282828" transform="translate(138,113)"/>
<path d="M0 0 C0.99 0 1.98 0 3 0 C3 1.98 3 3.96 3 6 C3.99 6 4.98 6 6 6 C6 6.66 6 7.32 6 8 C4.35 8 2.7 8 1 8 C-0.35439668 5.29120665 -0.06501451 2.99066732 0 0 Z " fill="#C2C2C2" transform="translate(72,122)"/>
<path d="M0 0 C0 1.98 0 3.96 0 6 C-1.32 6 -2.64 6 -4 6 C-4 4.35 -4 2.7 -4 1 C-2 0 -2 0 0 0 Z " fill="#ECECEC" transform="translate(208,122)"/>
<path d="M0 0 C0.33 0 0.66 0 1 0 C1 3.3 1 6.6 1 10 C1.99 10 2.98 10 4 10 C4 10.66 4 11.32 4 12 C2.02 12 0.04 12 -2 12 C-2 11.34 -2 10.68 -2 10 C-1.34 10 -0.68 10 0 10 C0 6.7 0 3.4 0 0 Z " fill="#353535" transform="translate(56,118)"/>
<path d="M0 0 C0.99 0 1.98 0 3 0 C2.6875 2.875 2.6875 2.875 2 6 C1.01 6.66 0.02 7.32 -1 8 C-0.67 5.36 -0.34 2.72 0 0 Z " fill="#BB263F" transform="translate(85,61)"/>
<path d="M0 0 C1.32 0 2.64 0 4 0 C4 1.32 4 2.64 4 4 C2.35 4 0.7 4 -1 4 C-0.67 2.68 -0.34 1.36 0 0 Z " fill="#ECECEC" transform="translate(157,124)"/>
<path d="M0 0 C3.5 0.3125 3.5 0.3125 7 1 C7.33 1.66 7.66 2.32 8 3 C5.69 3.33 3.38 3.66 1 4 C0.34 3.01 -0.32 2.02 -1 1 C-0.67 0.67 -0.34 0.34 0 0 Z " fill="#4B4B4B" transform="translate(93,126)"/>
<path d="M0 0 C2 0.3125 2 0.3125 4 1 C4.33 1.66 4.66 2.32 5 3 C2.69 3.66 0.38 4.32 -2 5 C-1.125 1.125 -1.125 1.125 0 0 Z " fill="#DBDBDB" transform="translate(95,121)"/>
<path d="M0 0 C2.125 0.375 2.125 0.375 4 1 C3.01 1.66 2.02 2.32 1 3 C0.27617533 5.05925139 0.27617533 5.05925139 0 7 C-0.66 7 -1.32 7 -2 7 C-2.125 4.625 -2.125 4.625 -2 2 C-1.34 1.34 -0.68 0.68 0 0 Z " fill="#2A2A2A" transform="translate(110,117)"/>
<path d="M0 0 C0.33 0 0.66 0 1 0 C1 3.63 1 7.26 1 11 C0.67 11 0.34 11 0 11 C0 7.37 0 3.74 0 0 Z " fill="#FFFFFF" transform="translate(8,117)"/>
<path d="M0 0 C0.99 0.495 0.99 0.495 2 1 C2 1.66 2 2.32 2 3 C1.34 3 0.68 3 0 3 C0 2.01 0 1.02 0 0 Z " fill="#666666" transform="translate(167,106)"/>
<path d="M0 0 C1 4 1 4 1 4 Z " fill="#000000" transform="translate(8,17)"/>
<path d="" fill="#000000" transform="translate(0,0)"/>
<path d="" fill="#000000" transform="translate(0,0)"/>
<path d="" fill="#FFFFFF" transform="translate(0,0)"/>
<path d="" fill="#FFFFFF" transform="translate(0,0)"/>
</svg>
