<?xml version="1.0" encoding="UTF-8"?>
<svg version="1.1" xmlns="http://www.w3.org/2000/svg" width="294" height="70">
<path d="M0 0 C3 1 3 1 4.7890625 4.01953125 C5.4113817 5.27879681 6.02297748 6.54340591 6.625 7.8125 C6.93695313 8.44220703 7.24890625 9.07191406 7.5703125 9.72070312 C12.11567266 19.05632432 12.75054039 29.97248109 9.375 39.875 C3.99929432 52.54362107 -4.29304176 60.76772308 -17 66 C-23.435 66.99 -23.435 66.99 -30 68 C-30 58.1 -30 48.2 -30 38 C-21.42 38 -12.84 38 -4 38 C-4 31.07 -4 24.14 -4 17 C-12.58 17 -21.16 17 -30 17 C-30 13.7 -30 10.4 -30 7 C-27.15326245 5.57663123 -24.85384653 5.99241163 -21.6796875 6.12109375 C-20.42285156 6.16943359 -19.16601562 6.21777344 -17.87109375 6.26757812 C-16.55238281 6.32365234 -15.23367187 6.37972656 -13.875 6.4375 C-12.53517562 6.49072413 -11.19533192 6.54346451 -9.85546875 6.59570312 C-6.57009113 6.72570008 -3.28499322 6.86067686 0 7 C0 4.69 0 2.38 0 0 Z " fill="#818385" transform="translate(71,2)"/>
<path d="M0 0 C2.64 0 5.28 0 8 0 C10.64 4.62 13.28 9.24 16 14 C16.33 9.38 16.66 4.76 17 0 C19.64 0 22.28 0 25 0 C25 9.57 25 19.14 25 29 C22.03 29 19.06 29 16 29 C13.58984375 26.375 13.58984375 26.375 11.9375 23 C11.36902344 21.88625 10.80054688 20.7725 10.21484375 19.625 C9.81394531 18.75875 9.41304688 17.8925 9 17 C8.67 20.96 8.34 24.92 8 29 C5.36 29 2.72 29 0 29 C0 19.43 0 9.86 0 0 Z M7 13 C8 15 8 15 8 15 Z " fill="#394D6C" transform="translate(268,8)"/>
<path d="M0 0 C0.99 0.33 1.98 0.66 3 1 C3 19.81 3 38.62 3 58 C-4.33743905 54.33128047 -7.76947688 46.60891636 -10.30859375 39.0234375 C-13.27115715 26.06849924 -10.23263536 15.01533218 -3.40234375 4.03125 C-2 2 -2 2 0 0 Z " fill="#394D6C" transform="translate(11,0)"/>
<path d="M0 0 C0 2.64 0 5.28 0 8 C-0.99 7.67 -1.98 7.34 -3 7 C-5.41282689 6.72927005 -5.41282689 6.72927005 -8 6.6875 C-8.86625 6.65011719 -9.7325 6.61273438 -10.625 6.57421875 C-13.1255886 6.79649452 -13.1255886 6.79649452 -14.83203125 8.75390625 C-16.17124494 11.3293172 -16.20375553 12.43406076 -15.6875 15.25 C-15.3471875 17.10625 -15.3471875 17.10625 -15 19 C-10.57394994 20.44524884 -10.57394994 20.44524884 -6 21 C-6 19.68 -6 18.36 -6 17 C-7.32 17 -8.64 17 -10 17 C-10 14.69 -10 12.38 -10 10 C-6.04 10 -2.08 10 2 10 C2 15.28 2 20.56 2 26 C-4.21885571 28.46779988 -9.44726054 30.16037494 -16 28 C-19.66981606 25.78413011 -22.26211769 23.25119175 -24.4375 19.5625 C-25.4574184 14.91620506 -25.48303111 11.29655718 -23.8125 6.8125 C-21.08977445 2.58758105 -18.40952446 0.60803016 -13.8125 -1.375 C-8.84275982 -2.1897115 -4.82166539 -1.2612002 0 0 Z " fill="#394D6C" transform="translate(184,9)"/>
<path d="M0 0 C4.21808773 5.01511012 4.68723529 8.46583358 4.62890625 14.83203125 C4.14021533 19.57166377 1.78368314 22.10629692 -1.40625 25.41015625 C-4.72613857 27.16231966 -7.94752058 27.71550373 -11.65625 27.59765625 C-16.31195057 26.12335107 -19.56240748 24.40546243 -22.65625 20.59765625 C-24.19903505 15.96930111 -24.16103774 11.43117175 -23.65625 6.59765625 C-21.26766026 1.82047678 -18.50742465 -1.34333602 -13.46875 -3.21484375 C-8.72450765 -3.53112657 -3.74971912 -3.1748801 0 0 Z M-14.32421875 5.83984375 C-16.01339684 8.0689644 -16.0287856 9.32678224 -15.96875 12.09765625 C-15.96488281 12.87109375 -15.96101562 13.64453125 -15.95703125 14.44140625 C-15.77450461 16.89090571 -15.77450461 16.89090571 -13.65625 19.59765625 C-9.03935076 20.1895888 -9.03935076 20.1895888 -4.95703125 18.35546875 C-3.31363589 16.13466421 -3.25383469 14.83918686 -3.28125 12.09765625 C-3.27351563 11.32421875 -3.26578125 10.55078125 -3.2578125 9.75390625 C-3.749862 7.09105014 -4.50450287 6.20389003 -6.65625 4.59765625 C-10.75768794 4.06427193 -10.75768794 4.06427193 -14.32421875 5.83984375 Z " fill="#394D6C" transform="translate(260.65625,10.40234375)"/>
<path d="M0 0 C14 0 14 0 19 3 C21.45193779 6.67790669 21.71511798 9.72592275 21 14 C19 17 19 17 17 19 C17.433125 19.55429687 17.86625 20.10859375 18.3125 20.6796875 C18.869375 21.40414063 19.42625 22.12859375 20 22.875 C20.556875 23.59429688 21.11375 24.31359375 21.6875 25.0546875 C23 27 23 27 23 29 C19.87228538 29.4906219 17.10352525 29.70581845 14 29 C11.71071431 26.61663407 10.33530634 24.00611679 9 21 C8.67 23.64 8.34 26.28 8 29 C5.36 29 2.72 29 0 29 C0 19.43 0 9.86 0 0 Z M8 6 C7.67 8.31 7.34 10.62 7 13 C8.98 13 10.96 13 13 13 C13.33 11.35 13.66 9.7 14 8 C11.18490007 5.7226499 11.18490007 5.7226499 8 6 Z " fill="#394D6C" transform="translate(136,8)"/>
<path d="M0 0 C2.64 0 5.28 0 8 0 C8.33 6.93 8.66 13.86 9 21 C12.74691447 22.39770584 12.74691447 22.39770584 15 21 C15.33 14.07 15.66 7.14 16 0 C18.64 0 21.28 0 24 0 C24.11681812 3.54138618 24.187455 7.0822724 24.25 10.625 C24.30027344 12.12353516 24.30027344 12.12353516 24.3515625 13.65234375 C24.43274006 19.78124949 24.13853353 23.3584403 20 28 C16.20819481 30.4917577 12.50816221 30.21194884 8.15625 29.6171875 C4.79768571 28.65585931 3.10431494 26.69615352 1 24 C-0.25248502 21.49502996 -0.11374406 19.79146726 -0.09765625 16.9921875 C-0.09443359 16.00605469 -0.09121094 15.01992188 -0.08789062 14.00390625 C-0.07951172 12.97136719 -0.07113281 11.93882813 -0.0625 10.875 C-0.05798828 9.83472656 -0.05347656 8.79445313 -0.04882812 7.72265625 C-0.03701952 5.14838038 -0.02055075 2.57421854 0 0 Z " fill="#394D6C" transform="translate(189,8)"/>
<path d="M0 0 C5.94 0 11.88 0 18 0 C18 1.98 18 3.96 18 6 C14.37 6 10.74 6 7 6 C7 7.65 7 9.3 7 11 C10.3 11 13.6 11 17 11 C17 13.31 17 15.62 17 18 C13.7 18 10.4 18 7 18 C7 19.65 7 21.3 7 23 C10.63 23 14.26 23 18 23 C18 24.98 18 26.96 18 29 C12.06 29 6.12 29 0 29 C0 19.43 0 9.86 0 0 Z " fill="#394D6C" transform="translate(114,8)"/>
<path d="M0 0 C66.66 0 133.32 0 202 0 C202 0.66 202 1.32 202 2 C135.34 2 68.68 2 0 2 C0 1.34 0 0.68 0 0 Z " fill="#394D6C" transform="translate(92,41)"/>
<path d="M0 0 C0.886875 -0.00257813 1.77375 -0.00515625 2.6875 -0.0078125 C5 0.125 5 0.125 7 1.125 C7.59355614 3.77360427 7.74209269 6.41697322 8 9.125 C4.37 8.465 0.74 7.805 -3 7.125 C-3 8.115 -3 9.105 -3 10.125 C-2.113125 10.3725 -1.22625 10.62 -0.3125 10.875 C3.19609556 12.19899832 5.35306704 13.47806704 8 16.125 C9.15396814 19.12531716 9.12583833 20.64452637 8.3125 23.75 C6.76839585 26.54409322 5.83153038 27.63472085 3 29.125 C-2.43931813 30.26550219 -5.77762547 30.34450917 -11 28.125 C-11 25.485 -11 22.845 -11 20.125 C-9.6696875 20.6509375 -9.6696875 20.6509375 -8.3125 21.1875 C-4.93796874 22.14255602 -3.30313848 22.09651132 0 21.125 C-2.34237193 19.32317544 -4.70319922 17.66998874 -7.1875 16.0625 C-10 14.125 -10 14.125 -11 12.125 C-11.5801105 5.85980663 -11.5801105 5.85980663 -9.125 2.75 C-5.86929118 0.26034031 -4.05024756 -0.01177398 0 0 Z " fill="#394D6C" transform="translate(227,7.875)"/>
<path d="M0 0 C6.27 0 12.54 0 19 0 C19 1.98 19 3.96 19 6 C15.37 6 11.74 6 8 6 C8 7.98 8 9.96 8 12 C10.97 12 13.94 12 17 12 C17 14.31 17 16.62 17 19 C14.03 19 11.06 19 8 19 C8 22.3 8 25.6 8 29 C5.36 29 2.72 29 0 29 C0 19.43 0 9.86 0 0 Z " fill="#394D6C" transform="translate(93,8)"/>
<path d="M0 0 C1.98 0 3.96 0 6 0 C6 1.32 6 2.64 6 4 C7.670625 3.9690625 7.670625 3.9690625 9.375 3.9375 C13 4 13 4 15 5 C15 7.64 15 10.28 15 13 C13.35 13.66 11.7 14.32 10 15 C10 16.65 10 18.3 10 20 C7.00675737 18.9024777 6.15389099 18.32317108 4.75 15.375 C4.5025 14.59125 4.255 13.8075 4 13 C3.2575 13.2475 2.515 13.495 1.75 13.75 C0.38875 13.87375 0.38875 13.87375 -1 14 C-3.3125 12.0625 -3.3125 12.0625 -5 10 C-4.67 9.01 -4.34 8.02 -4 7 C-2.02 7.495 -2.02 7.495 0 8 C0 5.36 0 2.72 0 0 Z " fill="#DE8156" transform="translate(179,47)"/>
<path d="M0 0 C1.890625 0.24609375 1.890625 0.24609375 4 1 C5.44963687 3.55850089 6.10400905 6.1776285 7 9 C7.99 6.03 8.98 3.06 10 0 C10.99 0 11.98 0 13 0 C13.99 2.97 14.98 5.94 16 9 C17.32 6.03 18.64 3.06 20 0 C20.99 0 21.98 0 23 0 C21.83348574 5.92863717 20.24480642 11.38798394 18 17 C16.078125 16.69140625 16.078125 16.69140625 14 16 C12.75 12.9375 12.75 12.9375 12 10 C10.45428722 12.31856917 9.20381448 14.50638429 8 17 C7.01 17 6.02 17 5 17 C4.16080602 14.73117913 3.32848276 12.46022973 2.5 10.1875 C2.26152344 9.54490234 2.02304688 8.90230469 1.77734375 8.24023438 C0.72931254 5.35066261 0 3.09923939 0 0 Z " fill="#394D6C" transform="translate(141,47)"/>
<path d="M0 0 C5.45949074 1.09189815 6.01471081 1.68791562 9 6 C9.86625 4.515 9.86625 4.515 10.75 3 C11.4925 2.01 12.235 1.02 13 0 C14.32 0 15.64 0 17 0 C17 5.61 17 11.22 17 17 C15.68 17 14.36 17 13 17 C12.67 14.03 12.34 11.06 12 8 C10.68 9.32 9.36 10.64 8 12 C7.01 10.68 6.02 9.36 5 8 C4.67 10.97 4.34 13.94 4 17 C2.68 17 1.36 17 0 17 C0 11.39 0 5.78 0 0 Z " fill="#394D6C" transform="translate(276,47)"/>
<path d="M0 0 C8.24550898 -0.48502994 8.24550898 -0.48502994 11.625 1.6875 C13 4 13 4 12.875 6.625 C12 9 12 9 10 11 C10.495 11.61875 10.99 12.2375 11.5 12.875 C13 15 13 15 13 17 C11.68 17 10.36 17 9 17 C7.95107762 15.36368108 6.95093297 13.69514137 6 12 C5.01 11.67 4.02 11.34 3 11 C3 12.98 3 14.96 3 17 C2.01 17 1.02 17 0 17 C0 11.39 0 5.78 0 0 Z M3 3 C3 4.65 3 6.3 3 8 C4.65 8 6.3 8 8 8 C8.33 6.68 8.66 5.36 9 4 C6.03 3.505 6.03 3.505 3 3 Z " fill="#394D6C" transform="translate(251,47)"/>
<path d="M0 0 C1.79296875 0.0703125 1.79296875 0.0703125 4 1 C5.32004846 3.3197256 6.33448692 5.41893708 7.3125 7.875 C7.58900391 8.51308594 7.86550781 9.15117188 8.15039062 9.80859375 C10.13451024 14.59646929 10.13451024 14.59646929 9 18 C8.01 17.67 7.02 17.34 6 17 C5.3125 14.9375 5.3125 14.9375 5 13 C2.06556598 13.26656572 2.06556598 13.26656572 -1 14 C-1.99 15.485 -1.99 15.485 -3 17 C-3.99 17 -4.98 17 -6 17 C-4.33846988 11.14340094 -2.52958084 5.5409866 0 0 Z M1 5 C0.67 6.65 0.34 8.3 0 10 C0.99 9.67 1.98 9.34 3 9 C2.34 7.68 1.68 6.36 1 5 Z " fill="#394D6C" transform="translate(122,47)"/>
<path d="M0 0 C3.96 0 7.92 0 12 0 C12 0.99 12 1.98 12 3 C9.36 3 6.72 3 4 3 C4 4.32 4 5.64 4 7 C6.31 7 8.62 7 11 7 C11 7.99 11 8.98 11 10 C8.69 10 6.38 10 4 10 C4 12.31 4 14.62 4 17 C2.68 17 1.36 17 0 17 C0 11.39 0 5.78 0 0 Z " fill="#394D6C" transform="translate(210,47)"/>
<path d="M0 0 C1.32 0 2.64 0 4 0 C4 4.29 4 8.58 4 13 C6.64 13.33 9.28 13.66 12 14 C12 14.99 12 15.98 12 17 C8.04 17 4.08 17 0 17 C0 11.39 0 5.78 0 0 Z " fill="#394D6C" transform="translate(93,47)"/>
<path d="M0 0 C0.99 0 1.98 0 3 0 C3 5.61 3 11.22 3 17 C2.01 17 1.02 17 0 17 C0 11.39 0 5.78 0 0 Z " fill="#394D6C" transform="translate(234,47)"/>
</svg>
