<?xml version="1.0" encoding="UTF-8"?>
<svg version="1.1" xmlns="http://www.w3.org/2000/svg" width="429" height="130">
<path d="M0 0 C8.58 0 17.16 0 26 0 C26 0.66 26 1.32 26 2 C25.360625 2.28875 24.72125 2.5775 24.0625 2.875 C21.84793921 3.82823451 21.84793921 3.82823451 21 6 C20.84621148 7.95774069 20.75028537 9.92017352 20.68359375 11.8828125 C20.64548584 12.93355957 20.60737793 13.98430664 20.56811523 15.06689453 C20.50346069 17.07565674 20.50346069 17.07565674 20.4375 19.125 C20.293125 23.37375 20.14875 27.6225 20 32 C33.86 32 47.72 32 62 32 C61.87625 28.32875 61.7525 24.6575 61.625 20.875 C61.59100098 19.7288623 61.55700195 18.58272461 61.52197266 17.40185547 C61.30327899 9.98388574 61.30327899 9.98388574 59 3 C58.01 2.67 57.02 2.34 56 2 C56 1.34 56 0.68 56 0 C64.58 0 73.16 0 82 0 C82 0.66 82 1.32 82 2 C81.0409375 2.433125 81.0409375 2.433125 80.0625 2.875 C77.84793921 3.82823451 77.84793921 3.82823451 77 6 C76.88846849 7.88809144 76.84074015 9.78008723 76.82299805 11.67138672 C76.81016281 12.85957001 76.79732758 14.0477533 76.78410339 15.27194214 C76.77671646 16.56149811 76.76932953 17.85105408 76.76171875 19.1796875 C76.74961113 21.15885666 76.74961113 21.15885666 76.73725891 23.17800903 C76.72223312 25.97397738 76.7123942 28.76992032 76.70483398 31.56591797 C76.69376546 35.14622982 76.65936033 38.72592083 76.61966228 42.30601311 C76.59351488 45.05983636 76.58514394 47.81351119 76.58155251 50.56744766 C76.5743156 52.52844334 76.54786961 54.48933762 76.52116394 56.45016479 C76.52408951 57.6446524 76.52701508 58.83914001 76.5300293 60.06982422 C76.52122993 61.64629227 76.52122993 61.64629227 76.51225281 63.25460815 C77.12302827 66.69249158 78.32104619 67.83719817 81 70 C81.66 70.33 82.32 70.66 83 71 C83 71.99 83 72.98 83 74 C73.76 74 64.52 74 55 74 C55 73.01 55 72.02 55 71 C55.804375 70.38125 56.60875 69.7625 57.4375 69.125 C60.48095799 66.60115679 60.50101786 65.80113956 61 62 C61.1422621 60.01661939 61.245071 58.03016487 61.31640625 56.04296875 C61.35451416 55.04031982 61.39262207 54.0376709 61.43188477 53.00463867 C61.47498779 51.74498291 61.51809082 50.48532715 61.5625 49.1875 C61.706875 45.165625 61.85125 41.14375 62 37 C48.14 37 34.28 37 20 37 C20.0825 41.7025 20.165 46.405 20.25 51.25 C20.26579102 52.72758789 20.28158203 54.20517578 20.29785156 55.72753906 C20.3284668 56.89510742 20.35908203 58.06267578 20.390625 59.265625 C20.41157227 60.45961914 20.43251953 61.65361328 20.45410156 62.88378906 C21.09893409 66.56475615 22.10374187 67.72175483 25 70 C25.66 70.33 26.32 70.66 27 71 C27 71.99 27 72.98 27 74 C17.76 74 8.52 74 -1 74 C-1 73.01 -1 72.02 -1 71 C-0.195625 70.38125 0.60875 69.7625 1.4375 69.125 C4.46902466 66.61105272 4.511009 65.78497037 5 62 C5.09237186 60.22252431 5.13782733 58.44221224 5.14526367 56.66235352 C5.15164352 55.62099747 5.15802338 54.57964142 5.16459656 53.50672913 C5.16570938 52.39204758 5.1668222 51.27736603 5.16796875 50.12890625 C5.17129715 48.97382065 5.17462555 47.81873505 5.17805481 46.62864685 C5.18311193 44.18855181 5.18546351 41.74844988 5.18530273 39.30834961 C5.18748985 35.57979939 5.2056605 31.8515448 5.22460938 28.12304688 C5.22754343 25.75000101 5.22952814 23.37695374 5.23046875 21.00390625 C5.23765427 19.89124893 5.24483978 18.77859161 5.25224304 17.63221741 C5.31204493 10.09142933 5.31204493 10.09142933 3 3 C2.01 2.67 1.02 2.34 0 2 C0 1.34 0 0.68 0 0 Z " fill="#012F87" transform="translate(1,9)"/>
<path d="M0 0 C1.77734375 0.0859375 1.77734375 0.0859375 4 1 C5.38987761 3.210184 6.48112744 5.26707055 7.5625 7.625 C7.89185547 8.31489014 8.22121094 9.00478027 8.56054688 9.71557617 C9.29871484 11.2642782 10.03092905 12.81582703 10.75830078 14.36962891 C12.13425023 17.28439087 13.54723483 20.17949859 14.96484375 23.07421875 C15.97715437 25.15335776 16.9888769 27.23278322 18 29.3125 C18.73972046 30.82481201 18.73972046 30.82481201 19.49438477 32.36767578 C19.94998779 33.31497559 20.40559082 34.26227539 20.875 35.23828125 C21.28492188 36.08430908 21.69484375 36.93033691 22.1171875 37.80200195 C23 40 23 40 23 43 C23.66 43 24.32 43 25 43 C25.16870605 42.45545166 25.33741211 41.91090332 25.51123047 41.34985352 C27.58852956 34.86054876 30.27488042 28.80020486 33.21484375 22.66210938 C35.50583753 17.69828951 36.79896936 13.49286661 37 8 C35.27773504 4.75150023 35.27773504 4.75150023 32 4 C32 3.01 32 2.02 32 1 C38.6 1 45.2 1 52 1 C51.04145436 4.83418258 50.77944361 5.53672353 48.25390625 8.14453125 C44.58552988 12.26503856 42.31572548 16.73908872 39.9375 21.6875 C39.48141357 22.6170752 39.02532715 23.54665039 38.55541992 24.50439453 C32.51089014 36.91014483 26.75306069 49.45714206 21 62 C19.68 62 18.36 62 17 62 C14.77520518 57.14413019 12.5515289 52.28775029 10.32885742 47.4309082 C9.57362589 45.7810302 8.81809658 44.13128846 8.06225586 42.48168945 C6.97169672 40.10143809 5.88223311 37.72068787 4.79296875 35.33984375 C4.45847214 34.61039047 4.12397552 33.88093719 3.77934265 33.12937927 C1.79006965 28.77804993 -0.13237584 24.4049647 -2 20 C-6.05987247 27.72150132 -9.39611195 35.65116817 -12.625 43.75 C-13.57327629 46.12069072 -14.52372457 48.49051403 -15.4765625 50.859375 C-16.096521 52.41350098 -16.096521 52.41350098 -16.72900391 53.99902344 C-18.02996539 57.07075193 -19.47755573 60.03264591 -21 63 C-24.54432044 61.5864829 -25.76145924 60.20986004 -27.41015625 56.80078125 C-27.8373999 55.93211426 -28.26464355 55.06344727 -28.70483398 54.16845703 C-29.15286377 53.22599121 -29.60089355 52.28352539 -30.0625 51.3125 C-30.77224976 49.85626221 -30.77224976 49.85626221 -31.49633789 48.37060547 C-33.01099363 45.25335752 -34.50697962 42.12766166 -36 39 C-37.00757721 36.90223072 -38.01538748 34.80457337 -39.0234375 32.70703125 C-40.88752488 28.82174802 -42.74208887 24.93213533 -44.58984375 21.0390625 C-45.39259991 19.35907418 -46.19595034 17.67936964 -47 16 C-47.36528809 15.22865723 -47.73057617 14.45731445 -48.10693359 13.66259766 C-50.22289525 9.28429959 -52.46636922 6.33731796 -56 3 C-56 2.34 -56 1.68 -56 1 C-47.75 1 -39.5 1 -31 1 C-30.67 1.66 -30.34 2.32 -30 3 C-31.98 3.99 -31.98 3.99 -34 5 C-34.41271411 10.1471346 -33.07994225 13.62374814 -30.71875 18.078125 C-30.38580933 18.73077332 -30.05286865 19.38342163 -29.70983887 20.05584717 C-28.65117488 22.12659889 -27.57651716 24.18848168 -26.5 26.25 C-25.42636559 28.32713432 -24.35619489 30.40595423 -23.29016113 32.48699951 C-22.62749143 33.77838361 -21.95990993 35.0672613 -21.2869873 36.35333252 C-19 40.77867596 -19 40.77867596 -19 43 C-18.34 43 -17.68 43 -17 43 C-16.90396484 42.34604248 -16.80792969 41.69208496 -16.70898438 41.01831055 C-15.77657955 37.04884745 -14.24305066 33.45499585 -12.65625 29.70703125 C-12.32709595 28.91979172 -11.99794189 28.13255219 -11.65881348 27.32145691 C-10.6101957 24.81663442 -9.55510866 22.31459421 -8.5 19.8125 C-7.78995568 18.11800983 -7.08031579 16.42335012 -6.37109375 14.72851562 C-1.22191362 2.44382723 -1.22191362 2.44382723 0 0 Z " fill="#022E83" transform="translate(229,21)"/>
<path d="M0 0 C7.16479086 4.71273389 11.59251923 11.17285031 13.61328125 19.5390625 C15.23486774 29.85824925 12.81850417 38.43165752 6.78515625 46.92578125 C0.42772358 54.31264503 -8.30395367 57.32571282 -17.79296875 58.28125 C-28.29234578 58.6366591 -36.85099302 55.59681518 -45 49 C-51.64707114 42.35292886 -54.22927113 35.82614265 -54.5 26.5 C-54.20301269 16.91018397 -51.42557763 10.76525635 -44.921875 3.7890625 C-32.64944278 -7.63527481 -14.13497115 -8.29981913 0 0 Z M-33.75 3.1875 C-40.62799315 11.78499144 -40.93176164 23.44090228 -40 34 C-38.67815156 41.46127702 -36.93183505 47.42679457 -30.68359375 52.046875 C-25.55708718 54.94912002 -19.69791577 54.52403111 -14 54 C-8.63315408 52.33475525 -5.59053996 48.89324215 -3 44 C0.88430354 33.0201817 1.06594162 17.70064847 -3.734375 7.03515625 C-6.37037822 2.79639799 -9.3546753 0.73514508 -13.9375 -1.3125 C-21.7157348 -3.05863434 -27.47723599 -1.80219864 -33.75 3.1875 Z " fill="#022E84" transform="translate(150,26)"/>
<path d="M0 0 C4.59931388 3.5253208 8.00776568 7.49205806 10 13 C10 14.98 10 16.96 10 19 C-5.84 19 -21.68 19 -38 19 C-38 29.4517176 -37.94785902 40.14843411 -30.78515625 48.47265625 C-25.96055629 52.60048685 -20.62357068 53.26560691 -14.4375 53 C-7.04695625 52.0194111 -2.28086589 48.92299862 2.3125 43.125 C4.78418001 39.58248314 6.48597318 36.03740486 8 32 C9.32 32 10.64 32 12 32 C9.97198448 41.25161366 6.06620498 48.54917893 -1.9375 53.9375 C-11.06615427 59.01870871 -20.61882415 59.13782223 -30.5625 56.4375 C-39.15915017 53.55169871 -45.63685016 48.96393281 -50.0703125 40.953125 C-53.9589606 32.78369622 -54.51500209 23.37724045 -51.5 14.8125 C-47.85717727 6.81888546 -41.97687591 0.62585269 -34 -3 C-22.33922946 -6.82183149 -10.63454721 -6.36473653 0 0 Z M-32 2 C-36.036191 6.67348432 -36.40006852 9.60027408 -38 16 C-27.11 16 -16.22 16 -5 16 C-6.09517789 7.19830439 -6.09517789 7.19830439 -11.0625 0.75 C-18.06665151 -3.42268601 -25.55190308 -2.94055574 -32 2 Z " fill="#022E83" transform="translate(343,26)"/>
<path d="M0 0 C0.01030746 0.93072327 0.02061493 1.86144653 0.03123474 2.82037354 C0.12897573 11.59001398 0.23171051 20.35958359 0.33933926 29.12910843 C0.39451204 33.63764271 0.44792301 38.14618354 0.49731445 42.65478516 C0.54504126 47.00552729 0.59738706 51.35619153 0.65294075 55.70684052 C0.67332663 57.36700248 0.69204588 59.02718576 0.70907402 60.68738556 C0.73320153 63.01204638 0.76324451 65.3365609 0.79467773 67.66113281 C0.80331093 68.69151924 0.80331093 68.69151924 0.81211853 69.74272156 C0.86171168 72.96773068 1.02424423 75.91286241 2 79 C3.32 79.33 4.64 79.66 6 80 C6 80.99 6 81.98 6 83 C-2.58 83 -11.16 83 -20 83 C-20 82.01 -20 81.02 -20 80 C-19.38125 79.7525 -18.7625 79.505 -18.125 79.25 C-15.51420515 77.71423833 -15.06944663 76.81332872 -14 74 C-13.7038304 70.98209541 -13.7038304 70.98209541 -13.75708008 67.61083984 C-13.75400345 66.31624847 -13.75092682 65.0216571 -13.74775696 63.68783569 C-13.75465388 62.27886781 -13.76192079 60.86990171 -13.76953125 59.4609375 C-13.77072377 58.01413006 -13.77117606 56.56732183 -13.7709198 55.12051392 C-13.77248209 52.0926629 -13.78075375 49.06493055 -13.79418945 46.03710938 C-13.81120932 42.15199288 -13.81500278 38.26700633 -13.81424427 34.38185692 C-13.81451584 31.39650223 -13.81999447 28.41117606 -13.82724571 25.42583084 C-13.8304317 23.99286744 -13.83239963 22.5599008 -13.83313942 21.12693405 C-13.83530197 19.12806794 -13.84483766 17.12921387 -13.85473633 15.13037109 C-13.85854813 13.99215912 -13.86235992 12.85394714 -13.86628723 11.6812439 C-13.81846579 9.02797752 -13.81846579 9.02797752 -15 7 C-17.01669827 5.86649466 -17.01669827 5.86649466 -19 5 C-19 4.34 -19 3.68 -19 3 C-16.77228658 2.49356447 -14.54275924 1.9951038 -12.3125 1.5 C-10.45044922 1.08234375 -10.45044922 1.08234375 -8.55078125 0.65625 C-5.55558355 0.10268211 -3.01928834 -0.05436078 0 0 Z " fill="#012F85" transform="translate(423,0)"/>
<path d="M0 0 C0.01030746 0.94547195 0.02061493 1.89094391 0.03123474 2.86506653 C0.12891514 11.76746372 0.23164417 20.66979019 0.33933926 29.57207203 C0.3945458 34.14901633 0.44796222 38.72596705 0.49731445 43.30297852 C0.5449914 47.71855456 0.5973355 52.13405268 0.65294075 56.54953575 C0.67334919 58.23564404 0.69206478 59.92177369 0.70907402 61.60791969 C0.73315145 63.96631221 0.76320145 66.3245576 0.79467773 68.68286133 C0.80331093 69.73266678 0.80331093 69.73266678 0.81211853 70.80368042 C0.85779654 73.80693883 1.04208292 76.12624875 2 79 C4.50447516 80.21869929 4.50447516 80.21869929 7 81 C6.67 81.66 6.34 82.32 6 83 C-2.58 83 -11.16 83 -20 83 C-20 82.01 -20 81.02 -20 80 C-18.34467377 78.98133771 -16.67739862 77.98189187 -15 77 C-13.89455483 73.6836645 -13.87303895 71.21747216 -13.87060547 67.72436523 C-13.86587723 65.78236488 -13.86587723 65.78236488 -13.86105347 63.8011322 C-13.86284317 62.38695237 -13.8648941 60.97277285 -13.8671875 59.55859375 C-13.86651395 58.11035648 -13.8655435 56.66211933 -13.86428833 55.21388245 C-13.86281423 52.18009361 -13.86495699 49.14633424 -13.86962891 46.11254883 C-13.87533112 42.21956512 -13.87204227 38.32665028 -13.86605644 34.43366909 C-13.86244741 31.44403054 -13.86359091 28.4544084 -13.86618423 25.46476936 C-13.86685229 24.0290126 -13.8660293 22.59325435 -13.86370468 21.15749931 C-13.86117206 19.15374657 -13.86571498 17.14998861 -13.87060547 15.14624023 C-13.87140106 14.00501205 -13.87219666 12.86378387 -13.87301636 11.68797302 C-13.8170131 9.02888341 -13.8170131 9.02888341 -15 7 C-17.01669827 5.86649466 -17.01669827 5.86649466 -19 5 C-19 4.34 -19 3.68 -19 3 C-16.77228658 2.49356447 -14.54275924 1.9951038 -12.3125 1.5 C-10.45044922 1.08234375 -10.45044922 1.08234375 -8.55078125 0.65625 C-5.55558355 0.10268211 -3.01928834 -0.05436078 0 0 Z " fill="#012E85" transform="translate(386,0)"/>
<path d="M0 0 C8 0 8 0 10.171875 1.57421875 C10.69265625 2.27160156 11.2134375 2.96898438 11.75 3.6875 C12.28109375 4.37199219 12.8121875 5.05648437 13.359375 5.76171875 C14.17148438 6.86966797 14.17148438 6.86966797 15 8 C16.32 9.65 17.64 11.3 19 13 C19.33 8.71 19.66 4.42 20 0 C22.97 0 25.94 0 29 0 C29 9.57 29 19.14 29 29 C20 29 20 29 17.96850586 27.62304688 C17.55479736 26.99462891 17.14108887 26.36621094 16.71484375 25.71875 C16.01391602 24.70361328 16.01391602 24.70361328 15.29882812 23.66796875 C14.84958984 22.95253906 14.40035156 22.23710938 13.9375 21.5 C13.45345703 20.78457031 12.96941406 20.06914063 12.47070312 19.33203125 C11.28624365 17.57293302 10.139241 15.78871484 9 14 C9.01160156 14.99902344 9.02320313 15.99804688 9.03515625 17.02734375 C9.04417969 18.31769531 9.05320313 19.60804687 9.0625 20.9375 C9.07410156 22.22527344 9.08570313 23.51304688 9.09765625 24.83984375 C9 28 9 28 8 29 C5.36 29 2.72 29 0 29 C0 19.43 0 9.86 0 0 Z " fill="#012E85" transform="translate(157,101)"/>
<path d="M0 0 C2.97 0 5.94 0 9 0 C9.33 6.93 9.66 13.86 10 21 C11.65 21 13.3 21 15 21 C16.14654482 18.70691037 16.19729117 17.20090344 16.31640625 14.6484375 C16.35830078 13.79765625 16.40019531 12.946875 16.44335938 12.0703125 C16.48267578 11.18085937 16.52199219 10.29140625 16.5625 9.375 C16.60568359 8.4778125 16.64886719 7.580625 16.69335938 6.65625 C16.79956715 4.43768761 16.90029959 2.21886435 17 0 C19.97 0 22.94 0 26 0 C26.08149592 3.02138567 26.14073421 6.04053905 26.1875 9.0625 C26.21263672 9.91005859 26.23777344 10.75761719 26.26367188 11.63085938 C26.3376388 18.01667045 25.76891739 23.0432567 21.21484375 27.90625 C16.50859404 30.23032393 11.08446864 29.70886128 6 29 C2.94745265 27.32821951 1.55180249 25.10360497 0 22 C-0.08426094 20.3325394 -0.10725143 18.66174813 -0.09765625 16.9921875 C-0.09443359 16.00605469 -0.09121094 15.01992187 -0.08789062 14.00390625 C-0.07951172 12.97136719 -0.07113281 11.93882813 -0.0625 10.875 C-0.05798828 9.83472656 -0.05347656 8.79445313 -0.04882812 7.72265625 C-0.03701952 5.14838038 -0.02055075 2.57421854 0 0 Z " fill="#012E84" transform="translate(49,101)"/>
<path d="M0 0 C6.15234375 -0.09765625 6.15234375 -0.09765625 8 0 C9.58403524 1.58403524 9.21974935 3.2771638 9.31640625 5.47265625 C9.37924805 6.82133789 9.37924805 6.82133789 9.44335938 8.19726562 C9.48267578 9.14279297 9.52199219 10.08832031 9.5625 11.0625 C9.60568359 12.01189453 9.64886719 12.96128906 9.69335938 13.93945312 C9.79979276 16.29281353 9.90181008 18.64628354 10 21 C11.66611905 21.042721 13.33382885 21.04063832 15 21 C16.58403524 19.41596476 16.21974935 17.7228362 16.31640625 15.52734375 C16.35830078 14.62822266 16.40019531 13.72910156 16.44335938 12.80273438 C16.48267578 11.85720703 16.52199219 10.91167969 16.5625 9.9375 C16.60568359 8.98810547 16.64886719 8.03871094 16.69335938 7.06054688 C16.79979276 4.70718647 16.90181008 2.35371646 17 0 C23.15234375 -0.09765625 23.15234375 -0.09765625 25 0 C27.12976722 2.12976722 26.23150478 6.68888421 26.25 9.625 C26.270625 10.42035156 26.29125 11.21570313 26.3125 12.03515625 C26.35322776 18.23595739 25.62590748 23.1959675 21.21484375 27.90625 C16.50859404 30.23032393 11.08446864 29.70886128 6 29 C2.94745265 27.32821951 1.55180249 25.10360497 0 22 C-0.08426094 20.3325394 -0.10725143 18.66174813 -0.09765625 16.9921875 C-0.09443359 16.00605469 -0.09121094 15.01992187 -0.08789062 14.00390625 C-0.07951172 12.97136719 -0.07113281 11.93882813 -0.0625 10.875 C-0.05798828 9.83472656 -0.05347656 8.79445313 -0.04882812 7.72265625 C-0.03701952 5.14838038 -0.02055075 2.57421854 0 0 Z " fill="#022E84" transform="translate(302,101)"/>
<path d="M0 0 C3.5578125 -0.0928125 3.5578125 -0.0928125 7.1875 -0.1875 C8.29387817 -0.22846802 8.29387817 -0.22846802 9.42260742 -0.27026367 C13.83987371 -0.32574048 16.48869766 0.32565614 20 3 C22.10101595 5.6740203 21.99846976 7.04284685 21.875 10.5 C20.91534623 14.33861507 19.83770599 15.40161861 17 18 C17.5053125 18.62648438 18.010625 19.25296875 18.53125 19.8984375 C19.1809375 20.71570313 19.830625 21.53296875 20.5 22.375 C21.47453125 23.59316406 21.47453125 23.59316406 22.46875 24.8359375 C24 27 24 27 24 29 C20.55019843 29.48230236 17.4263204 29.7114192 14 29 C11.64062109 26.63543564 10.2972254 24.05872094 9 21 C8.67 23.64 8.34 26.28 8 29 C5.36 29 2.72 29 0 29 C0 19.43 0 9.86 0 0 Z M8 7 C8 8.65 8 10.3 8 12 C9.65 11.67 11.3 11.34 13 11 C12.67 9.68 12.34 8.36 12 7 C10.68 7 9.36 7 8 7 Z " fill="#022E85" transform="translate(358,101)"/>
<path d="M0 0 C3.5578125 -0.0928125 3.5578125 -0.0928125 7.1875 -0.1875 C8.29387817 -0.22846802 8.29387817 -0.22846802 9.42260742 -0.27026367 C13.83235823 -0.32564609 16.51636886 0.28834671 20 3 C21.74327413 5.93187013 22.0143242 7.64905716 21.875 11.0625 C20.87420514 14.42231133 19.51936383 15.64758196 17 18 C17.5053125 18.62648438 18.010625 19.25296875 18.53125 19.8984375 C19.1809375 20.71570313 19.830625 21.53296875 20.5 22.375 C21.47453125 23.59316406 21.47453125 23.59316406 22.46875 24.8359375 C24 27 24 27 24 29 C20.55019843 29.48230236 17.4263204 29.7114192 14 29 C11.64062109 26.63543564 10.2972254 24.05872094 9 21 C8.67 23.64 8.34 26.28 8 29 C5.36 29 2.72 29 0 29 C0 19.43 0 9.86 0 0 Z M8 7 C8 8.65 8 10.3 8 12 C9.65 11.67 11.3 11.34 13 11 C12.67 9.68 12.34 8.36 12 7 C10.68 7 9.36 7 8 7 Z " fill="#012E86" transform="translate(105,101)"/>
<path d="M0 0 C5.61 0 11.22 0 17 0 C17 2.31 17 4.62 17 7 C16 8 16 8 12.4375 8.0625 C11.303125 8.041875 10.16875 8.02125 9 8 C9 8.99 9 9.98 9 11 C11.64 11 14.28 11 17 11 C17 13.31 17 15.62 17 18 C14.36 18 11.72 18 9 18 C9 19.32 9 20.64 9 22 C11.64 22 14.28 22 17 22 C17 24.31 17 26.62 17 29 C11.39 29 5.78 29 0 29 C0 19.43 0 9.86 0 0 Z " fill="#012E85" transform="translate(410,101)"/>
<path d="M0 0 C5.61 0 11.22 0 17 0 C17 2.64 17 5.28 17 8 C14.36 8 11.72 8 9 8 C9 8.99 9 9.98 9 11 C11.64 11 14.28 11 17 11 C17 13.31 17 15.62 17 18 C14.36 18 11.72 18 9 18 C9 21.63 9 25.26 9 29 C6.03 29 3.06 29 0 29 C0 19.43 0 9.86 0 0 Z " fill="#022E85" transform="translate(2,101)"/>
<path d="M0 0 C6.93 0 13.86 0 21 0 C21 2.31 21 4.62 21 7 C20.67 7.33 20.34 7.66 20 8 C18.35 8 16.7 8 15 8 C15 14.93 15 21.86 15 29 C12.03 29 9.06 29 6 29 C6 22.07 6 15.14 6 8 C4.35 8 2.7 8 1 8 C0.67 7.67 0.34 7.34 0 7 C0 4.69 0 2.38 0 0 Z " fill="#012E86" transform="translate(253,101)"/>
<path d="M0 0 C2.97 0 5.94 0 9 0 C9 9.57 9 19.14 9 29 C6.03 29 3.06 29 0 29 C0 19.43 0 9.86 0 0 Z " fill="#012E83" transform="translate(216,101)"/>
<path d="M0 0 C-0.33 0.66 -0.66 1.32 -1 2 C-7.93 1.67 -14.86 1.34 -22 1 C-22 0.67 -22 0.34 -22 0 C-18.89635771 -0.19696449 -15.79207808 -0.38093262 -12.6875 -0.5625 C-11.36588867 -0.64661133 -11.36588867 -0.64661133 -10.01757812 -0.73242188 C-8.74624023 -0.80493164 -8.74624023 -0.80493164 -7.44921875 -0.87890625 C-6.27879028 -0.94960327 -6.27879028 -0.94960327 -5.0847168 -1.02172852 C-3 -1 -3 -1 0 0 Z " fill="#0A2D74" transform="translate(393,81)"/>
</svg>
