<?xml version="1.0" encoding="UTF-8"?>
<svg version="1.1" xmlns="http://www.w3.org/2000/svg" width="300" height="150">
<path d="M0 0 C6.86983879 0.44387626 11.95905857 1.94971534 18.125 4.9375 C23.36823601 7.42558907 28.3641375 9.57234783 34 11 C34 11.66 34 12.32 34 13 C37.6678852 14.96189209 40.87248551 16.39301257 45 17 C45 17.66 45 18.32 45 19 C45.928125 19.28875 46.85625 19.5775 47.8125 19.875 C51 21 51 21 54 23 C54 23.66 54 24.32 54 25 C54.5671875 25.27070313 55.134375 25.54140625 55.71875 25.8203125 C61.34218314 28.72832073 66.75873588 32.26935925 71 37 C71.5775 37.53625 72.155 38.0725 72.75 38.625 C74 40 74 40 74 42 C74.66 42 75.32 42 76 42 C76.3627685 49.25536993 76.3627685 49.25536993 74.8125 52.4375 C72.58633099 54.35661121 70.88949684 54.68762196 68 55 C68 55.66 68 56.32 68 57 C67.34 57 66.68 57 66 57 C66 57.66 66 58.32 66 59 C64.38542921 60.43581474 62.70780925 61.80144783 61 63.125 C60.071875 63.84945312 59.14375 64.57390625 58.1875 65.3203125 C57.465625 65.87460938 56.74375 66.42890625 56 67 C56.38671875 67.7528125 56.7734375 68.505625 57.171875 69.28125 C60.63433541 76.34329797 63.01419854 82.89250961 64.44238281 90.6171875 C65.44090413 95.41971413 66.99036253 97.27344652 71 100 C73.33893872 104.67787745 72.49551149 110.92100718 72 116 C69.02859243 120.95234595 64.39285963 122.24144042 59.109375 124.0078125 C58.41328125 124.33523437 57.7171875 124.66265625 57 125 C56.67 125.99 56.34 126.98 56 128 C54.6846659 128.70151152 53.34882408 129.36525925 52 130 C51.60039062 130.46148437 51.20078125 130.92296875 50.7890625 131.3984375 C48.22262671 133.69590185 45.48878091 134.4921217 42.25 135.625 C41.05890625 136.05039063 39.8678125 136.47578125 38.640625 136.9140625 C25.34987654 140.8784703 8.4406155 140.59713528 -4.42578125 135.21484375 C-11.01287738 132.35539975 -11.01287738 132.35539975 -18 131 C-22.71226109 133.15760957 -25.56894828 136.2013356 -29 140 C-29.66 140 -30.32 140 -31 140 C-31.33 140.99 -31.66 141.98 -32 143 C-34.54141387 145.69867958 -35.92005934 145.99362176 -39.671875 146.29296875 C-41.03156035 146.27316751 -42.3910934 146.23759202 -43.75 146.1875 C-44.44738281 146.17396484 -45.14476563 146.16042969 -45.86328125 146.14648438 C-47.57585541 146.1112945 -49.28802941 146.05749155 -51 146 C-51.76397365 136.57765837 -49.8713719 129.57232349 -46 121 C-46.78761719 120.9071875 -47.57523438 120.814375 -48.38671875 120.71875 C-49.24910156 120.4815625 -50.11148438 120.244375 -51 120 C-53.96736617 114.2699136 -54.39830105 109.37281679 -54 103 C-54.66 103 -55.32 103 -56 103 C-56.66 101.35 -57.32 99.7 -58 98 C-58.66 98 -59.32 98 -60 98 C-67.53723614 88.52624475 -72.36128156 77.0757706 -73 65 C-73.12375 64.00355469 -73.2475 63.00710937 -73.375 61.98046875 C-74.44909856 52.54854073 -73.93228338 43.67189168 -68.3125 35.6875 C-67.24369565 34.4274635 -66.13821205 33.1977095 -65 32 C-64.4121875 31.37222656 -63.824375 30.74445312 -63.21875 30.09765625 C-53.30017293 20.48395348 -38.27855374 18.46647849 -24.921875 18.6640625 C-19.09946088 19.33348444 -13.55263255 21.18424863 -8 23 C-7.86271484 22.05060547 -7.86271484 22.05060547 -7.72265625 21.08203125 C-6.71365713 16.77878637 -5.07163006 12.78738669 -3.4375 8.6875 C-3.10814453 7.85154297 -2.77878906 7.01558594 -2.43945312 6.15429688 C-1.63001123 4.10136454 -0.81676543 2.05002714 0 0 Z " fill="#FAB72E" transform="translate(159,4)"/>
<path d="M0 0 C3.40312738 1.05875074 6.01353231 2.00902154 9 4 C9 4.66 9 5.32 9 6 C9.5671875 6.27070313 10.134375 6.54140625 10.71875 6.8203125 C16.34218314 9.72832073 21.75873588 13.26935925 26 18 C26.5775 18.53625 27.155 19.0725 27.75 19.625 C29 21 29 21 29 23 C29.66 23 30.32 23 31 23 C31.3627685 30.25536993 31.3627685 30.25536993 29.8125 33.4375 C27.58633099 35.35661121 25.88949684 35.68762196 23 36 C23 36.66 23 37.32 23 38 C22.34 38 21.68 38 21 38 C21 38.66 21 39.32 21 40 C19.38542921 41.43581474 17.70780925 42.80144783 16 44.125 C14.6078125 45.21167969 14.6078125 45.21167969 13.1875 46.3203125 C12.465625 46.87460938 11.74375 47.42890625 11 48 C11.38671875 48.7528125 11.7734375 49.505625 12.171875 50.28125 C15.63433541 57.34329797 18.01419854 63.89250961 19.44238281 71.6171875 C20.44090413 76.41971413 21.99036253 78.27344652 26 81 C28.33893872 85.67787745 27.49551149 91.92100718 27 97 C24.02859243 101.95234595 19.39285963 103.24144042 14.109375 105.0078125 C13.41328125 105.33523437 12.7171875 105.66265625 12 106 C11.67 106.99 11.34 107.98 11 109 C9.6846659 109.70151152 8.34882408 110.36525925 7 111 C6.60039062 111.46148437 6.20078125 111.92296875 5.7890625 112.3984375 C3.22262671 114.69590185 0.48878091 115.4921217 -2.75 116.625 C-3.94109375 117.05039063 -5.1321875 117.47578125 -6.359375 117.9140625 C-19.65012346 121.8784703 -36.5593845 121.59713528 -49.42578125 116.21484375 C-56.01287738 113.35539975 -56.01287738 113.35539975 -63 112 C-67.71226109 114.15760957 -70.56894828 117.2013356 -74 121 C-74.66 121 -75.32 121 -76 121 C-76.495 122.485 -76.495 122.485 -77 124 C-79.54141387 126.69867958 -80.92005934 126.99362176 -84.671875 127.29296875 C-86.03156035 127.27316751 -87.3910934 127.23759202 -88.75 127.1875 C-89.44738281 127.17396484 -90.14476563 127.16042969 -90.86328125 127.14648438 C-92.57585541 127.1112945 -94.28802941 127.05749155 -96 127 C-96.76397365 117.57765837 -94.8713719 110.57232349 -91 102 C-91.78761719 101.9071875 -92.57523438 101.814375 -93.38671875 101.71875 C-94.24910156 101.4815625 -95.11148438 101.244375 -96 101 C-98.96736617 95.2699136 -99.39830105 90.37281679 -99 84 C-99.66 84 -100.32 84 -101 84 C-101.66 82.35 -102.32 80.7 -103 79 C-103.66 79 -104.32 79 -105 79 C-111.58089215 70.72829928 -117.11891764 59.64404336 -118 49 C-117.33992238 47.3307128 -116.67267603 45.66425033 -116 44 C-115.96106407 41.38573071 -116.00475001 38.85449846 -116.125 36.25 C-116.32551088 26.24484693 -113.72083081 20.0585518 -106.91015625 12.78515625 C-100.08995784 6.41126939 -91.39959064 2.68278469 -82 3 C-85.21304264 6.21304264 -89.63068748 7.47566896 -93.79492188 9.16992188 C-102.53003017 12.84033848 -102.53003017 12.84033848 -108.375 19.875 C-109.04821343 23.24106716 -109.59099882 26.59165684 -110 30 C-108.58318366 29.68817931 -107.16655349 29.37551263 -105.75 29.0625 C-104.96109375 28.88847656 -104.1721875 28.71445312 -103.359375 28.53515625 C-101.23121297 28.052444 -99.11467158 27.53836822 -97 27 C-97 26.34 -97 25.68 -97 25 C-97.99 24.67 -98.98 24.34 -100 24 C-98.73760288 23.13341385 -97.46472499 22.28207941 -96.1875 21.4375 C-95.47980469 20.96183594 -94.77210937 20.48617187 -94.04296875 19.99609375 C-92 19 -92 19 -89 20 C-89.85146213 22.7385679 -90.72955994 25.46331295 -91.625 28.1875 C-91.86089844 28.95642578 -92.09679687 29.72535156 -92.33984375 30.51757812 C-94.21284869 36.11258006 -96.32910909 38.45833546 -101 42 C-101.96298724 45.17562802 -101.96298724 45.17562802 -102 48 C-101.34 48.33 -100.68 48.66 -100 49 C-100.62320121 55.43974581 -101.64008262 61.67572401 -103 68 C-100.98843789 67.54191536 -100.98843789 67.54191536 -99 66 C-98.05445611 63.40267265 -97.35169944 61.04812376 -96.75 58.375 C-96.57726562 57.66859375 -96.40453125 56.9621875 -96.2265625 56.234375 C-95.80300757 54.4930936 -95.39954503 52.7469469 -95 51 C-87.70392482 50.64648896 -81.39996734 51.57463858 -74.375 53.5 C-73.46621094 53.73847656 -72.55742187 53.97695312 -71.62109375 54.22265625 C-69.4109295 54.80427842 -67.20434584 55.3967729 -65 56 C-66.14887113 59.61221644 -67.38332309 63.00775797 -69.125 66.375 C-69.47820312 67.06335938 -69.83140625 67.75171875 -70.1953125 68.4609375 C-70.46085937 68.96882813 -70.72640625 69.47671875 -71 70 C-71.33 68.68 -71.66 67.36 -72 66 C-72.99 66 -73.98 66 -75 66 C-75.144375 66.639375 -75.28875 67.27875 -75.4375 67.9375 C-76 70 -76 70 -77 71 C-79.5 71.125 -79.5 71.125 -82 71 C-83 70 -83 70 -83.1328125 67.75 C-83.13023438 66.8425 -83.12765625 65.935 -83.125 65 C-83.12886719 63.63875 -83.12886719 63.63875 -83.1328125 62.25 C-83 60 -83 60 -82 59 C-80.33382885 58.95936168 -78.66611905 58.957279 -77 59 C-76.505 60.98 -76.505 60.98 -76 63 C-75.01 63 -74.02 63 -73 63 C-73.34786708 61.02463255 -73.34786708 61.02463255 -74 59 C-76.70183055 57.64908472 -79.11808206 57.66141942 -82.125 57.4375 C-83.22070312 57.35371094 -84.31640625 57.26992187 -85.4453125 57.18359375 C-86.70988281 57.09271484 -86.70988281 57.09271484 -88 57 C-88 57.66 -88 58.32 -88 59 C-87.34 59 -86.68 59 -86 59 C-86 62.96 -86 66.92 -86 71 C-86.66 71 -87.32 71 -88 71 C-88 71.66 -88 72.32 -88 73 C-86.98679687 72.91621094 -85.97359375 72.83242187 -84.9296875 72.74609375 C-83.57815379 72.64285159 -82.22658958 72.5400082 -80.875 72.4375 C-79.87726563 72.35338867 -79.87726563 72.35338867 -78.859375 72.26757812 C-74.7271959 71.96374143 -71.05304259 72.14772469 -67 73 C-67.185625 72.195625 -67.37125 71.39125 -67.5625 70.5625 C-67.706875 69.716875 -67.85125 68.87125 -68 68 C-67 67 -67 67 -63.9375 66.9375 C-62.968125 66.958125 -61.99875 66.97875 -61 67 C-61.33 68.98 -61.66 70.96 -62 73 C-57.38 73 -52.76 73 -48 73 C-48 72.34 -48 71.68 -48 71 C-48.66 71 -49.32 71 -50 71 C-50 69.35 -50 67.7 -50 66 C-49.01 66 -48.02 66 -47 66 C-45.9375 68.375 -45.9375 68.375 -45 71 C-45.33 71.66 -45.66 72.32 -46 73 C-42.74845288 72.97715855 -39.50040486 72.89980426 -36.25 72.8125 C-35.32960938 72.80669922 -34.40921875 72.80089844 -33.4609375 72.79492188 C-27.81674105 72.69464137 -27.81674105 72.69464137 -23.359375 69.44921875 C-22.68648437 68.23685547 -22.68648437 68.23685547 -22 67 C-22.33 68.98 -22.66 70.96 -23 73 C-20.69 73 -18.38 73 -16 73 C-16.66 72.01 -17.32 71.02 -18 70 C-18 68.68 -18 67.36 -18 66 C-15.44899172 67.05558963 -14.16409783 67.76455529 -12.5625 70.0625 C-10.56041983 72.54507941 -9.09771991 72.66511136 -6 73 C-6 72.34 -6 71.68 -6 71 C-6.9590625 70.62875 -6.9590625 70.62875 -7.9375 70.25 C-10 69 -10 69 -10.75 66.875 C-10.8325 66.25625 -10.915 65.6375 -11 65 C-10.01 64.67 -9.02 64.34 -8 64 C-8 62.68 -8 61.36 -8 60 C-5 61 -5 61 -3 64 C-2.66666667 70.33333333 -2.66666667 70.33333333 -4 73 C-1.69 73 0.62 73 3 73 C3 72.34 3 71.68 3 71 C2.34 71 1.68 71 1 71 C0.65259682 68.08181329 0.49890506 65.86234943 2.0078125 63.265625 C3.3125 61.625 3.3125 61.625 6 59 C6.99 59 7.98 59 9 59 C13.13785675 70.72071981 13.13785675 70.72071981 13.4375 75 C13.70109697 78.20666381 13.70109697 78.20666381 16.5 80 C19 82 19 82 19.8125 85.625 C19.91194424 87.41499624 20 89.20724355 20 91 C20.16374356 89.6081797 20.27920565 88.21064132 20.375 86.8125 C20.44460937 86.03519531 20.51421875 85.25789063 20.5859375 84.45703125 C19.81087305 81.20692764 17.97781304 80.35797449 15.41210938 78.40454102 C12.90635321 75.91221473 12.94289003 72.95908 12.5625 69.5625 C11.52892619 62.11179595 9.13859095 56.44976417 5.5234375 49.890625 C4.24543954 47.4657058 3.58441247 45.62668377 3 43 C10 37 17 31 24 25 C22.18850076 15.89706686 9.54174594 9.00937449 2.23828125 3.8125 C1.49964844 3.214375 0.76101562 2.61625 0 2 C0 1.34 0 0.68 0 0 Z " fill="#FDEEEE" transform="translate(204,23)"/>
<path d="M0 0 C6.86983879 0.44387626 11.95905857 1.94971534 18.125 4.9375 C23.36823601 7.42558907 28.3641375 9.57234783 34 11 C34 11.66 34 12.32 34 13 C37.6678852 14.96189209 40.87248551 16.39301257 45 17 C45.06380859 17.84498047 45.06380859 17.84498047 45.12890625 18.70703125 C46.42089953 22.10792837 49.07350873 23.64398172 51.9375 25.6875 C53.12077877 26.56593518 54.30173986 27.44750018 55.48046875 28.33203125 C56.36677979 28.9964624 56.36677979 28.9964624 57.27099609 29.67431641 C59.84723002 31.64959884 62.30796325 33.73689257 64.75 35.875 C65.54921875 36.57367188 66.3484375 37.27234375 67.171875 37.9921875 C69.05788523 40.06357481 69.63145984 41.26051816 70 44 C63.2325439 50.33232356 56.46187668 56.47896498 49 62 C49.69212444 65.85344958 51.49735606 68.84330425 53.375 72.25 C56.91699796 78.89380286 58.17017581 85.05935742 59.00390625 92.50390625 C60.02630212 96.09231527 60.30048675 96.5626995 63.0546875 98.671875 C66 101 66 101 66.69140625 103.38671875 C66.62759766 104.52560547 66.62759766 104.52560547 66.5625 105.6875 C66.54316406 106.45449219 66.52382812 107.22148438 66.50390625 108.01171875 C66 110 66 110 63 112 C63.19529297 111.11248047 63.19529297 111.11248047 63.39453125 110.20703125 C63.82691773 107.72990123 64.1137558 105.51526708 64 103 C61.79086457 99.95524698 61.79086457 99.95524698 59 98 C57.07719055 96.07719055 57.03303905 92.81924821 56.5 90.25 C56.2421875 89.01765625 55.984375 87.7853125 55.71875 86.515625 C55.13870137 83.67843062 54.56375726 80.84046929 54 78 C50.62118566 79.39813007 48.84982122 80.82887791 47 84 C46.27954633 87.15118325 46.27954633 87.15118325 46 90 C46.66 90 47.32 90 48 90 C48 90.66 48 91.32 48 92 C45.69 92 43.38 92 41 92 C41.04640625 91.39671875 41.0928125 90.7934375 41.140625 90.171875 C41.47810312 84.91586667 41.47810312 84.91586667 39 80.4375 C38.34 79.963125 37.68 79.48875 37 79 C37 80.32 37 81.64 37 83 C36.01 83.495 36.01 83.495 35 84 C35.27617533 85.94074861 35.27617533 85.94074861 36 88 C37.485 88.99 37.485 88.99 39 90 C39 90.66 39 91.32 39 92 C36.8125 92.375 36.8125 92.375 34 92 C31.3125 89.0625 31.3125 89.0625 29 86 C28.34 85.67 27.68 85.34 27 85 C27.99 88.465 27.99 88.465 29 92 C26.69 92 24.38 92 22 92 C22 90.68 22 89.36 22 88 C21.60127686 88.65194336 21.20255371 89.30388672 20.79174805 89.97558594 C19 92 19 92 16.82348633 92.45410156 C16.00130615 92.4331543 15.17912598 92.41220703 14.33203125 92.390625 C12.99301758 92.37128906 12.99301758 92.37128906 11.62695312 92.3515625 C10.69818359 92.31804687 9.76941406 92.28453125 8.8125 92.25 C7.87212891 92.23195313 6.93175781 92.21390625 5.96289062 92.1953125 C3.64090111 92.1481655 1.3209631 92.08238231 -1 92 C-1.12375 91.21625 -1.2475 90.4325 -1.375 89.625 C-1.79117993 86.85942178 -1.79117993 86.85942178 -4 85 C-4.33 86.65 -4.66 88.3 -5 90 C-4.34 90 -3.68 90 -3 90 C-3 90.66 -3 91.32 -3 92 C-7.62 92 -12.24 92 -17 92 C-16.67 90.02 -16.34 88.04 -16 86 C-18.97 86.495 -18.97 86.495 -22 87 C-22 88.65 -22 90.3 -22 92 C-28.93 92 -35.86 92 -43 92 C-43 91.34 -43 90.68 -43 90 C-42.34 90 -41.68 90 -41 90 C-41 86.04 -41 82.08 -41 78 C-41.66 78 -42.32 78 -43 78 C-43 77.34 -43 76.68 -43 76 C-41.06280622 75.94593878 -39.12518079 75.90717975 -37.1875 75.875 C-36.10855469 75.85179688 -35.02960938 75.82859375 -33.91796875 75.8046875 C-31 76 -31 76 -28 78 C-28 79.32 -28 80.64 -28 82 C-28.99 82 -29.98 82 -31 82 C-31.33 81.01 -31.66 80.02 -32 79 C-33.65 79 -35.3 79 -37 79 C-37 82.3 -37 85.6 -37 89 C-35.35 89 -33.7 89 -32 89 C-31.34 87.68 -30.68 86.36 -30 85 C-29.01 85 -28.02 85 -27 85 C-26.67 85.99 -26.34 86.98 -26 88 C-24.02 83.71 -22.04 79.42 -20 75 C-22.000625 74.71125 -24.00125 74.4225 -26.0625 74.125 C-29.71786154 73.56840607 -33.13109583 72.96222662 -36.6875 71.9375 C-41.08536914 70.69282005 -45.45465727 70.34753123 -50 70 C-50.16435547 71.21236328 -50.16435547 71.21236328 -50.33203125 72.44921875 C-50.56986328 74.05216797 -50.56986328 74.05216797 -50.8125 75.6875 C-50.96332031 76.74324219 -51.11414063 77.79898438 -51.26953125 78.88671875 C-52.0353537 82.1506786 -52.96300255 84.34154569 -55 87 C-55.99 87 -56.98 87 -58 87 C-58.45510807 80.32508169 -56.7672426 74.40625443 -55 68 C-56.485 67.505 -56.485 67.505 -58 67 C-57.875 64.3125 -57.875 64.3125 -57 61 C-56.0615625 60.2884375 -55.123125 59.576875 -54.15625 58.84375 C-50.1741667 55.69715599 -49.07631629 51.91815663 -47.625 47.1875 C-47.36589844 46.39923828 -47.10679688 45.61097656 -46.83984375 44.79882812 C-46.20908741 42.87151709 -45.60207541 40.9364624 -45 39 C-47.9719385 40.12451727 -50.33440687 41.22293791 -53 43 C-52.67 43.99 -52.34 44.98 -52 46 C-56.62197306 48.21854707 -59.76824163 49.38281159 -65 49 C-65.31679744 43.82564188 -65.23940435 39.21309814 -62 35 C-55.1870194 29.43008954 -47.16341431 26.09155481 -39 23 C-49.98240821 24.56557734 -57.89133301 28.04845754 -65.30859375 36.42578125 C-69.97385132 43.52602314 -70.40983567 49.73367373 -70.1875 58 C-70.17396484 58.96550781 -70.16042969 59.93101563 -70.14648438 60.92578125 C-70.11145458 63.28445425 -70.06234084 65.64191771 -70 68 C-70.33 67.01 -70.66 66.02 -71 65 C-71.66 65 -72.32 65 -73 65 C-74.39416069 54.5857876 -74.59556211 44.61425491 -68.3125 35.6875 C-67.24369565 34.4274635 -66.13821205 33.1977095 -65 32 C-64.4121875 31.37222656 -63.824375 30.74445312 -63.21875 30.09765625 C-53.30017293 20.48395348 -38.27855374 18.46647849 -24.921875 18.6640625 C-19.09946088 19.33348444 -13.55263255 21.18424863 -8 23 C-7.86271484 22.05060547 -7.86271484 22.05060547 -7.72265625 21.08203125 C-6.71365713 16.77878637 -5.07163006 12.78738669 -3.4375 8.6875 C-3.10814453 7.85154297 -2.77878906 7.01558594 -2.43945312 6.15429688 C-1.63001123 4.10136454 -0.81676543 2.05002714 0 0 Z M2 2 C-1.23369254 9.59387634 -4.23683071 17.22219013 -7 25 C-12.94 24.01 -12.94 24.01 -19 23 C-18.34 24.32 -17.68 25.64 -17 27 C-16.06902218 33.31104962 -16.38635406 38.91999577 -20.20703125 44.1640625 C-27.13998167 51.26316206 -37.04598292 55.11375729 -46 59 C-46 59.66 -46 60.32 -46 61 C-44.24236328 61.18175781 -44.24236328 61.18175781 -42.44921875 61.3671875 C-33.88847865 62.27301842 -25.44937093 63.31012581 -17 65 C-16.01 68.63 -15.02 72.26 -14 76 C-14.99 76 -15.98 76 -17 76 C-15.50829734 80.9723422 -13.39542583 85.41845739 -11 90 C-10.34 90 -9.68 90 -9 90 C-9 86.04 -9 82.08 -9 78 C-9.66 78 -10.32 78 -11 78 C-11 77.34 -11 76.68 -11 76 C-8.36 76 -5.72 76 -3 76 C-3 76.66 -3 77.32 -3 78 C-3.66 78 -4.32 78 -5 78 C-5 79.32 -5 80.64 -5 82 C-3.02 81.01 -3.02 81.01 -1 80 C-1.33 78.68 -1.66 77.36 -2 76 C4.93 76 11.86 76 19 76 C19 76.66 19 77.32 19 78 C19.66 78 20.32 78 21 78 C21 77.34 21 76.68 21 76 C21.99 76.08378906 22.98 76.16757813 24 76.25390625 C30.78797045 76.79072537 37.25663655 77.23857696 44 76 C43.814375 76.61875 43.62875 77.2375 43.4375 77.875 C42.76313824 80.04160178 42.76313824 80.04160178 44 82 C45.32 81.34 46.64 80.68 48 80 C47.67 78.68 47.34 77.36 47 76 C48.65 76 50.3 76 52 76 C51.5939245 72.54835821 50.89580391 70.84983505 48.875 67.9375 C47 65 47 65 47.18261719 63.00976562 C48.1575958 60.61250638 49.23002587 59.56859945 51.203125 57.90625 C51.85410156 57.35066406 52.50507813 56.79507813 53.17578125 56.22265625 C53.86027344 55.65417969 54.54476562 55.08570313 55.25 54.5 C55.91902344 53.93152344 56.58804688 53.36304688 57.27734375 52.77734375 C60.80396445 49.79114822 64.37495934 46.86631122 68 44 C67.15056358 39.35715612 64.37342313 37.28184348 60.875 34.375 C60.24682373 33.84793457 59.61864746 33.32086914 58.97143555 32.77783203 C43.66198493 20.16021558 21.90233564 4.78575261 2 2 Z " fill="#F2F9F8" transform="translate(159,4)"/>
<path d="M0 0 C-3.21304264 3.21304264 -7.63068748 4.47566896 -11.79492188 6.16992188 C-20.53003017 9.84033848 -20.53003017 9.84033848 -26.375 16.875 C-27.04821343 20.24106716 -27.59099882 23.59165684 -28 27 C-26.58318366 26.68817931 -25.16655349 26.37551263 -23.75 26.0625 C-22.96109375 25.88847656 -22.1721875 25.71445312 -21.359375 25.53515625 C-19.23121297 25.052444 -17.11467158 24.53836822 -15 24 C-15 23.34 -15 22.68 -15 22 C-15.99 21.67 -16.98 21.34 -18 21 C-16.73760288 20.13341385 -15.46472499 19.28207941 -14.1875 18.4375 C-13.47980469 17.96183594 -12.77210937 17.48617187 -12.04296875 16.99609375 C-10 16 -10 16 -7 17 C-7.85146213 19.7385679 -8.72955994 22.46331295 -9.625 25.1875 C-9.86089844 25.95642578 -10.09679687 26.72535156 -10.33984375 27.51757812 C-12.21284869 33.11258006 -14.32910909 35.45833546 -19 39 C-19.96298724 42.17562802 -19.96298724 42.17562802 -20 45 C-19.34 45.33 -18.68 45.66 -18 46 C-18.62320121 52.43974581 -19.64008262 58.67572401 -21 65 C-18.98843789 64.54191536 -18.98843789 64.54191536 -17 63 C-16.05445611 60.40267265 -15.35169944 58.04812376 -14.75 55.375 C-14.57726562 54.66859375 -14.40453125 53.9621875 -14.2265625 53.234375 C-13.80300757 51.4930936 -13.39954503 49.7469469 -13 48 C-5.70392482 47.64648896 0.60003266 48.57463858 7.625 50.5 C8.53378906 50.73847656 9.44257813 50.97695312 10.37890625 51.22265625 C12.5890705 51.80427842 14.79565416 52.3967729 17 53 C15.85112887 56.61221644 14.61667691 60.00775797 12.875 63.375 C12.52179688 64.06335938 12.16859375 64.75171875 11.8046875 65.4609375 C11.53914063 65.96882813 11.27359375 66.47671875 11 67 C10.67 65.68 10.34 64.36 10 63 C9.01 63 8.02 63 7 63 C6.855625 63.639375 6.71125 64.27875 6.5625 64.9375 C6 67 6 67 5 68 C2.5 68.125 2.5 68.125 0 68 C-1 67 -1 67 -1.1328125 64.75 C-1.13023438 63.8425 -1.12765625 62.935 -1.125 62 C-1.12886719 60.63875 -1.12886719 60.63875 -1.1328125 59.25 C-1 57 -1 57 0 56 C1.66617115 55.95936168 3.33388095 55.957279 5 56 C5.495 57.98 5.495 57.98 6 60 C6.99 60 7.98 60 9 60 C8.65213292 58.02463255 8.65213292 58.02463255 8 56 C5.29816945 54.64908472 2.88191794 54.66141942 -0.125 54.4375 C-1.22070312 54.35371094 -2.31640625 54.26992187 -3.4453125 54.18359375 C-4.70988281 54.09271484 -4.70988281 54.09271484 -6 54 C-6 54.66 -6 55.32 -6 56 C-5.34 56 -4.68 56 -4 56 C-4 59.96 -4 63.92 -4 68 C-4.66 68 -5.32 68 -6 68 C-6 68.66 -6 69.32 -6 70 C-4.98679687 69.91621094 -3.97359375 69.83242187 -2.9296875 69.74609375 C-1.57815379 69.64285159 -0.22658958 69.5400082 1.125 69.4375 C2.12273437 69.35338867 2.12273437 69.35338867 3.140625 69.26757812 C7.2728041 68.96374143 10.94695741 69.14772469 15 70 C14.814375 69.195625 14.62875 68.39125 14.4375 67.5625 C14.293125 66.716875 14.14875 65.87125 14 65 C15 64 15 64 18.0625 63.9375 C19.031875 63.958125 20.00125 63.97875 21 64 C20.67 65.98 20.34 67.96 20 70 C24.62 70 29.24 70 34 70 C34 69.34 34 68.68 34 68 C33.34 68 32.68 68 32 68 C32 66.35 32 64.7 32 63 C32.99 63 33.98 63 35 63 C36.0625 65.375 36.0625 65.375 37 68 C36.67 68.66 36.34 69.32 36 70 C39.25154712 69.97715855 42.49959514 69.89980426 45.75 69.8125 C46.67039062 69.80669922 47.59078125 69.80089844 48.5390625 69.79492188 C54.18325895 69.69464137 54.18325895 69.69464137 58.640625 66.44921875 C59.31351563 65.23685547 59.31351563 65.23685547 60 64 C59.67 65.98 59.34 67.96 59 70 C61.31 70 63.62 70 66 70 C65.34 69.01 64.68 68.02 64 67 C64 65.68 64 64.36 64 63 C66.55100828 64.05558963 67.83590217 64.76455529 69.4375 67.0625 C71.43958017 69.54507941 72.90228009 69.66511136 76 70 C76 69.34 76 68.68 76 68 C75.0409375 67.62875 75.0409375 67.62875 74.0625 67.25 C72 66 72 66 71.25 63.875 C71.1675 63.25625 71.085 62.6375 71 62 C71.99 61.67 72.98 61.34 74 61 C74 59.68 74 58.36 74 57 C77 58 77 58 79 61 C79.33333333 67.33333333 79.33333333 67.33333333 78 70 C80.31 70 82.62 70 85 70 C85 69.34 85 68.68 85 68 C84.34 68 83.68 68 83 68 C82.65259682 65.08181329 82.49890506 62.86234943 84.0078125 60.265625 C85.3125 58.625 85.3125 58.625 88 56 C88.99 56 89.98 56 91 56 C91.68018415 57.84925066 92.34350413 59.70470786 93 61.5625 C93.37125 62.59503906 93.7425 63.62757812 94.125 64.69140625 C95 68 95 68 95 75 C60.68 75 26.36 75 -9 75 C-9.66 76.32 -10.32 77.64 -11 79 C-11.33 79.66 -11.66 80.32 -12 81 C-12.33340471 83.95804573 -12.33340471 83.95804573 -12 87 C-10.5833253 88.7511573 -10.5833253 88.7511573 -9 90 C-9 90.66 -9 91.32 -9 92 C-8.34 92.33 -7.68 92.66 -7 93 C-7 94.32 -7 95.64 -7 97 C-8.75 98.125 -8.75 98.125 -11 99 C-13.0625 98.31640625 -13.0625 98.31640625 -15 97 C-17.15297375 92.01363155 -17.22769049 86.35072662 -17 81 C-17.66 81 -18.32 81 -19 81 C-19.66 79.35 -20.32 77.7 -21 76 C-21.66 76 -22.32 76 -23 76 C-29.58089215 67.72829928 -35.11891764 56.64404336 -36 46 C-35.33992238 44.3307128 -34.67267603 42.66425033 -34 41 C-33.96106407 38.38573071 -34.00475001 35.85449846 -34.125 33.25 C-34.32551088 23.24484693 -31.72083081 17.0585518 -24.91015625 9.78515625 C-18.08995784 3.41126939 -9.39959064 -0.31721531 0 0 Z " fill="#0B907E" transform="translate(122,26)"/>
<path d="M0 0 C11.34714198 2.42937481 21.51505084 6.03638045 32 11 C32 11.66 32 12.32 32 13 C31.278125 13.4125 30.55625 13.825 29.8125 14.25 C23.1514595 18.39464742 20.9915013 23.71401964 19 31 C17.68 31 16.36 31 15 31 C15.41654853 28.08416032 15.83219311 26.23492964 17.5625 23.8125 C19.70017274 19.63009681 19.24174766 15.61111281 19 11 C11.69974902 11.31064898 6.41876372 14.53364328 1.31640625 19.70703125 C-1.09635709 22.73494672 -1.95313353 24.66607643 -2.5 28.5625 C-1.963825 32.24870313 -0.87336155 34.79967401 1 38 C4.43595166 36.47291037 7.11912454 34.40072955 10 32 C10.495 35.465 10.495 35.465 11 39 C14.71888239 38.49287967 17.73454239 37.88391785 21 36 C21.66 37.32 22.32 38.64 23 40 C27.1408875 38.91459975 27.1408875 38.91459975 30.5 36.4375 C32.72325093 34.30688452 35.01958067 34.3311577 38 34 C38 33.34 38 32.68 38 32 C38.66 32 39.32 32 40 32 C40.350625 32.969375 40.70125 33.93875 41.0625 34.9375 C42.73912187 38.24973576 42.73912187 38.24973576 46.125 39.25 C51.57823062 38.89817867 54.78191054 36.2998659 59 33 C71 47.93948127 71 47.93948127 71 53 C69.35 53 67.7 53 66 53 C66.495 54.98 66.495 54.98 67 57 C65.02 57.99 65.02 57.99 63 59 C61.875 55.25 61.875 55.25 63 53 C62.42894531 53.08378906 61.85789062 53.16757813 61.26953125 53.25390625 C54.06065968 54.15931301 47.21238721 53.73480434 40 53 C40 53.66 40 54.32 40 55 C39.34 55 38.68 55 38 55 C38 54.34 38 53.68 38 53 C31.07 53 24.14 53 17 53 C17.495 54.98 17.495 54.98 18 57 C16.68 57.66 15.36 58.32 14 59 C14 57.68 14 56.36 14 55 C14.66 55 15.32 55 16 55 C16 54.34 16 53.68 16 53 C13.36 53 10.72 53 8 53 C8 53.66 8 54.32 8 55 C8.66 55 9.32 55 10 55 C10 58.96 10 62.92 10 67 C7 66 7 66 5.61328125 63.56640625 C5.18402344 62.57511719 4.75476563 61.58382812 4.3125 60.5625 C3.87550781 59.57378906 3.43851563 58.58507812 2.98828125 57.56640625 C2 55 2 55 2 53 C2.99 53 3.98 53 5 53 C4.01 49.37 3.02 45.74 2 42 C-1.14551103 41.51863691 -4.29138068 41.03985755 -7.4375 40.5625 C-8.31599609 40.42779297 -9.19449219 40.29308594 -10.09960938 40.15429688 C-15.72365089 39.30342713 -21.34282007 38.59276656 -27 38 C-27 37.34 -27 36.68 -27 36 C-25.28103516 35.22076172 -25.28103516 35.22076172 -23.52734375 34.42578125 C-21.99721985 33.72173651 -20.46728178 33.0172878 -18.9375 32.3125 C-18.18533203 31.97283203 -17.43316406 31.63316406 -16.65820312 31.28320312 C-8.76644338 27.62771268 -1.21937298 23.53708727 2 15 C2.72296711 9.56268488 2.80656325 4.82413282 0 0 Z " fill="#079280" transform="translate(140,27)"/>
<path d="M0 0 C3.40312738 1.05875074 6.01353231 2.00902154 9 4 C9 4.66 9 5.32 9 6 C9.5671875 6.27070313 10.134375 6.54140625 10.71875 6.8203125 C16.34218314 9.72832073 21.75873588 13.26935925 26 18 C26.5775 18.53625 27.155 19.0725 27.75 19.625 C29 21 29 21 29 23 C29.66 23 30.32 23 31 23 C31.3627685 30.25536993 31.3627685 30.25536993 29.8125 33.4375 C27.58633099 35.35661121 25.88949684 35.68762196 23 36 C23 36.66 23 37.32 23 38 C22.34 38 21.68 38 21 38 C21 38.66 21 39.32 21 40 C19.38542921 41.43581474 17.70780925 42.80144783 16 44.125 C15.071875 44.84945312 14.14375 45.57390625 13.1875 46.3203125 C12.465625 46.87460938 11.74375 47.42890625 11 48 C11.38671875 48.7528125 11.7734375 49.505625 12.171875 50.28125 C15.63433541 57.34329797 18.01419854 63.89250961 19.44238281 71.6171875 C20.44090413 76.41971413 21.99036253 78.27344652 26 81 C28.33893872 85.67787745 27.49551149 91.92100718 27 97 C24.02859243 101.95234595 19.39285963 103.24144042 14.109375 105.0078125 C13.06523437 105.49894531 13.06523437 105.49894531 12 106 C11.505 107.485 11.505 107.485 11 109 C9.6846659 109.70151152 8.34882408 110.36525925 7 111 C6.60039062 111.46148437 6.20078125 111.92296875 5.7890625 112.3984375 C3.22262671 114.69590185 0.48878091 115.4921217 -2.75 116.625 C-3.94109375 117.05039063 -5.1321875 117.47578125 -6.359375 117.9140625 C-19.65012346 121.8784703 -36.5593845 121.59713528 -49.42578125 116.21484375 C-56.01287738 113.35539975 -56.01287738 113.35539975 -63 112 C-67.71226109 114.15760957 -70.56894828 117.2013356 -74 121 C-74.66 121 -75.32 121 -76 121 C-76.33 121.99 -76.66 122.98 -77 124 C-79.54141387 126.69867958 -80.92005934 126.99362176 -84.671875 127.29296875 C-86.03156035 127.27316751 -87.3910934 127.23759202 -88.75 127.1875 C-89.44738281 127.17396484 -90.14476563 127.16042969 -90.86328125 127.14648438 C-92.57585541 127.1112945 -94.28802941 127.05749155 -96 127 C-95.67 125.35 -95.34 123.7 -95 122 C-94.15179688 122.11472656 -93.30359375 122.22945313 -92.4296875 122.34765625 C-87.64850612 121.86300347 -85.55538353 119.62710517 -82.125 116.4375 C-81.5151123 115.8919043 -80.90522461 115.34630859 -80.27685547 114.78417969 C-79.06466741 113.69845564 -77.85764447 112.60693299 -76.65625 111.50927734 C-74.51007529 109.55355033 -72.31979124 107.65084598 -70.125 105.75 C-69.08264148 104.83412013 -68.04064023 103.91783176 -67 103 C-66.27554688 103.29003906 -65.55109375 103.58007812 -64.8046875 103.87890625 C-63.87914062 104.24886719 -62.95359375 104.61882812 -62 105 C-61.21882813 105.31839844 -60.43765625 105.63679688 -59.6328125 105.96484375 C-42.31356855 112.68212061 -22.0374009 115.63200395 -4.58203125 107.93359375 C0.28486792 105.463459 3.618354 102.47278711 7.30859375 98.5 C9.85829777 96.23883061 12.7432683 95.79882098 16 95 C18.58333333 93.58333333 18.58333333 93.58333333 20 91 C20.681373 87.83605931 20.97330908 85.10307679 20 82 C18.47258677 80.79830006 16.94417675 79.59774359 15.40332031 78.41333008 C12.91471777 75.90697654 12.94294321 72.95955488 12.5625 69.5625 C11.52892619 62.11179595 9.13859095 56.44976417 5.5234375 49.890625 C4.24543954 47.4657058 3.58441247 45.62668377 3 43 C10 37 17 31 24 25 C22.18850076 15.89706686 9.54174594 9.00937449 2.23828125 3.8125 C1.49964844 3.214375 0.76101562 2.61625 0 2 C0 1.34 0 0.68 0 0 Z " fill="#1A181C" transform="translate(204,23)"/>
<path d="M0 0 C-0.46588495 5.70709064 -1.93757784 9.15939723 -5 14 C-3.68 14.33 -2.36 14.66 -1 15 C-0.60167969 14.278125 -0.20335937 13.55625 0.20703125 12.8125 C0.73683594 11.884375 1.26664063 10.95625 1.8125 10 C2.33457031 9.071875 2.85664063 8.14375 3.39453125 7.1875 C3.92433594 6.465625 4.45414063 5.74375 5 5 C5.99 5 6.98 5 8 5 C9.72065113 10.78251608 10.68907927 18.69861779 7.8828125 24.18359375 C6.5 25.8125 6.5 25.8125 4 28 C6.87981123 26.82674357 8.37938667 25.62061333 10.625 23.375 C11.40875 22.59125 12.1925 21.8075 13 21 C13.66 21 14.32 21 15 21 C13.9441986 26.71892425 9.93134206 30.41530908 5.5625 34 C1.97149963 35.401366 -0.31933602 35.02240666 -4 34 C-5.9375 32.125 -5.9375 32.125 -7 30 C-7 29.01 -7 28.02 -7 27 C-7.66 27 -8.32 27 -9 27 C-9 27.66 -9 28.32 -9 29 C-11.97 29.495 -11.97 29.495 -15 30 C-15.495 31.485 -15.495 31.485 -16 33 C-19.20808915 35.1387261 -20.27698497 35.47730962 -24 35 C-24.66 34.01 -25.32 33.02 -26 32 C-26.53625 32.309375 -27.0725 32.61875 -27.625 32.9375 C-30.3984957 34.17827439 -33.00042837 34.5909675 -36 35 C-36.66 32.69 -37.32 30.38 -38 28 C-39.98 29.98 -41.96 31.96 -44 34 C-46.69600373 33.0114653 -47.80558649 32.34022364 -49.25 29.8125 C-50.44515833 25.33065625 -51.0902548 22.00873311 -48.78515625 17.76171875 C-44.65457763 11.97890868 -39.61246721 7.71089894 -33 5 C-30.1953125 4.84765625 -30.1953125 4.84765625 -28 5 C-25.97600005 13.60199978 -27.81302203 18.43353266 -32 26 C-30.68 26 -29.36 26 -28 26 C-27.9175 24.96875 -27.835 23.9375 -27.75 22.875 C-26.54128149 16.62995436 -22.96398293 11.92500976 -18 8 C-13.55856266 7.46396446 -11.75047482 7.49968346 -8 10 C-8.268125 9.46375 -8.53625 8.9275 -8.8125 8.375 C-9 6 -9 6 -6.8125 2.75 C-4 0 -4 0 0 0 Z " fill="#EEF8F7" transform="translate(187,32)"/>
<path d="M0 0 C0.33 -0.33 0.66 -0.66 1 -1 C2.68608966 -1.07205511 4.37500659 -1.08386068 6.0625 -1.0625 C6.98160156 -1.05347656 7.90070312 -1.04445313 8.84765625 -1.03515625 C9.55792969 -1.02355469 10.26820312 -1.01195313 11 -1 C11 -0.34 11 0.32 11 1 C11.66 1 12.32 1 13 1 C13 0.34 13 -0.32 13 -1 C14.65 -1 16.3 -1 18 -1 C18 -0.34 18 0.32 18 1 C18.99 0.34 19.98 -0.32 21 -1 C24.625 -0.75 24.625 -0.75 28 0 C28.495 0.99 28.495 0.99 29 2 C29.33 1.01 29.66 0.02 30 -1 C32.97 -1 35.94 -1 39 -1 C39 -0.34 39 0.32 39 1 C39.66 1 40.32 1 41 1 C41 2.32 41 3.64 41 5 C39.35 5.33 37.7 5.66 36 6 C36.495 7.98 36.495 7.98 37 10 C37.66 10 38.32 10 39 10 C39.1875 12.375 39.1875 12.375 39 15 C38.01 15.66 37.02 16.32 36 17 C36.825 17.4125 37.65 17.825 38.5 18.25 C39.325 18.8275 40.15 19.405 41 20 C41 21.32 41 22.64 41 24 C38.03 24 35.06 24 32 24 C32 23.34 32 22.68 32 22 C31.1646875 22.495 31.1646875 22.495 30.3125 23 C27.61141671 24.16803602 25.91462786 24.37367024 23 24 C21.1875 22.5 21.1875 22.5 20 21 C19.67 21.99 19.34 22.98 19 24 C17.68 24 16.36 24 15 24 C15 23.34 15 22.68 15 22 C14.34 22 13.68 22 13 22 C13 22.66 13 23.32 13 24 C9 24 5 24 1 24 C0.030625 24.061875 -0.93875 24.12375 -1.9375 24.1875 C-5 24 -5 24 -6.875 22.9375 C-8.58196395 19.99772876 -8.18799766 17.32129197 -8 14 C-7.34 13.67 -6.68 13.34 -6 13 C-6.66 12.01 -7.32 11.02 -8 10 C-8.1953125 7.51953125 -8.1953125 7.51953125 -8.125 4.8125 C-8.10695313 3.91144531 -8.08890625 3.01039062 -8.0703125 2.08203125 C-8.04710938 1.39496094 -8.02390625 0.70789063 -8 0 C-5.15266466 -1.42366767 -3.07246902 -0.52297345 0 0 Z M-2 8 C-1.01 9.32 -0.02 10.64 1 12 C1 10.68 1 9.36 1 8 C0.01 8 -0.98 8 -2 8 Z M25 8 C25 9.98 25 11.96 25 14 C26.32 13.67 27.64 13.34 29 13 C29.33 13.66 29.66 14.32 30 15 C30 13.35 30 11.7 30 10 C28.68 10 27.36 10 26 10 C25.67 9.34 25.34 8.68 25 8 Z M-5 14 C-4 16 -4 16 -4 16 Z " fill="#CEBFA8" transform="translate(36,70)"/>
<path d="M0 0 C27.06 0 54.12 0 82 0 C78.52108853 6.95782295 73.26146536 10.35946714 66 13 C65.14792969 13.350625 64.29585938 13.70125 63.41796875 14.0625 C58.85251523 15.31473868 54.58686628 15.29952349 49.875 15.25 C48.93503174 15.24178223 47.99506348 15.23356445 47.02661133 15.22509766 C29.70056715 14.94682771 14.83584928 9.8637913 0 1 C0 0.67 0 0.34 0 0 Z " fill="#03917F" transform="translate(129,119)"/>
<path d="M0 0 C0.33 -0.33 0.66 -0.66 1 -1 C3.3125 -1.3125 3.3125 -1.3125 6 -1 C8.3125 1 8.3125 1 10 3 C10.66 1.68 11.32 0.36 12 -1 C13.65 -1 15.3 -1 17 -1 C17 -0.34 17 0.32 17 1 C17.598125 0.67 18.19625 0.34 18.8125 0 C21 -1 21 -1 24 -1 C25.27861615 1.55723229 25.11336609 3.36737102 25.09765625 6.2265625 C25.09443359 7.2578125 25.09121094 8.2890625 25.08789062 9.3515625 C25.07532227 10.97191406 25.07532227 10.97191406 25.0625 12.625 C25.05798828 13.71296875 25.05347656 14.8009375 25.04882812 15.921875 C25.03701776 18.61463789 25.02054778 21.30729188 25 24 C21.125 23.125 21.125 23.125 20 22 C19.67 22.66 19.34 23.32 19 24 C17.35 24 15.7 24 14 24 C14 23.34 14 22.68 14 22 C13.34 22 12.68 22 12 22 C12 21.34 12 20.68 12 20 C11.46375 20.66 10.9275 21.32 10.375 22 C8 24 8 24 4.875 24.375 C2 24 2 24 0 22 C-0.33 22.66 -0.66 23.32 -1 24 C-2.65 24 -4.3 24 -6 24 C-7.6498007 20.70039859 -7.38258361 17.00872116 -7.5625 13.375 C-7.62727539 12.17230469 -7.62727539 12.17230469 -7.69335938 10.9453125 C-7.79951457 8.9637489 -7.90026855 6.98189729 -8 5 C-8.66 5 -9.32 5 -10 5 C-10 2 -10 2 -8.375 0.25 C-5.22638874 -1.40716382 -3.39600475 -0.75466772 0 0 Z M19 7 C19 9.64 19 12.28 19 15 C19.33 15 19.66 15 20 15 C20 12.36 20 9.72 20 7 C19.67 7 19.34 7 19 7 Z " fill="#CDBEA8" transform="translate(247,70)"/>
<path d="M0 0 C-3.21304264 3.21304264 -7.63068748 4.47566896 -11.79492188 6.16992188 C-20.53003017 9.84033848 -20.53003017 9.84033848 -26.375 16.875 C-27.04821343 20.24106716 -27.59099882 23.59165684 -28 27 C-26.58318366 26.68817931 -25.16655349 26.37551263 -23.75 26.0625 C-22.96109375 25.88847656 -22.1721875 25.71445312 -21.359375 25.53515625 C-19.23121297 25.052444 -17.11467158 24.53836822 -15 24 C-15 23.34 -15 22.68 -15 22 C-15.99 21.67 -16.98 21.34 -18 21 C-16.73760288 20.13341385 -15.46472499 19.28207941 -14.1875 18.4375 C-13.47980469 17.96183594 -12.77210937 17.48617187 -12.04296875 16.99609375 C-10 16 -10 16 -7 17 C-7.85146213 19.7385679 -8.72955994 22.46331295 -9.625 25.1875 C-9.86089844 25.95642578 -10.09679687 26.72535156 -10.33984375 27.51757812 C-12.21284869 33.11258006 -14.32910909 35.45833546 -19 39 C-19.96298724 42.17562802 -19.96298724 42.17562802 -20 45 C-19.34 45.33 -18.68 45.66 -18 46 C-18.62320121 52.43974581 -19.64008262 58.67572401 -21 65 C-20.01 65.33 -19.02 65.66 -18 66 C-19.98 66.495 -19.98 66.495 -22 67 C-23.31352171 64.87562549 -24.62585713 62.75053408 -25.9375 60.625 C-26.31068359 60.02171875 -26.68386719 59.4184375 -27.06835938 58.796875 C-29.88671875 54.2265625 -29.88671875 54.2265625 -31 52 C-31.99 52.66 -32.98 53.32 -34 54 C-36.03844169 49.92311662 -36.07759755 47.40835361 -35 43 C-34.67 42.34 -34.34 41.68 -34 41 C-34.02292845 39.19699001 -34.05125597 37.39375579 -34.11694336 35.59179688 C-34.47070201 24.7905292 -32.44716866 17.83423744 -24.91015625 9.78515625 C-18.08995784 3.41126939 -9.39959064 -0.31721531 0 0 Z " fill="#079280" transform="translate(122,26)"/>
<path d="M0 0 C7.15989917 1.80718609 13.76235418 4.52937154 20.46484375 7.57446289 C23.62260755 9.00155893 26.62302709 10.23153705 30 11 C30 11.66 30 12.32 30 13 C33.6678852 14.96189209 36.87248551 16.39301257 41 17 C41.04253906 17.56332031 41.08507812 18.12664063 41.12890625 18.70703125 C42.42089953 22.10792837 45.07350873 23.64398172 47.9375 25.6875 C49.12077877 26.56593518 50.30173986 27.44750018 51.48046875 28.33203125 C52.07134277 28.77498535 52.6622168 29.21793945 53.27099609 29.67431641 C55.84723002 31.64959884 58.30796325 33.73689257 60.75 35.875 C61.54921875 36.57367188 62.3484375 37.27234375 63.171875 37.9921875 C65.05788523 40.06357481 65.63145984 41.26051816 66 44 C59.2325439 50.33232356 52.46187668 56.47896498 45 62 C45.69212444 65.85344958 47.49735606 68.84330425 49.375 72.25 C52.91699796 78.89380286 54.17017581 85.05935742 55.00390625 92.50390625 C56.02630212 96.09231527 56.30048675 96.5626995 59.0546875 98.671875 C62 101 62 101 62.69140625 103.38671875 C62.64886719 104.14597656 62.60632813 104.90523438 62.5625 105.6875 C62.54316406 106.45449219 62.52382812 107.22148438 62.50390625 108.01171875 C62 110 62 110 59 112 C59.13019531 111.40832031 59.26039063 110.81664063 59.39453125 110.20703125 C59.82691773 107.72990123 60.1137558 105.51526708 60 103 C57.79086457 99.95524698 57.79086457 99.95524698 55 98 C53.07719055 96.07719055 53.03303905 92.81924821 52.5 90.25 C52.2421875 89.01765625 51.984375 87.7853125 51.71875 86.515625 C51.13870137 83.67843062 50.56375726 80.84046929 50 78 C46.62118566 79.39813007 44.84982122 80.82887791 43 84 C42.27954633 87.15118325 42.27954633 87.15118325 42 90 C42.66 90 43.32 90 44 90 C44 90.66 44 91.32 44 92 C41.69 92 39.38 92 37 92 C37.04640625 91.39671875 37.0928125 90.7934375 37.140625 90.171875 C37.47810312 84.91586667 37.47810312 84.91586667 35 80.4375 C34.34 79.963125 33.68 79.48875 33 79 C33 80.32 33 81.64 33 83 C32.01 83.495 32.01 83.495 31 84 C31.27617533 85.94074861 31.27617533 85.94074861 32 88 C32.99 88.66 33.98 89.32 35 90 C35 90.66 35 91.32 35 92 C32.8125 92.375 32.8125 92.375 30 92 C27.3125 89.0625 27.3125 89.0625 25 86 C24.34 85.67 23.68 85.34 23 85 C23.99 88.465 23.99 88.465 25 92 C22.69 92 20.38 92 18 92 C18.33 90.02 18.66 88.04 19 86 C17.9275 86.66 16.855 87.32 15.75 88 C12.69019314 89.88295807 11.8664136 90 8 90 C8 88.35 8 86.7 8 85 C8.99 85.33 9.98 85.66 11 86 C11.33 84.02 11.66 82.04 12 80 C11.34 80 10.68 80 10 80 C10 80.66 10 81.32 10 82 C9.34 82 8.68 82 8 82 C8 80.68 8 79.36 8 78 C10.76276177 78.52268466 13.3260876 79.10869587 16 80 C16.33 78.68 16.66 77.36 17 76 C24.59 76 32.18 76 40 76 C40 77.98 40 79.96 40 82 C40.99 81.34 41.98 80.68 43 80 C43 78.68 43 77.36 43 76 C44.65 76 46.3 76 48 76 C47.37755401 74.72791378 46.75193233 73.45738118 46.125 72.1875 C45.77695313 71.47980469 45.42890625 70.77210937 45.0703125 70.04296875 C43.9343514 67.78753582 43.9343514 67.78753582 42 65 C42.1473103 62.10093334 42.94587738 61.05816815 44.93359375 58.921875 C45.75988281 58.20515625 46.58617187 57.4884375 47.4375 56.75 C48.33082031 55.97269531 49.22414062 55.19539063 50.14453125 54.39453125 C54.36923242 50.85179278 58.65444905 47.39322808 63 44 C62.50759125 39.85633388 60.49862052 38.39598879 57.3125 35.875 C55.22074852 34.22916453 53.12347142 32.60350115 51 31 C50.45053711 30.58379395 49.90107422 30.16758789 49.33496094 29.73876953 C35.18461123 19.11576525 17.52686794 6.89785391 0 3 C0 2.01 0 1.02 0 0 Z " fill="#E5E1DB" transform="translate(163,4)"/>
<path d="M0 0 C0.33 1.32 0.66 2.64 1 4 C0.01 4 -0.98 4 -2 4 C-1.04941561 6.14927727 -0.08930503 8.29434362 0.875 10.4375 C1.40867188 11.63246094 1.94234375 12.82742187 2.4921875 14.05859375 C3.67727235 17.08527631 3.67727235 17.08527631 6 18 C6 14.04 6 10.08 6 6 C5.34 6 4.68 6 4 6 C4 5.34 4 4.68 4 4 C6.64 4 9.28 4 12 4 C12 4.66 12 5.32 12 6 C11.34 6 10.68 6 10 6 C10 7.32 10 8.64 10 10 C10.99 9.34 11.98 8.68 13 8 C13 6.68 13 5.36 13 4 C19.93 4 26.86 4 34 4 C34.66 5.65 35.32 7.3 36 9 C32.85262818 8.30058404 29.97411124 7.23921302 27 6 C27 7.32 27 8.64 27 10 C27.66 10 28.32 10 29 10 C29 9.34 29 8.68 29 8 C29.66 8 30.32 8 31 8 C31 10.31 31 12.62 31 15 C29.68 14.34 28.36 13.68 27 13 C27 14.65 27 16.3 27 18 C28.093125 17.525625 29.18625 17.05125 30.3125 16.5625 C32.53476255 15.59812191 34.69500485 14.76833172 37 14 C35.125 18.875 35.125 18.875 34 20 C32.5112814 20.08669432 31.018555 20.10703494 29.52734375 20.09765625 C28.62822266 20.09443359 27.72910156 20.09121094 26.80273438 20.08789062 C25.85720703 20.07951172 24.91167969 20.07113281 23.9375 20.0625 C22.98810547 20.05798828 22.03871094 20.05347656 21.06054688 20.04882812 C18.70696935 20.0370011 16.35351523 20.02052025 14 20 C13.87625 19.21625 13.7525 18.4325 13.625 17.625 C13.20882007 14.85942178 13.20882007 14.85942178 11 13 C10.67 14.65 10.34 16.3 10 18 C10.66 18 11.32 18 12 18 C12 18.66 12 19.32 12 20 C7.38 20 2.76 20 -2 20 C-1.67 18.02 -1.34 16.04 -1 14 C-2.98 14.33 -4.96 14.66 -7 15 C-7 16.65 -7 18.3 -7 20 C-13.93 20 -20.86 20 -28 20 C-28 19.34 -28 18.68 -28 18 C-27.34 18 -26.68 18 -26 18 C-26 14.04 -26 10.08 -26 6 C-26.66 6 -27.32 6 -28 6 C-28 5.34 -28 4.68 -28 4 C-26.06280622 3.94593878 -24.12518079 3.90717975 -22.1875 3.875 C-21.10855469 3.85179688 -20.02960938 3.82859375 -18.91796875 3.8046875 C-16 4 -16 4 -13 6 C-13 7.32 -13 8.64 -13 10 C-13.99 10 -14.98 10 -16 10 C-16.33 9.01 -16.66 8.02 -17 7 C-18.65 7 -20.3 7 -22 7 C-22 10.3 -22 13.6 -22 17 C-20.35 17 -18.7 17 -17 17 C-16.34 15.68 -15.68 14.36 -15 13 C-14.01 13 -13.02 13 -12 13 C-11.67 13.99 -11.34 14.98 -11 16 C-9.02 11.71 -7.04 7.42 -5 3 C-3.35 3 -1.7 3 0 3 C0 2.01 0 1.02 0 0 Z " fill="#CCE8E5" transform="translate(144,76)"/>
<path d="M0 0 C13.60388765 -0.09264099 27.20770037 -0.1637353 40.8118391 -0.20724869 C47.1286603 -0.22813193 53.44526582 -0.25646367 59.76196289 -0.30175781 C65.85683121 -0.34518831 71.95149196 -0.36913155 78.04650307 -0.37950897 C80.37296123 -0.38690529 82.69940791 -0.40134837 85.02577782 -0.42292023 C88.28200289 -0.45191618 91.53736797 -0.45595748 94.79370117 -0.45410156 C96.23947792 -0.47567322 96.23947792 -0.47567322 97.71446228 -0.49768066 C101.952859 -0.47150529 104.36760282 -0.37324924 108.07929993 1.81744385 C110.75230316 4.85486741 110.93091457 6.99304535 111 11 C110.0625 14.4375 110.0625 14.4375 109 17 C104.15896318 17.95490975 99.43356576 18.16872021 94.51611328 18.20532227 C93.68618362 18.21522186 92.85625397 18.22512146 92.00117493 18.23532104 C89.27424921 18.26675812 86.54730611 18.29162268 83.8203125 18.31640625 C81.92316246 18.33699116 80.02601685 18.35798803 78.12887573 18.37937927 C73.14770098 18.43444119 68.16648593 18.4839202 63.1852417 18.53222656 C58.09741653 18.58255787 53.00964952 18.6381831 47.921875 18.69335938 C37.94796641 18.80074659 27.97400722 18.90223435 18 19 C19.98 20.32 21.96 21.64 24 23 C21.23478935 26.68264036 18.35705163 29.52027628 14.75 32.375 C10.56118355 35.70815702 6.59215234 39.15233574 2.75390625 42.8828125 C1 44 1 44 -1.22265625 43.6796875 C-2.10244141 43.34324219 -2.10244141 43.34324219 -3 43 C-2.41631082 36.94114192 -0.61261739 31.72641954 1.5625 26.0625 C1.89185547 25.18787109 2.22121094 24.31324219 2.56054688 23.41210938 C3.36737838 21.27225191 4.18063181 19.13508136 5 17 C6.20412033 16.99191315 7.40824066 16.98382629 8.64884949 16.97549438 C19.99353439 16.89802806 31.33809943 16.81028738 42.68262768 16.71247292 C48.51503811 16.66251549 54.34743048 16.61618523 60.17993164 16.578125 C65.80803436 16.54126545 71.43598575 16.49490336 77.06395912 16.44193649 C79.21172749 16.42339617 81.3595283 16.40828688 83.5073452 16.39665604 C86.51441334 16.37978763 89.52113519 16.35075065 92.52807617 16.31884766 C93.86164406 16.31560738 93.86164406 16.31560738 95.22215271 16.31230164 C99.53423436 16.25381422 103.13946363 16.16501417 107 14 C108.54163175 10.9167365 108.29747535 8.39121901 108 5 C105.28240146 2.35252326 103.31901995 1.62390713 99.57073975 1.60127258 C98.69016907 1.58873444 97.80959839 1.57619629 96.90234375 1.5632782 C95.4652002 1.56543083 95.4652002 1.56543083 93.99902344 1.56762695 C92.98406799 1.5574353 91.96911255 1.54724365 90.92340088 1.53674316 C87.5686699 1.50654932 84.21422416 1.49733728 80.859375 1.48828125 C78.53337653 1.47143934 76.20738718 1.45328977 73.88140869 1.43388367 C67.75926567 1.38632477 61.63715965 1.35655336 55.51489258 1.33044434 C49.26766652 1.30066863 43.02056806 1.25412802 36.7734375 1.20898438 C24.51569166 1.12288416 12.2579196 1.05556865 0 1 C0 0.67 0 0.34 0 0 Z " fill="#FCB72F" transform="translate(113,101)"/>
<path d="M0 0 C0.33 -0.33 0.66 -0.66 1 -1 C2.68608966 -1.07205511 4.37500659 -1.08386068 6.0625 -1.0625 C6.98160156 -1.05347656 7.90070312 -1.04445313 8.84765625 -1.03515625 C9.55792969 -1.02355469 10.26820312 -1.01195313 11 -1 C11 -0.34 11 0.32 11 1 C11.66 1 12.32 1 13 1 C13.66 4.63 14.32 8.26 15 12 C13.68 12 12.36 12 11 12 C10.67 15.3 10.34 18.6 10 22 C9.01 22.33 8.02 22.66 7 23 C6.67 15.74 6.34 8.48 6 1 C5.67 7.93 5.34 14.86 5 22 C0.99186716 24.00406642 -0.66205267 24.46148376 -5 24 C-6.875 22.9375 -6.875 22.9375 -8 21 C-8.1875 17.3125 -8.1875 17.3125 -8 14 C-7.34 13.67 -6.68 13.34 -6 13 C-6.66 12.01 -7.32 11.02 -8 10 C-8.1953125 7.51953125 -8.1953125 7.51953125 -8.125 4.8125 C-8.10695313 3.91144531 -8.08890625 3.01039062 -8.0703125 2.08203125 C-8.04710938 1.39496094 -8.02390625 0.70789063 -8 0 C-5.15266466 -1.42366767 -3.07246902 -0.52297345 0 0 Z M-2 8 C-1.01 9.32 -0.02 10.64 1 12 C1 10.68 1 9.36 1 8 C0.01 8 -0.98 8 -2 8 Z M-5 14 C-4 16 -4 16 -4 16 Z " fill="#ACA08E" transform="translate(36,70)"/>
<path d="M0 0 C2.33960714 2.93191275 4.23259342 6.03757579 6.10961914 9.28100586 C9.86087327 15.75796252 13.69043101 21.65628587 19 27 C20.32 26.67 21.64 26.34 23 26 C22.505 26.70125 22.01 27.4025 21.5 28.125 C19.77082501 31.43925206 19.5190571 33.31277109 20 37 C21.4166747 38.7511573 21.4166747 38.7511573 23 40 C23 40.66 23 41.32 23 42 C23.66 42.33 24.32 42.66 25 43 C25 44.32 25 45.64 25 47 C23.25 48.125 23.25 48.125 21 49 C18.9375 48.31640625 18.9375 48.31640625 17 47 C14.84702625 42.01363155 14.77230951 36.35072662 15 31 C14.34 31 13.68 31 13 31 C12.34 29.35 11.68 27.7 11 26 C10.34 26 9.68 26 9 26 C-1.6529271 11.80465377 -1.6529271 11.80465377 -0.6875 3.5625 C-0.460625 2.386875 -0.23375 1.21125 0 0 Z " fill="#D6C4C4" transform="translate(90,76)"/>
<path d="M0 0 C7.59 0 15.18 0 23 0 C22.67 0.66 22.34 1.32 22 2 C20.35 2 18.7 2 17 2 C16.87625 2.804375 16.7525 3.60875 16.625 4.4375 C16.315625 5.7059375 16.315625 5.7059375 16 7 C15.01 7.495 15.01 7.495 14 8 C14.27617533 9.94074861 14.27617533 9.94074861 15 12 C15.99 12.66 16.98 13.32 18 14 C18 14.66 18 15.32 18 16 C15.8125 16.375 15.8125 16.375 13 16 C10.3125 13.0625 10.3125 13.0625 8 10 C7.34 9.67 6.68 9.34 6 9 C6.66 11.31 7.32 13.62 8 16 C5.69 16 3.38 16 1 16 C1.33 14.02 1.66 12.04 2 10 C0.9275 10.66 -0.145 11.32 -1.25 12 C-4.30980686 13.88295807 -5.1335864 14 -9 14 C-9 12.35 -9 10.7 -9 9 C-8.01 9.33 -7.02 9.66 -6 10 C-5.67 8.02 -5.34 6.04 -5 4 C-5.66 4 -6.32 4 -7 4 C-7 4.66 -7 5.32 -7 6 C-7.66 6 -8.32 6 -9 6 C-9 4.68 -9 3.36 -9 2 C-6.23723823 2.52268466 -3.6739124 3.10869587 -1 4 C-0.67 2.68 -0.34 1.36 0 0 Z " fill="#109685" transform="translate(180,80)"/>
<path d="M0 0 C-2 2 -2 2 -5.1875 2.6875 C-8.47014738 3.53855673 -10.0369613 4.82127043 -12.3125 7.3125 C-19.98554149 15.55200764 -30.27187665 17.94006897 -41.13696289 18.33374023 C-53.76393042 18.56020288 -66.93397388 16.6884209 -78.2734375 10.83203125 C-78.84320313 10.55746094 -79.41296875 10.28289062 -80 10 C-80.61875 9.69578125 -81.2375 9.3915625 -81.875 9.078125 C-84.2755506 8.76487744 -84.2755506 8.76487744 -86.6640625 11.02734375 C-87.66136766 11.98677657 -88.64778777 12.95760961 -89.625 13.9375 C-90.69218571 14.95374254 -91.76122263 15.96804435 -92.83203125 16.98046875 C-93.62988037 17.74302979 -93.62988037 17.74302979 -94.44384766 18.52099609 C-104.18403781 27.77830264 -104.18403781 27.77830264 -108.17578125 28.265625 C-110.125 28 -110.125 28 -113 27 C-113.33904545 21.30256233 -112.3423191 17.42264704 -110.125 12.3125 C-109.85558594 11.66216797 -109.58617188 11.01183594 -109.30859375 10.34179688 C-107.98276578 7.16951092 -106.59003424 4.04885206 -105 1 C-104.34 1 -103.68 1 -103 1 C-104.91518473 6.87613497 -106.98281793 12.66384817 -109.23046875 18.421875 C-110.02579822 21.0864306 -110.14414946 23.23630693 -110 26 C-106.11649732 25.43384016 -104.24229686 23.66155353 -101.4375 21 C-97.72382737 17.57241771 -93.98614481 14.19905606 -90.125 10.9375 C-89.24070313 10.18339844 -88.35640625 9.42929688 -87.4453125 8.65234375 C-85 7 -85 7 -81 7 C-78.46580526 7.90751568 -75.99076005 8.86225726 -73.5 9.875 C-63.05365783 13.90157302 -53.48553165 15.15897891 -42.3125 15.3125 C-40.99342651 15.33932861 -40.99342651 15.33932861 -39.64770508 15.36669922 C-29.67814632 15.35357768 -21.74911923 12.26859645 -14 6 C-13.319375 5.0925 -12.63875 4.185 -11.9375 3.25 C-9.0886256 -0.05837027 -4.19467457 -2.09733728 0 0 Z " fill="#C9DAD8" transform="translate(221,118)"/>
<path d="M0 0 C0.99 0 1.98 0 3 0 C4.72065113 5.78251608 5.68907927 13.69861779 2.8828125 19.18359375 C1.5 20.8125 1.5 20.8125 -1 23 C1.87981123 21.82674357 3.37938667 20.62061333 5.625 18.375 C6.40875 17.59125 7.1925 16.8075 8 16 C8.66 16 9.32 16 10 16 C8.9441986 21.71892425 4.93134206 25.41530908 0.5625 29 C-3.02850037 30.401366 -5.31933602 30.02240666 -9 29 C-11.83619109 26.35288832 -12.47462592 23.78269337 -13 20 C-12.01 19.34 -11.02 18.68 -10 18 C-8.02 18.99 -6.04 19.98 -4 21 C-2.06604999 18.09907498 -1.69868059 17.10325263 -1.375 13.8125 C-1.25125 12.554375 -1.1275 11.29625 -1 10 C-2.32 10 -3.64 10 -5 10 C-3.66786942 6.4134946 -2.23083941 3.12317517 0 0 Z " fill="#F8FAF7" transform="translate(192,37)"/>
<path d="M0 0 C0 5.01786494 -1.19281162 6.11891112 -4.4453125 9.6953125 C-9.76678925 14.49603312 -15.94561512 18.19750345 -22 22 C-23 20 -23 20 -22.4765625 18.046875 C-22.19554688 17.28890625 -21.91453125 16.5309375 -21.625 15.75 C-20.56533744 12.8417631 -19.98966483 10.81741198 -19.8125 7.6875 C-19 5 -19 5 -17.3046875 3.78125 C-11.41774627 0.74002575 -6.64192096 -0.12772925 0 0 Z " fill="#089280" transform="translate(138,35)"/>
<path d="M0 0 C13.60388765 -0.09264099 27.20770037 -0.1637353 40.8118391 -0.20724869 C47.1286603 -0.22813193 53.44526582 -0.25646367 59.76196289 -0.30175781 C65.85683121 -0.34518831 71.95149196 -0.36913155 78.04650307 -0.37950897 C80.37296123 -0.38690529 82.69940791 -0.40134837 85.02577782 -0.42292023 C88.28200289 -0.45191618 91.53736797 -0.45595748 94.79370117 -0.45410156 C96.23947792 -0.47567322 96.23947792 -0.47567322 97.71446228 -0.49768066 C101.952859 -0.47150529 104.36760282 -0.37324924 108.07929993 1.81744385 C110.75230316 4.85486741 110.93091457 6.99304535 111 11 C110.0625 14.4375 110.0625 14.4375 109 17 C104.02211345 18.00043968 99.29074283 18.13618403 94.24072266 18.11352539 C92.9519371 18.11374443 92.9519371 18.11374443 91.63711548 18.1139679 C88.81273831 18.11327429 85.98842807 18.1055078 83.1640625 18.09765625 C81.19965654 18.09579011 79.2352501 18.09436713 77.27084351 18.09336853 C72.11206772 18.08955879 66.95332029 18.07974171 61.79455566 18.06866455 C56.52580143 18.05841721 51.25704259 18.0538638 45.98828125 18.04882812 C35.65884174 18.03811803 25.32942323 18.02106018 15 18 C15 17.67 15 17.34 15 17 C16.07883957 16.99191315 17.15767914 16.98382629 18.26921082 16.97549438 C28.43661427 16.89800733 38.60388433 16.81026144 48.7711134 16.71247292 C53.99817946 16.66252862 59.2252255 16.61619829 64.45239258 16.578125 C69.49695887 16.54124879 74.54135686 16.49488225 79.58577919 16.44193649 C81.51025757 16.42340501 83.43477201 16.40829244 85.35930443 16.39665604 C88.05505988 16.37977239 90.75043094 16.35073205 93.44604492 16.31884766 C94.63935173 16.31560738 94.63935173 16.31560738 95.85676575 16.31230164 C99.97504332 16.25008208 103.3472227 15.99054498 107 14 C108.54163175 10.9167365 108.29747535 8.39121901 108 5 C105.28240146 2.35252326 103.31901995 1.62390713 99.57073975 1.60127258 C98.69016907 1.58873444 97.80959839 1.57619629 96.90234375 1.5632782 C95.4652002 1.56543083 95.4652002 1.56543083 93.99902344 1.56762695 C92.98406799 1.5574353 91.96911255 1.54724365 90.92340088 1.53674316 C87.5686699 1.50654932 84.21422416 1.49733728 80.859375 1.48828125 C78.53337653 1.47143934 76.20738718 1.45328977 73.88140869 1.43388367 C67.75926567 1.38632477 61.63715965 1.35655336 55.51489258 1.33044434 C49.26766652 1.30066863 43.02056806 1.25412802 36.7734375 1.20898438 C24.51569166 1.12288416 12.2579196 1.05556865 0 1 C0 0.67 0 0.34 0 0 Z " fill="#B76D68" transform="translate(113,101)"/>
<path d="M0 0 C1.65 0 3.3 0 5 0 C6.27861615 2.55723229 6.11336609 4.36737102 6.09765625 7.2265625 C6.09443359 8.2578125 6.09121094 9.2890625 6.08789062 10.3515625 C6.07951172 11.43179688 6.07113281 12.51203125 6.0625 13.625 C6.05798828 14.71296875 6.05347656 15.8009375 6.04882812 16.921875 C6.03701776 19.61463789 6.02054778 22.30729188 6 25 C4.68 25 3.36 25 2 25 C2 24.34 2 23.68 2 23 C1.34 23 0.68 23 0 23 C0 23.66 0 24.32 0 25 C-3.3 25 -6.6 25 -10 25 C-9.67 24.34 -9.34 23.68 -9 23 C-8.84824451 21.40737934 -8.75099675 19.80935144 -8.68359375 18.2109375 C-8.64169922 17.26992187 -8.59980469 16.32890625 -8.55664062 15.359375 C-8.51732422 14.37453125 -8.47800781 13.3896875 -8.4375 12.375 C-8.39431641 11.38242188 -8.35113281 10.38984375 -8.30664062 9.3671875 C-8.20038931 6.91160162 -8.09835036 4.45591297 -8 2 C-7.34 2 -6.68 2 -6 2 C-6 9.26 -6 16.52 -6 24 C-5.34 23.67 -4.68 23.34 -4 23 C-3.53101037 20.1840151 -3.53101037 20.1840151 -3.375 16.9375 C-3.26285156 15.28041016 -3.26285156 15.28041016 -3.1484375 13.58984375 C-3.09945312 12.73519531 -3.05046875 11.88054687 -3 11 C-0.525 11.99 -0.525 11.99 2 13 C1.67 11.783125 1.34 10.56625 1 9.3125 C0.19677787 6.12789396 -0.20641973 3.3027157 0 0 Z " fill="#C1B39E" transform="translate(49,69)"/>
<path d="M0 0 C1.8125 0.75 1.8125 0.75 2.8125 1.75 C3.04442865 3.26469448 3.22465238 4.78754562 3.375 6.3125 C3.45878906 7.13878906 3.54257813 7.96507813 3.62890625 8.81640625 C3.68949219 9.45449219 3.75007812 10.09257813 3.8125 10.75 C4.1425 10.75 4.4725 10.75 4.8125 10.75 C5.1425 8.44 5.4725 6.13 5.8125 3.75 C6.4725 3.75 7.1325 3.75 7.8125 3.75 C7.80089844 4.38808594 7.78929687 5.02617188 7.77734375 5.68359375 C7.76832031 6.50988281 7.75929687 7.33617188 7.75 8.1875 C7.73839844 9.01121094 7.72679687 9.83492187 7.71484375 10.68359375 C7.57982652 12.74163938 7.57982652 12.74163938 8.8125 13.75 C8.85342937 16.08297433 8.85491723 18.41705225 8.8125 20.75 C7.8225 20.42 6.8325 20.09 5.8125 19.75 C5.8125 18.76 5.8125 17.77 5.8125 16.75 C4.8225 16.75 3.8325 16.75 2.8125 16.75 C2.8125 19.39 2.8125 22.03 2.8125 24.75 C1.1625 24.75 -0.4875 24.75 -2.1875 24.75 C-3.8373007 21.45039859 -3.57008361 17.75872116 -3.75 14.125 C-3.81477539 12.92230469 -3.81477539 12.92230469 -3.88085938 11.6953125 C-3.98701457 9.7137489 -4.08776855 7.73189729 -4.1875 5.75 C-4.8475 5.75 -5.5075 5.75 -6.1875 5.75 C-6.1875 4.76 -6.1875 3.77 -6.1875 2.75 C-4.06349812 0.62599812 -3.0521529 -0.34881747 0 0 Z " fill="#D1C1AA" transform="translate(243.1875,69.25)"/>
<path d="M0 0 C6.93 0 13.86 0 21 0 C21.66 1.65 22.32 3.3 23 5 C19.85262818 4.30058404 16.97411124 3.23921302 14 2 C14 3.32 14 4.64 14 6 C14.66 6 15.32 6 16 6 C16 5.34 16 4.68 16 4 C16.66 4 17.32 4 18 4 C18 6.31 18 8.62 18 11 C16.68 10.34 15.36 9.68 14 9 C14 10.65 14 12.3 14 14 C15.093125 13.525625 16.18625 13.05125 17.3125 12.5625 C19.53476255 11.59812191 21.69500485 10.76833172 24 10 C22.125 14.875 22.125 14.875 21 16 C19.5112814 16.08669432 18.018555 16.10703494 16.52734375 16.09765625 C15.62822266 16.09443359 14.72910156 16.09121094 13.80273438 16.08789062 C12.85720703 16.07951172 11.91167969 16.07113281 10.9375 16.0625 C9.98810547 16.05798828 9.03871094 16.05347656 8.06054688 16.04882812 C5.70696935 16.0370011 3.35351523 16.02052025 1 16 C0.84660156 15.22269531 0.69320312 14.44539063 0.53515625 13.64453125 C0.08271418 11.40874088 -0.42769881 9.20744743 -1 7 C-0.01 7 0.98 7 2 7 C3.68732277 8.98260426 5.35366057 10.9832342 7 13 C7.99 13.33 8.98 13.66 10 14 C9.67 10.37 9.34 6.74 9 3 C6.69 3.33 4.38 3.66 2 4 C2 3.34 2 2.68 2 2 C1.34 2 0.68 2 0 2 C0 1.34 0 0.68 0 0 Z " fill="#D2EBE8" transform="translate(157,80)"/>
<path d="M0 0 C1.27861615 2.55723229 1.11336609 4.36737102 1.09765625 7.2265625 C1.09443359 8.2578125 1.09121094 9.2890625 1.08789062 10.3515625 C1.07951172 11.43179688 1.07113281 12.51203125 1.0625 13.625 C1.05798828 14.71296875 1.05347656 15.8009375 1.04882812 16.921875 C1.03701776 19.61463789 1.02054778 22.30729188 1 25 C-2.875 24.125 -2.875 24.125 -4 23 C-4.33 23.66 -4.66 24.32 -5 25 C-6.65 25 -8.3 25 -10 25 C-9.01 21.535 -9.01 21.535 -8 18 C-7.34 18 -6.68 18 -6 18 C-6.66 17.01 -7.32 16.02 -8 15 C-8.1953125 11.86328125 -8.1953125 11.86328125 -8.125 8.3125 C-8.09792969 6.54326172 -8.09792969 6.54326172 -8.0703125 4.73828125 C-8.04710937 3.83464844 -8.02390625 2.93101563 -8 2 C-5.09399739 0.74335022 -3.20395416 0 0 0 Z M-5 8 C-5 10.64 -5 13.28 -5 16 C-4.67 16 -4.34 16 -4 16 C-4 13.36 -4 10.72 -4 8 C-4.33 8 -4.66 8 -5 8 Z " fill="#6F685D" transform="translate(271,69)"/>
<path d="M0 0 C3.3 0 6.6 0 10 0 C10 0.66 10 1.32 10 2 C10.66 2 11.32 2 12 2 C12.66 5.63 13.32 9.26 14 13 C12.68 13 11.36 13 10 13 C9.67 16.3 9.34 19.6 9 23 C8.01 23.33 7.02 23.66 6 24 C5.67 16.74 5.34 9.48 5 2 C4.67 8.93 4.34 15.86 4 23 C3.01 23 2.02 23 1 23 C0.38794237 15.3164908 -0.13292199 7.70947565 0 0 Z " fill="#C4B6A1" transform="translate(37,69)"/>
<path d="M0 0 C2.64 0 5.28 0 8 0 C8 0.66 8 1.32 8 2 C7.34 2 6.68 2 6 2 C6 3.32 6 4.64 6 6 C7.65 4.68 9.3 3.36 11 2 C11 2.66 11 3.32 11 4 C11.99 3.34 12.98 2.68 14 2 C16.475 2.495 16.475 2.495 19 3 C19 6.63 19 10.26 19 14 C13.85139294 12.71284823 13.13538553 11.09341999 10 7 C6.77595022 8.66954819 6.77595022 8.66954819 6.3125 11.625 C6.1578125 12.800625 6.1578125 12.800625 6 14 C6.66 14 7.32 14 8 14 C8 14.66 8 15.32 8 16 C3.38 16 -1.24 16 -6 16 C-5.34 14.68 -4.68 13.36 -4 12 C-4 12.99 -4 13.98 -4 15 C-2.02 14.67 -0.04 14.34 2 14 C2 10.04 2 6.08 2 2 C1.34 2 0.68 2 0 2 C0 1.34 0 0.68 0 0 Z " fill="#D0EBE8" transform="translate(148,80)"/>
<path d="M0 0 C0.78375 0.04125 1.5675 0.0825 2.375 0.125 C2.375 1.445 2.375 2.765 2.375 4.125 C1.385 4.125 0.395 4.125 -0.625 4.125 C-0.295 7.425 0.035 10.725 0.375 14.125 C2.025 14.125 3.675 14.125 5.375 14.125 C4.625 20.875 4.625 20.875 2.375 23.125 C-0.125 23.375 -0.125 23.375 -2.625 23.125 C-5.03329792 20.71670208 -4.88102579 20.13216444 -4.890625 16.84375 C-4.89320312 16.00199219 -4.89578125 15.16023438 -4.8984375 14.29296875 C-4.88683594 12.97232422 -4.88683594 12.97232422 -4.875 11.625 C-4.88273437 10.74457031 -4.89046875 9.86414063 -4.8984375 8.95703125 C-4.89585938 8.11527344 -4.89328125 7.27351563 -4.890625 6.40625 C-4.88836914 5.63345703 -4.88611328 4.86066406 -4.88378906 4.06445312 C-4.44545451 0.77942514 -3.18306107 0.15157434 0 0 Z " fill="#D0C1AA" transform="translate(59.625,68.875)"/>
<path d="M0 0 C1.32 0 2.64 0 4 0 C4 1.98 4 3.96 4 6 C5.65 5.67 7.3 5.34 9 5 C9.33 3.68 9.66 2.36 10 1 C11.32 1.33 12.64 1.66 14 2 C14 3.32 14 4.64 14 6 C13.01 6.495 13.01 6.495 12 7 C12.27617533 8.94074861 12.27617533 8.94074861 13 11 C13.99 11.66 14.98 12.32 16 13 C16 13.66 16 14.32 16 15 C13.8125 15.375 13.8125 15.375 11 15 C8.3125 12.0625 8.3125 12.0625 6 9 C5.34 8.67 4.68 8.34 4 8 C4.66 10.31 5.32 12.62 6 15 C3.69 15 1.38 15 -1 15 C-1 14.34 -1 13.68 -1 13 C-0.34 13 0.32 13 1 13 C0.67 8.71 0.34 4.42 0 0 Z " fill="#DDF0EE" transform="translate(182,81)"/>
<path d="M0 0 C7.15989917 1.80718609 13.76235418 4.52937154 20.46484375 7.57446289 C23.62260755 9.00155893 26.62302709 10.23153705 30 11 C30 11.66 30 12.32 30 13 C33.6678852 14.96189209 36.87248551 16.39301257 41 17 C40.34 18.32 39.68 19.64 39 21 C34.04283354 19.20377977 29.50934594 16.67325669 24.875 14.1875 C12.89329604 7.46278664 12.89329604 7.46278664 0 3 C0 2.01 0 1.02 0 0 Z " fill="#C5C0B5" transform="translate(163,4)"/>
<path d="M0 0 C0.66 0 1.32 0 2 0 C0.08481527 5.87613497 -1.98281793 11.66384817 -4.23046875 17.421875 C-5.02579822 20.0864306 -5.14414946 22.23630693 -5 25 C-1.11649732 24.43384016 0.75770314 22.66155353 3.5625 20 C7.27617263 16.57241771 11.01385519 13.19905606 14.875 9.9375 C15.75929687 9.18339844 16.64359375 8.42929688 17.5546875 7.65234375 C20 6 20 6 24 6 C26.25 7.5 26.25 7.5 28 9 C26.96488281 8.73316406 25.92976563 8.46632813 24.86328125 8.19140625 C20.93489318 7.6058927 20.93489318 7.6058927 18.04296875 10.02734375 C17.07325805 10.97951446 16.12203055 11.95077787 15.1875 12.9375 C14.14776827 13.95380623 13.10607314 14.96810739 12.0625 15.98046875 C11.54945312 16.48884277 11.03640625 16.9972168 10.5078125 17.52099609 C1.10632771 26.74285407 1.10632771 26.74285407 -3.17578125 27.265625 C-5.125 27 -5.125 27 -8 26 C-8.33904545 20.30256233 -7.3423191 16.42264704 -5.125 11.3125 C-4.85558594 10.66216797 -4.58617188 10.01183594 -4.30859375 9.34179688 C-2.98276578 6.16951092 -1.59003424 3.04885206 0 0 Z " fill="#E0DFD7" transform="translate(116,119)"/>
<path d="M0 0 C2.4375 0.1875 2.4375 0.1875 3.4375 1.1875 C3.77031492 4.46930789 3.76234546 7.76597906 3.8125 11.0625 C3.84988281 11.98675781 3.88726562 12.91101563 3.92578125 13.86328125 C3.95895567 16.4029673 3.94425982 18.69756622 3.4375 21.1875 C0.9140625 23.3203125 0.9140625 23.3203125 -1.5625 24.1875 C-2.5525 23.5275 -3.5425 22.8675 -4.5625 22.1875 C-4.75 19.5625 -4.75 19.5625 -4.5625 17.1875 C-3.5725 17.1875 -2.5825 17.1875 -1.5625 17.1875 C-1.2325 18.1775 -0.9025 19.1675 -0.5625 20.1875 C0.0975 20.5175 0.7575 20.8475 1.4375 21.1875 C1.4375 18.8775 1.4375 16.5675 1.4375 14.1875 C0.4475 13.8575 -0.5425 13.5275 -1.5625 13.1875 C-0.9025 13.1875 -0.2425 13.1875 0.4375 13.1875 C0.4375 10.2175 0.4375 7.2475 0.4375 4.1875 C-0.2225 4.1875 -0.8825 4.1875 -1.5625 4.1875 C-1.5625 6.8275 -1.5625 9.4675 -1.5625 12.1875 C-2.5525 12.1875 -3.5425 12.1875 -4.5625 12.1875 C-4.61645478 10.56286158 -4.65527195 8.93771459 -4.6875 7.3125 C-4.71070313 6.40757813 -4.73390625 5.50265625 -4.7578125 4.5703125 C-4.47165573 1.07919991 -3.45791449 0.25301813 0 0 Z " fill="#CABBA5" transform="translate(250.5625,68.8125)"/>
<path d="M0 0 C0.99 0.33 1.98 0.66 3 1 C3.1875 3.375 3.1875 3.375 3 6 C2.01 6.66 1.02 7.32 0 8 C1.2375 8.61875 1.2375 8.61875 2.5 9.25 C3.325 9.8275 4.15 10.405 5 11 C5 12.32 5 13.64 5 15 C2.03 15 -0.94 15 -4 15 C-4 14.34 -4 13.68 -4 13 C-4.556875 13.33 -5.11375 13.66 -5.6875 14 C-8.30284522 15.1309601 -10.1806646 15.15662974 -13 15 C-13.33 14.34 -13.66 13.68 -14 13 C-13.195625 12.773125 -12.39125 12.54625 -11.5625 12.3125 C-10.716875 11.879375 -9.87125 11.44625 -9 11 C-8.10613836 8.45224694 -8.10613836 8.45224694 -8 6 C-7.01 6 -6.02 6 -5 6 C-4.67 7.32 -4.34 8.64 -4 10 C-3.67 7.69 -3.34 5.38 -3 3 C-2.01 3 -1.02 3 0 3 C0 2.01 0 1.02 0 0 Z " fill="#AA9E8C" transform="translate(72,79)"/>
<path d="M0 0 C2.12398808 2.12398808 2.84788642 3.71659144 4.0625 6.4375 C6.67214526 11.8370363 10.16147294 16.07081199 14.109375 20.5546875 C15.87858442 22.8429625 16.60662045 24.18077987 17 27 C15.68 27.33 14.36 27.66 13 28 C12.34 26.35 11.68 24.7 11 23 C10.34 23 9.68 23 9 23 C-1.43556354 9.09429726 -1.43556354 9.09429726 -0.6875 2.0625 C-0.460625 1.381875 -0.23375 0.70125 0 0 Z " fill="#1A191D" transform="translate(90,79)"/>
<path d="M0 0 C0.66 0 1.32 0 2 0 C2.33 2.97 2.66 5.94 3 9 C3.33 9 3.66 9 4 9 C4.33 6.69 4.66 4.38 5 2 C5.66 2 6.32 2 7 2 C6.98839844 2.63808594 6.97679687 3.27617188 6.96484375 3.93359375 C6.95582031 4.75988281 6.94679687 5.58617188 6.9375 6.4375 C6.92589844 7.26121094 6.91429687 8.08492187 6.90234375 8.93359375 C6.76732652 10.99163938 6.76732652 10.99163938 8 12 C8.04092937 14.33297433 8.04241723 16.66705225 8 19 C7.01 18.67 6.02 18.34 5 18 C5 17.01 5 16.02 5 15 C4.01 15 3.02 15 2 15 C2 17.64 2 20.28 2 23 C0.35 23 -1.3 23 -3 23 C-2.67 22.34 -2.34 21.68 -2 21 C-1.34 21 -0.68 21 0 21 C0 14.07 0 7.14 0 0 Z " fill="#7C7467" transform="translate(244,71)"/>
<path d="M0 0 C0.33 0.99 0.66 1.98 1 3 C-0.54672989 5.05169171 -2.32329865 6.76064721 -4.140625 8.57421875 C-9.26653784 15.26159664 -9.4050381 21.91204507 -9.1875 30 C-9.17396484 30.96550781 -9.16042969 31.93101563 -9.14648438 32.92578125 C-9.11145458 35.28445425 -9.06234084 37.64191771 -9 40 C-9.495 38.515 -9.495 38.515 -10 37 C-10.66 37 -11.32 37 -12 37 C-13.41585809 26.42371062 -13.58780683 16.45987562 -7.0625 7.5 C-4.85323051 4.85548789 -2.53392365 2.33900645 0 0 Z " fill="#F0F8F7" transform="translate(98,32)"/>
<path d="M0 0 C-3.21304264 3.21304264 -7.63068748 4.47566896 -11.79492188 6.16992188 C-20.73052902 9.92740143 -20.73052902 9.92740143 -26.4375 17.3125 C-26.623125 18.199375 -26.80875 19.08625 -27 20 C-27.66 19.34 -28.32 18.68 -29 18 C-29.66 18.33 -30.32 18.66 -31 19 C-29.32678194 12.86486712 -24.85777832 8.74489349 -19.5625 5.51171875 C-13.30119606 2.2760754 -7.18449233 -0.43542378 0 0 Z " fill="#1B9787" transform="translate(122,26)"/>
<path d="M0 0 C1.2065625 0.0309375 1.2065625 0.0309375 2.4375 0.0625 C2.7675 1.3825 3.0975 2.7025 3.4375 4.0625 C4.0975 4.0625 4.7575 4.0625 5.4375 4.0625 C5.7675 5.0525 6.0975 6.0425 6.4375 7.0625 C5.7775 7.0625 5.1175 7.0625 4.4375 7.0625 C4.293125 7.701875 4.14875 8.34125 4 9 C3.4375 11.0625 3.4375 11.0625 2.4375 12.0625 C-0.0625 12.1875 -0.0625 12.1875 -2.5625 12.0625 C-3.5625 11.0625 -3.5625 11.0625 -3.6953125 8.8125 C-3.69273438 7.905 -3.69015625 6.9975 -3.6875 6.0625 C-3.69007812 5.155 -3.69265625 4.2475 -3.6953125 3.3125 C-3.50465529 0.08254264 -3.25740423 0.07944888 0 0 Z " fill="#ADDBD6" transform="translate(124.5625,81.9375)"/>
<path d="M0 0 C1.98 0 3.96 0 6 0 C6.33 1.65 6.66 3.3 7 5 C7.99 4.34 8.98 3.68 10 3 C10 2.01 10 1.02 10 0 C11.65 0 13.3 0 15 0 C13.7934375 1.546875 13.7934375 1.546875 12.5625 3.125 C10.22200704 6.37127696 9.29641289 8.94902383 9 13 C9.66 13 10.32 13 11 13 C11 13.66 11 14.32 11 15 C8.69 15 6.38 15 4 15 C4.04640625 14.41992188 4.0928125 13.83984375 4.140625 13.2421875 C4.41012568 7.40942269 3.71217436 4.5242125 0 0 Z " fill="#E5F3F2" transform="translate(196,81)"/>
<path d="M0 0 C1.93719378 -0.05406122 3.87481921 -0.09282025 5.8125 -0.125 C6.89144531 -0.14820312 7.97039062 -0.17140625 9.08203125 -0.1953125 C12 0 12 0 15 2 C15 3.32 15 4.64 15 6 C14.01 6 13.02 6 12 6 C11.67 5.01 11.34 4.02 11 3 C9.35 3 7.7 3 6 3 C5.97301811 4.62490954 5.95361243 6.24994633 5.9375 7.875 C5.92589844 8.77992187 5.91429688 9.68484375 5.90234375 10.6171875 C5.83750743 13.0168585 5.83750743 13.0168585 7 15 C5.02 15 3.04 15 1 15 C1.33 10.71 1.66 6.42 2 2 C1.34 2 0.68 2 0 2 C0 1.34 0 0.68 0 0 Z " fill="#F3F9F9" transform="translate(116,80)"/>
<path d="M0 0 C1.32 0 2.64 0 4 0 C4 0.66 4 1.32 4 2 C3.01 2.495 3.01 2.495 2 3 C1.01638089 5.19800832 1.01638089 5.19800832 0.16015625 7.875 C-0.18080078 8.85984375 -0.52175781 9.8446875 -0.87304688 10.859375 C-1.5822808 12.9519404 -2.2880159 15.04569494 -2.99023438 17.140625 C-3.33248047 18.12546875 -3.67472656 19.1103125 -4.02734375 20.125 C-4.33406006 21.03507812 -4.64077637 21.94515625 -4.95678711 22.8828125 C-5.30104736 23.58148437 -5.64530762 24.28015625 -6 25 C-10.25061356 26.41687119 -12.71851625 25.19320039 -17 24 C-16.34 23.34 -15.68 22.68 -15 22 C-11.375 22.375 -11.375 22.375 -8 23 C-7.90847656 22.36707031 -7.81695312 21.73414062 -7.72265625 21.08203125 C-6.71365713 16.77878637 -5.07163006 12.78738669 -3.4375 8.6875 C-3.10814453 7.85154297 -2.77878906 7.01558594 -2.43945312 6.15429688 C-1.63001123 4.10136454 -0.81676543 2.05002714 0 0 Z " fill="#E5E3DD" transform="translate(159,4)"/>
<path d="M0 0 C0.66 0 1.32 0 2 0 C2 7.26 2 14.52 2 22 C2.66 21.67 3.32 21.34 4 21 C4.46898963 18.1840151 4.46898963 18.1840151 4.625 14.9375 C4.73714844 13.28041016 4.73714844 13.28041016 4.8515625 11.58984375 C4.90054688 10.73519531 4.94953125 9.88054687 5 9 C7.68092691 11.68092691 7.38670257 13.39167363 7.625 17.125 C7.69976562 18.22070312 7.77453125 19.31640625 7.8515625 20.4453125 C7.90054688 21.28835937 7.94953125 22.13140625 8 23 C4.7 23 1.4 23 -2 23 C-1.67 22.34 -1.34 21.68 -1 21 C-0.84824451 19.40737934 -0.75099675 17.80935144 -0.68359375 16.2109375 C-0.64169922 15.26992187 -0.59980469 14.32890625 -0.55664062 13.359375 C-0.51732422 12.37453125 -0.47800781 11.3896875 -0.4375 10.375 C-0.39431641 9.38242188 -0.35113281 8.38984375 -0.30664062 7.3671875 C-0.20038931 4.91160162 -0.09835036 2.45591297 0 0 Z " fill="#2E2C29" transform="translate(41,71)"/>
<path d="M0 0 C4.79562044 3.72992701 4.79562044 3.72992701 6.75 6.3125 C9.42675423 8.32006567 10.25078391 8.20295883 13.5 7.9375 C17.08766608 7.37195658 19.28522891 6.4975894 22 4 C22.66 4 23.32 4 24 4 C22.125 8.875 22.125 8.875 21 10 C19.5112814 10.08669432 18.018555 10.10703494 16.52734375 10.09765625 C15.62822266 10.09443359 14.72910156 10.09121094 13.80273438 10.08789062 C12.85720703 10.07951172 11.91167969 10.07113281 10.9375 10.0625 C9.98810547 10.05798828 9.03871094 10.05347656 8.06054688 10.04882812 C5.70696935 10.0370011 3.35351523 10.02052025 1 10 C0.77183594 8.83210938 0.77183594 8.83210938 0.5390625 7.640625 C0.20388426 5.99873739 -0.17649569 4.36461552 -0.625 2.75 C-0.74875 2.1725 -0.8725 1.595 -1 1 C-0.67 0.67 -0.34 0.34 0 0 Z " fill="#D7EDEB" transform="translate(157,86)"/>
<path d="M0 0 C2.475 0.495 2.475 0.495 5 1 C4.67 8.26 4.34 15.52 4 23 C3.01 23 2.02 23 1 23 C0.38794237 15.3164908 -0.13292199 7.70947565 0 0 Z " fill="#CFC0A9" transform="translate(37,69)"/>
<path d="M0 0 C-0.37577711 6.13769283 -2.0419407 9.26963644 -6 14 C-6.66 14 -7.32 14 -8 14 C-9.54255211 7.11784443 -9.54255211 7.11784443 -8.09375 4.1328125 C-5.384009 0.679545 -4.49535316 0 0 0 Z " fill="#FCF7EC" transform="translate(187,32)"/>
<path d="M0 0 C0.33 1.32 0.66 2.64 1 4 C0.01 4 -0.98 4 -2 4 C-1.566875 4.91523437 -1.13375 5.83046875 -0.6875 6.7734375 C0.1478125 8.55621094 0.1478125 8.55621094 1 10.375 C1.556875 11.55835937 2.11375 12.74171875 2.6875 13.9609375 C4 17 4 17 4 19 C2.68 19 1.36 19 0 19 C-0.33 17.35 -0.66 15.7 -1 14 C-2.65 14 -4.3 14 -6 14 C-4.68 13.67 -3.36 13.34 -2 13 C-2.66 11.68 -3.32 10.36 -4 9 C-4.99 9 -5.98 9 -7 9 C-6.34 7.02 -5.68 5.04 -5 3 C-3.35 3 -1.7 3 0 3 C0 2.01 0 1.02 0 0 Z " fill="#D6EDEA" transform="translate(144,76)"/>
<path d="M0 0 C-0.33 2.31 -0.66 4.62 -1 7 C-1.66 6.67 -2.32 6.34 -3 6 C-3 5.01 -3 4.02 -3 3 C-3.66 3 -4.32 3 -5 3 C-4.01 5.64 -3.02 8.28 -2 11 C-2.66 11.66 -3.32 12.32 -4 13 C-4.66 13 -5.32 13 -6 13 C-8.20914 9.68629 -8.22481553 8.6553979 -8.125 4.8125 C-8.10695313 3.91144531 -8.08890625 3.01039062 -8.0703125 2.08203125 C-8.04710938 1.39496094 -8.02390625 0.70789063 -8 0 C-5.13822943 -1.43088528 -3.06624227 -0.59991697 0 0 Z " fill="#C1B49F" transform="translate(36,70)"/>
<path d="M0 0 C3 0.125 3 0.125 4 1.125 C4.1875 4.5625 4.1875 4.5625 4 8.125 C3.34 8.785 2.68 9.445 2 10.125 C-2.55555556 9.56944444 -2.55555556 9.56944444 -4 8.125 C-4.125 4.625 -4.125 4.625 -4 1.125 C-3 0.125 -3 0.125 0 0 Z " fill="#F04744" transform="translate(129,104.875)"/>
<path d="M0 0 C0.99 0.66 1.98 1.32 3 2 C3.29296875 5.2578125 3.29296875 5.2578125 3.1875 9.125 C3.16042969 10.40632813 3.13335937 11.68765625 3.10546875 13.0078125 C3.07066406 13.99523437 3.03585937 14.98265625 3 16 C3.99 16 4.98 16 6 16 C5.67 17.32 5.34 18.64 5 20 C4.34 20 3.68 20 3 20 C2.34 20.99 1.68 21.98 1 23 C-2.125 23.1875 -2.125 23.1875 -5 23 C-5 22.34 -5 21.68 -5 21 C-3.68 20.34 -2.36 19.68 -1 19 C-0.67 12.73 -0.34 6.46 0 0 Z " fill="#171717" transform="translate(254,71)"/>
<path d="M0 0 C0.66 0 1.32 0 2 0 C2 1.32 2 2.64 2 4 C2.99 4 3.98 4 5 4 C5 4.66 5 5.32 5 6 C4.34 6 3.68 6 3 6 C3.12568359 7.33804688 3.12568359 7.33804688 3.25390625 8.703125 C3.40666016 10.45882812 3.40666016 10.45882812 3.5625 12.25 C3.66691406 13.41015625 3.77132813 14.5703125 3.87890625 15.765625 C3.98198087 18.51871477 3.86213473 20.419982 3 23 C1.35 23 -0.3 23 -2 23 C-1.01 19.535 -1.01 19.535 0 16 C0.66 16 1.32 16 2 16 C1.34 15.01 0.68 14.02 0 13 C-0.1953125 9.86328125 -0.1953125 9.86328125 -0.125 6.3125 C-0.09792969 4.54326172 -0.09792969 4.54326172 -0.0703125 2.73828125 C-0.04710937 1.83464844 -0.02390625 0.93101563 0 0 Z " fill="#262320" transform="translate(263,71)"/>
<path d="M0 0 C1.65 0.33 3.3 0.66 5 1 C5 4.63 5 8.26 5 12 C0.41154237 10.85288559 -0.54264494 9.91356547 -3 6 C-2.82560493 2.94808622 -2.18741485 2.18741485 0 0 Z " fill="#139786" transform="translate(162,82)"/>
<path d="M0 0 C2.67313051 1.9917443 5.33840713 3.99289718 8 6 C8.5141748 6.38575195 9.02834961 6.77150391 9.55810547 7.16894531 C23.43895146 17.60105768 23.43895146 17.60105768 27 22 C26.6328125 24.1640625 26.6328125 24.1640625 26 26 C25.01 26 24.02 26 23 26 C23.33 24.68 23.66 23.36 24 22 C13.30715661 12.60972918 13.30715661 12.60972918 1.6953125 4.40234375 C1.13585937 3.93957031 0.57640625 3.47679687 0 3 C0 2.01 0 1.02 0 0 Z " fill="#EFE9DB" transform="translate(202,23)"/>
<path d="M0 0 C0.66 0 1.32 0 2 0 C4.4294516 3.6441774 4.16179575 5.71241272 4 10 C2.68 10 1.36 10 0 10 C-0.66 12.64 -1.32 15.28 -2 18 C-2.33 18 -2.66 18 -3 18 C-3 13.05 -3 8.1 -3 3 C-2.01 3 -1.02 3 0 3 C0 2.01 0 1.02 0 0 Z " fill="#5F594F" transform="translate(62,70)"/>
<path d="M0 0 C0.66 0.33 1.32 0.66 2 1 C2 1.99 2 2.98 2 4 C2.99 3.67 3.98 3.34 5 3 C5.99 3.66 6.98 4.32 8 5 C6.64763423 7.93879484 5.10057341 10.29232911 3 12.75 C2.484375 13.36359375 1.96875 13.9771875 1.4375 14.609375 C0 16 0 16 -2 16 C-1.505 14.2675 -1.505 14.2675 -1 12.5 C0.08401934 8.22499413 0.15701377 4.39638547 0 0 Z " fill="#149784" transform="translate(177,42)"/>
<path d="M0 0 C3.72890255 -0.1164862 7.45733514 -0.18734576 11.1875 -0.25 C12.77014648 -0.30027344 12.77014648 -0.30027344 14.38476562 -0.3515625 C22.20668167 -0.45026176 22.20668167 -0.45026176 26.1796875 1.8046875 C28.72121157 4.86978735 28.93191793 7.05124004 29 11 C28.0625 14.4375 28.0625 14.4375 27 17 C22.05 17.495 22.05 17.495 17 18 C20 16 20 16 22.625 15 C25.15139938 14.23952738 25.15139938 14.23952738 26 12 C26.41673207 8.54199641 26.41673207 8.54199641 26 5 C23.09574296 2.10202018 20.82236298 1.60530125 16.796875 1.48828125 C15.8171875 1.45283203 14.8375 1.41738281 13.828125 1.38085938 C12.30445313 1.34702148 12.30445313 1.34702148 10.75 1.3125 C9.71875 1.27833984 8.6875 1.24417969 7.625 1.20898438 C5.08344188 1.12661907 2.54222374 1.05743166 0 1 C0 0.67 0 0.34 0 0 Z " fill="#E8807F" transform="translate(195,101)"/>
<path d="M0 0 C7.26 0 14.52 0 22 0 C21.67 0.66 21.34 1.32 21 2 C19.824375 1.9690625 19.824375 1.9690625 18.625 1.9375 C16.01885039 1.81315937 16.01885039 1.81315937 14 3 C13.01 2.67 12.02 2.34 11 2 C10.67 3.65 10.34 5.3 10 7 C8.35 7 6.7 7 5 7 C5 5.02 5 3.04 5 1 C3.35 1.33 1.7 1.66 0 2 C0 1.34 0 0.68 0 0 Z " fill="#9DD5CE" transform="translate(181,80)"/>
<path d="M0 0 C0.33 0 0.66 0 1 0 C1.33 3.3 1.66 6.6 2 10 C3.65 10 5.3 10 7 10 C6.25 16.75 6.25 16.75 4 19 C1.375 19.125 1.375 19.125 -1 19 C-1.33 18.34 -1.66 17.68 -2 17 C-1.67 16.34 -1.34 15.68 -1 15 C-0.76827173 12.45384991 -0.58105471 9.92603775 -0.4375 7.375 C-0.39431641 6.66859375 -0.35113281 5.9621875 -0.30664062 5.234375 C-0.20055249 3.48981463 -0.09977111 1.74493303 0 0 Z " fill="#9F9483" transform="translate(58,73)"/>
<path d="M0 0 C0.66 0.33 1.32 0.66 2 1 C0.73147606 2.60599349 -0.539911 4.20972575 -1.8125 5.8125 C-2.87404297 7.15248047 -2.87404297 7.15248047 -3.95703125 8.51953125 C-7.17323031 12.42447657 -7.17323031 12.42447657 -9 14 C-9.66 14 -10.32 14 -11 14 C-11.11922584 11.07896689 -11.15216364 9.62916637 -10 7 C-6.90465339 4.26850163 -3.53917777 2.11322956 0 0 Z " fill="#159685" transform="translate(153,45)"/>
<path d="M0 0 C1.32 0 2.64 0 4 0 C4.12375 0.94875 4.2475 1.8975 4.375 2.875 C4.71687177 6.08667191 4.71687177 6.08667191 7 8 C6.01 8 5.02 8 4 8 C4.66 10.31 5.32 12.62 6 15 C3.69 15 1.38 15 -1 15 C-1 14.34 -1 13.68 -1 13 C-0.34 13 0.32 13 1 13 C0.67 8.71 0.34 4.42 0 0 Z " fill="#EFF8F7" transform="translate(182,81)"/>
<path d="M0 0 C1.34028459 2.68056917 0.77570686 4.08858764 0.1875 7 C0.01605469 7.886875 -0.15539062 8.77375 -0.33203125 9.6875 C-1 12 -1 12 -3 14 C-4.32 14 -5.64 14 -7 14 C-6.82612422 8.95760232 -6.61012754 6.1121372 -2.9375 2.5 C-1.968125 1.675 -0.99875 0.85 0 0 Z " fill="#1A9887" transform="translate(171,47)"/>
<path d="M0 0 C0.70576172 0.63228516 0.70576172 0.63228516 1.42578125 1.27734375 C2.35970703 2.09912109 2.35970703 2.09912109 3.3125 2.9375 C3.92738281 3.48277344 4.54226562 4.02804688 5.17578125 4.58984375 C7.05241958 6.20081559 7.05241958 6.20081559 10 7 C9.3125 8.9375 9.3125 8.9375 8 11 C5.375 11.75 5.375 11.75 3 12 C1.03698408 8.49461443 0.04097612 4.86648272 -1 1 C-0.67 0.67 -0.34 0.34 0 0 Z " fill="#1A191D" transform="translate(106,113)"/>
<path d="M0 0 C2.1875 0.3125 2.1875 0.3125 4 1 C4 1.66 4 2.32 4 3 C7.6678852 4.96189209 10.87248551 6.39301257 15 7 C14.34 8.32 13.68 9.64 13 11 C9.20950293 9.57250019 5.72877544 7.83763458 2.1875 5.875 C0.72376953 5.06675781 0.72376953 5.06675781 -0.76953125 4.2421875 C-1.50558594 3.83226562 -2.24164063 3.42234375 -3 3 C-1.63671875 1.48046875 -1.63671875 1.48046875 0 0 Z " fill="#A4A099" transform="translate(189,14)"/>
<path d="M0 0 C0.33 0 0.66 0 1 0 C1 6.93 1 13.86 1 21 C0.01 21 -0.98 21 -2 21 C-2.0543965 18.62468606 -2.09385864 16.25064117 -2.125 13.875 C-2.14175781 13.20984375 -2.15851563 12.5446875 -2.17578125 11.859375 C-2.21847278 7.50483944 -1.59996217 4.04399886 0 0 Z " fill="#D1C2AB" transform="translate(269,71)"/>
<path d="M0 0 C0.33 0 0.66 0 1 0 C1 2.31 1 4.62 1 7 C2.32 7.33 3.64 7.66 5 8 C5 8.66 5 9.32 5 10 C4.34 10 3.68 10 3 10 C3 11.65 3 13.3 3 15 C2.01 15.495 2.01 15.495 1 16 C0.34 15.34 -0.32 14.68 -1 14 C-0.625 11.875 -0.625 11.875 0 10 C-0.99 9.67 -1.98 9.34 -3 9 C-2.44271087 5.65626525 -1.64826111 2.96687001 0 0 Z " fill="#C3B5A0" transform="translate(260,77)"/>
<path d="M0 0 C1.98 0 3.96 0 6 0 C6.33 0.99 6.66 1.98 7 3 C6.34 3 5.68 3 5 3 C5 4.32 5 5.64 5 7 C4.34 7 3.68 7 3 7 C3 7.99 3 8.98 3 10 C1.68 10 0.36 10 -1 10 C-0.67 6.7 -0.34 3.4 0 0 Z " fill="#F14E4B" transform="translate(145,105)"/>
<path d="M0 0 C1.98 0 3.96 0 6 0 C6.33 0.99 6.66 1.98 7 3 C6.34 3 5.68 3 5 3 C5 4.32 5 5.64 5 7 C4.34 7 3.68 7 3 7 C3 7.99 3 8.98 3 10 C1.68 10 0.36 10 -1 10 C-0.67 6.7 -0.34 3.4 0 0 Z " fill="#F1524F" transform="translate(136,105)"/>
<path d="M0 0 C0.66 0.33 1.32 0.66 2 1 C2 8.59 2 16.18 2 24 C0.68 24 -0.64 24 -2 24 C-2 23.34 -2 22.68 -2 22 C-1.34 22 -0.68 22 0 22 C0 14.74 0 7.48 0 0 Z " fill="#272522" transform="translate(53,70)"/>
<path d="M0 0 C-0.33 7.26 -0.66 14.52 -1 22 C-1.33 22 -1.66 22 -2 22 C-2.33 16.39 -2.66 10.78 -3 5 C-3.33 5.66 -3.66 6.32 -4 7 C-4.66 7 -5.32 7 -6 7 C-6 6.34 -6 5.68 -6 5 C-6.66 5 -7.32 5 -8 5 C-8 4.01 -8 3.02 -8 2 C-4.90310319 -1.09689681 -4.48560889 -1.12140222 0 0 Z " fill="#A89C8A" transform="translate(245,70)"/>
<path d="M0 0 C3.40312738 1.05875074 6.01353231 2.00902154 9 4 C9 4.66 9 5.32 9 6 C9.598125 6.28875 10.19625 6.5775 10.8125 6.875 C13 8 13 8 16 10 C15.67 10.99 15.34 11.98 15 13 C9.7515879 9.60602684 4.60145788 6.24749959 0 2 C0 1.34 0 0.68 0 0 Z " fill="#1F1E22" transform="translate(204,23)"/>
<path d="M0 0 C0.99 0 1.98 0 3 0 C3.66 3.63 4.32 7.26 5 11 C3.68 11 2.36 11 1 11 C1 10.34 1 9.68 1 9 C0.34 9 -0.32 9 -1 9 C-1.09765625 2.84765625 -1.09765625 2.84765625 -1 1 C-0.67 0.67 -0.34 0.34 0 0 Z " fill="#8B8274" transform="translate(46,71)"/>
<path d="M0 0 C0.99 0 1.98 0 3 0 C3.99 3.3 4.98 6.6 6 10 C4.68 10 3.36 10 2 10 C2.33 8.68 2.66 7.36 3 6 C1.68 6 0.36 6 -1 6 C-1 7.32 -1 8.64 -1 10 C-1.66 10 -2.32 10 -3 10 C-2.49287967 6.28111761 -1.88391785 3.26545761 0 0 Z " fill="#F36765" transform="translate(192,105)"/>
<path d="M0 0 C1.98 0 3.96 0 6 0 C6 0.99 6 1.98 6 3 C5.01 2.67 4.02 2.34 3 2 C2.67 2.66 2.34 3.32 2 4 C2.99 3.67 3.98 3.34 5 3 C4.67 3.99 4.34 4.98 4 6 C3.34 5.67 2.68 5.34 2 5 C2 5.99 2 6.98 2 8 C3.65 7.67 5.3 7.34 7 7 C7 7.99 7 8.98 7 10 C4.36 10 1.72 10 -1 10 C-0.67 6.7 -0.34 3.4 0 0 Z " fill="#F25B58" transform="translate(164,105)"/>
<path d="M0 0 C1.98 0 3.96 0 6 0 C6 0.99 6 1.98 6 3 C4.68 2.34 3.36 1.68 2 1 C2 1.99 2 2.98 2 4 C2.66 4.33 3.32 4.66 4 5 C3.34 5 2.68 5 2 5 C2 5.99 2 6.98 2 8 C3.98 7.34 5.96 6.68 8 6 C7.34 7.32 6.68 8.64 6 10 C3.69 10 1.38 10 -1 10 C-0.67 6.7 -0.34 3.4 0 0 Z " fill="#F04B47" transform="translate(209,105)"/>
<path d="M0 0 C2.31 0.66 4.62 1.32 7 2 C7 3.32 7 4.64 7 6 C4.36 6.33 1.72 6.66 -1 7 C-1.04254356 5.00045254 -1.04080783 2.99958364 -1 1 C-0.67 0.67 -0.34 0.34 0 0 Z " fill="#FDE9E9" transform="translate(118,106)"/>
<path d="M0 0 C0.33 0 0.66 0 1 0 C1.33719047 2.56204544 1.66987153 5.12454318 2 7.6875 C2.09539062 8.40873047 2.19078125 9.12996094 2.2890625 9.87304688 C2.76683735 13.60992871 3.11919794 17.22291531 3 21 C2.67 20.01 2.34 19.02 2 18 C1.34 18 0.68 18 0 18 C-0.19620767 15.93831015 -0.38160753 13.87559002 -0.5625 11.8125 C-0.66691406 10.66394531 -0.77132812 9.51539063 -0.87890625 8.33203125 C-0.98859985 5.31368801 -0.74002389 2.91076064 0 0 Z " fill="#C4CDCD" transform="translate(86,51)"/>
<path d="M0 0 C1.32 0.66 2.64 1.32 4 2 C3.6875 4.375 3.6875 4.375 3 7 C2.01 7.66 1.02 8.32 0 9 C-1.32 8.01 -2.64 7.02 -4 6 C-2.84826645 3.53199953 -1.95216435 1.95216435 0 0 Z " fill="#1F9B8A" transform="translate(187,50)"/>
<path d="M0 0 C1.98 0 3.96 0 6 0 C6 0.99 6 1.98 6 3 C4.68 2.34 3.36 1.68 2 1 C2 1.99 2 2.98 2 4 C2.66 4.33 3.32 4.66 4 5 C3.34 5 2.68 5 2 5 C2 5.99 2 6.98 2 8 C3.65 7.67 5.3 7.34 7 7 C6.67 7.99 6.34 8.98 6 10 C3.69 10 1.38 10 -1 10 C-0.67 6.7 -0.34 3.4 0 0 Z " fill="#F25A57" transform="translate(154,105)"/>
<path d="M0 0 C1.4540625 0.0309375 1.4540625 0.0309375 2.9375 0.0625 C2.6075 1.0525 2.2775 2.0425 1.9375 3.0625 C0.9475 2.7325 -0.0425 2.4025 -1.0625 2.0625 C-1.3925 4.0425 -1.7225 6.0225 -2.0625 8.0625 C-0.0825 7.7325 1.8975 7.4025 3.9375 7.0625 C2.9475 8.5475 2.9475 8.5475 1.9375 10.0625 C-2.8125 9.3125 -2.8125 9.3125 -5.0625 7.0625 C-4.35089733 0.08879382 -4.35089733 0.08879382 0 0 Z " fill="#F26562" transform="translate(119.0625,104.9375)"/>
<path d="M0 0 C1.15957207 3.47871621 0.77456651 4.34219645 -0.4375 7.6875 C-0.72496094 8.49574219 -1.01242188 9.30398437 -1.30859375 10.13671875 C-1.53675781 10.75160156 -1.76492187 11.36648437 -2 12 C-3.32 12 -4.64 12 -6 12 C-5.43958106 7.23643901 -3.41302403 3.41302403 0 0 Z " fill="#179887" transform="translate(161,46)"/>
<path d="M0 0 C0.94875 0.04125 1.8975 0.0825 2.875 0.125 C2.875 1.115 2.875 2.105 2.875 3.125 C2.215 3.125 1.555 3.125 0.875 3.125 C0.875 2.465 0.875 1.805 0.875 1.125 C-0.115 1.455 -1.105 1.785 -2.125 2.125 C-2.125 3.775 -2.125 5.425 -2.125 7.125 C-0.475 7.125 1.175 7.125 2.875 7.125 C2.875 7.785 2.875 8.445 2.875 9.125 C0.895 9.455 -1.085 9.785 -3.125 10.125 C-5.27415785 6.90126323 -5.50786803 5.85796326 -5.125 2.125 C-3.125 0.125 -3.125 0.125 0 0 Z " fill="#F25F5D" transform="translate(184.125,104.875)"/>
<path d="M0 0 C0.66 0.33 1.32 0.66 2 1 C2.02688151 2.64574566 2.04634123 4.29161413 2.0625 5.9375 C2.07410156 6.85402344 2.08570313 7.77054687 2.09765625 8.71484375 C2 11 2 11 1 12 C-0.99958364 12.04080783 -3.00045254 12.04254356 -5 12 C-5.33 11.34 -5.66 10.68 -6 10 C-4.35 9.34 -2.7 8.68 -1 8 C-0.67 5.36 -0.34 2.72 0 0 Z " fill="#1D1C1B" transform="translate(36,82)"/>
<path d="M0 0 C1.485 0.99 1.485 0.99 3 2 C2.88658509 4.48020497 2.75985314 6.95844969 2.625 9.4375 C2.5940625 10.14455078 2.563125 10.85160156 2.53125 11.58007812 C2.42719371 13.39239188 2.22080108 15.19817988 2 17 C1.34 17.33 0.68 17.66 0 18 C0 12.06 0 6.12 0 0 Z " fill="#3A3631" transform="translate(254,71)"/>
<path d="M0 0 C3.64780666 4.1689219 6 9.44803736 6 15 C5.34 15 4.68 15 4 15 C3.34 12.36 2.68 9.72 2 7 C-0.31 6.67 -2.62 6.34 -5 6 C-5 5.67 -5 5.34 -5 5 C-3.35 5 -1.7 5 0 5 C0 3.35 0 1.7 0 0 Z " fill="#B5CFCD" transform="translate(211,75)"/>
<path d="M0 0 C0.33 0 0.66 0 1 0 C1.16840479 3.08324097 1.33441862 6.16660621 1.5 9.25 C1.54769531 10.12269531 1.59539062 10.99539062 1.64453125 11.89453125 C1.71220703 13.16103516 1.71220703 13.16103516 1.78125 14.453125 C1.82314453 15.22817383 1.86503906 16.00322266 1.90820312 16.80175781 C1.99441537 18.86626582 2 20.9336927 2 23 C0.35 23 -1.3 23 -3 23 C-2.67 22.34 -2.34 21.68 -2 21 C-1.34 21 -0.68 21 0 21 C0 14.07 0 7.14 0 0 Z " fill="#060607" transform="translate(244,71)"/>
<path d="M0 0 C2.97 0.495 2.97 0.495 6 1 C6 2.98 6 4.96 6 7 C4.02 7 2.04 7 0 7 C0 4.69 0 2.38 0 0 Z " fill="#FAC4C4" transform="translate(156,106)"/>
<path d="M0 0 C1.5 1.375 1.5 1.375 3 3 C3 3.66 3 4.32 3 5 C2.21625 5.268125 1.4325 5.53625 0.625 5.8125 C-2.28114923 6.84814432 -2.28114923 6.84814432 -4 10 C-4.98726527 7.33438378 -5.0275526 6.09873015 -4.25 3.3125 C-3 1 -3 1 0 0 Z " fill="#9ED3CC" transform="translate(139,84)"/>
<path d="M0 0 C3.63094642 2.64960955 5.89851796 5.01824456 8 9 C5.75 9.375 5.75 9.375 3 9 C0.625 6.1875 0.625 6.1875 -1 3 C-0.67 2.01 -0.34 1.02 0 0 Z " fill="#ECF6F5" transform="translate(157,86)"/>
<path d="M0 0 C0.66 0 1.32 0 2 0 C2 2.31 2 4.62 2 7 C1.01 7.33 0.02 7.66 -1 8 C-1 8.99 -1 9.98 -1 11 C-5 5.375 -5 5.375 -5 2 C-4.34 2 -3.68 2 -3 2 C-3 3.32 -3 4.64 -3 6 C-2.34 6 -1.68 6 -1 6 C-0.67 4.02 -0.34 2.04 0 0 Z " fill="#1E1D1B" transform="translate(36,71)"/>
<path d="M0 0 C0.33 0 0.66 0 1 0 C1 2.31 1 4.62 1 7 C-3.25061356 8.41687119 -5.71851625 7.19320039 -10 6 C-9.34 5.34 -8.68 4.68 -8 4 C-4.375 4.375 -4.375 4.375 -1 5 C-0.67 3.35 -0.34 1.7 0 0 Z " fill="#BCCBC8" transform="translate(152,22)"/>
<path d="M0 0 C2.49361571 1.20381448 4.68143083 2.45428722 7 4 C6 5 6 5 3.71484375 5.09765625 C2.34005859 5.08025391 2.34005859 5.08025391 0.9375 5.0625 C0.01839844 5.05347656 -0.90070313 5.04445313 -1.84765625 5.03515625 C-2.55792969 5.02355469 -3.26820312 5.01195313 -4 5 C-2.68 3.35 -1.36 1.7 0 0 Z " fill="#FEF8F8" transform="translate(123,112)"/>
<path d="M0 0 C0.99 0 1.98 0 3 0 C3 1.32 3 2.64 3 4 C1.35 4.33 -0.3 4.66 -2 5 C-2.33 5.99 -2.66 6.98 -3 8 C-3.66 8 -4.32 8 -5 8 C-5 6.02 -5 4.04 -5 2 C-3.35 2 -1.7 2 0 2 C0 1.34 0 0.68 0 0 Z " fill="#191919" transform="translate(74,71)"/>
<path d="M0 0 C1.65 0 3.3 0 5 0 C4.67 0.66 4.34 1.32 4 2 C3.7724985 3.87056791 3.59037189 5.74685958 3.4375 7.625 C3.35371094 8.62789062 3.26992188 9.63078125 3.18359375 10.6640625 C3.12300781 11.43492188 3.06242187 12.20578125 3 13 C0.41073669 10.41073669 0.62601957 8.97294721 0.375 5.375 C0.30023438 4.37210937 0.22546875 3.36921875 0.1484375 2.3359375 C0.09945312 1.56507812 0.05046875 0.79421875 0 0 Z " fill="#CDBEA7" transform="translate(49,69)"/>
<path d="M0 0 C2.31 0 4.62 0 7 0 C7.33 0.99 7.66 1.98 8 3 C5.525 2.01 5.525 2.01 3 1 C3.66 1.66 4.32 2.32 5 3 C4.33333333 5 3.66666667 7 3 9 C2.34 9 1.68 9 1 9 C0.67 6.03 0.34 3.06 0 0 Z " fill="#F1524F" transform="translate(199,105)"/>
<path d="M0 0 C1.93719378 -0.05406122 3.87481921 -0.09282025 5.8125 -0.125 C6.89144531 -0.14820312 7.97039062 -0.17140625 9.08203125 -0.1953125 C12 0 12 0 15 2 C15 3.32 15 4.64 15 6 C14.01 6 13.02 6 12 6 C11.67 5.01 11.34 4.02 11 3 C8.59454362 1.79727181 7.05003047 1.89928528 4.375 1.9375 C3.55773437 1.94652344 2.74046875 1.95554687 1.8984375 1.96484375 C1.27195312 1.97644531 0.64546875 1.98804687 0 2 C0 1.34 0 0.68 0 0 Z " fill="#C0E4E0" transform="translate(116,80)"/>
<path d="M0 0 C2.97 0 5.94 0 9 0 C8.67 1.32 8.34 2.64 8 4 C6.02 4 4.04 4 2 4 C1.34 2.68 0.68 1.36 0 0 Z " fill="#C7B8A3" transform="translate(66,69)"/>
<path d="M0 0 C0 1.65 0 3.3 0 5 C-0.5775 4.79375 -1.155 4.5875 -1.75 4.375 C-4.51967567 3.91338739 -5.64561267 4.57055055 -8 6 C-8 3 -8 3 -6.8125 1.3125 C-4.44258278 -0.40364695 -2.85974334 -0.23187108 0 0 Z " fill="#E7E2BE" transform="translate(191,47)"/>
<path d="M0 0 C1.65 0.33 3.3 0.66 5 1 C5 2.98 5 4.96 5 7 C3.02 7 1.04 7 -1 7 C-1 6.01 -1 5.02 -1 4 C-0.34 3.67 0.32 3.34 1 3 C0.34 3 -0.32 3 -1 3 C-0.67 2.01 -0.34 1.02 0 0 Z " fill="#FAC6C6" transform="translate(167,106)"/>
<path d="M0 0 C0.33 0 0.66 0 1 0 C0.67 3.3 0.34 6.6 0 10 C-6.96428571 12.27678571 -6.96428571 12.27678571 -11 11 C-9.741875 10.67 -8.48375 10.34 -7.1875 10 C-4.49584383 9.02338139 -3.29976478 8.49505128 -1.80078125 6.01953125 C-0.87522247 3.57347894 -0.87522247 3.57347894 0 0 Z " fill="#F19999" transform="translate(223,107)"/>
<path d="M0 0 C0.66 0 1.32 0 2 0 C2.125 3.375 2.125 3.375 2 7 C0 9 0 9 -2.625 9.125 C-3.40875 9.08375 -4.1925 9.0425 -5 9 C-5.33 8.34 -5.66 7.68 -6 7 C-4.7934375 6.6596875 -4.7934375 6.6596875 -3.5625 6.3125 C-2.716875 5.879375 -1.87125 5.44625 -1 5 C-0.10613836 2.45224694 -0.10613836 2.45224694 0 0 Z " fill="#131313" transform="translate(64,85)"/>
<path d="M0 0 C1.98 0 3.96 0 6 0 C5.67 1.65 5.34 3.3 5 5 C3.35 5 1.7 5 0 5 C0 3.35 0 1.7 0 0 Z " fill="#129584" transform="translate(122,89)"/>
<path d="M0 0 C3 2 3 2 3.8125 4.375 C4.02089707 7.29255898 3.53656962 8.5595659 2 11 C0.5907717 8.3694405 -0.52274325 5.95899183 -1 3 C-0.67 2.01 -0.34 1.02 0 0 Z " fill="#6B7173" transform="translate(87,69)"/>
<path d="M0 0 C3.96 1.32 7.92 2.64 12 4 C12 4.66 12 5.32 12 6 C6.94744036 5.36843005 2.70406799 3.86540627 -2 2 C-1.34 1.34 -0.68 0.68 0 0 Z " fill="#BCCAC9" transform="translate(144,127)"/>
<path d="M0 0 C0.99 0.33 1.98 0.66 3 1 C3 2.98 3 4.96 3 7 C1.68 7 0.36 7 -1 7 C-1.04254356 5.00045254 -1.04080783 2.99958364 -1 1 C-0.67 0.67 -0.34 0.34 0 0 Z " fill="#FEF5F5" transform="translate(128,106)"/>
<path d="M0 0 C0.99 0.33 1.98 0.66 3 1 C3 2.32 3 3.64 3 5 C0.03 5 -2.94 5 -6 5 C-6 4.34 -6 3.68 -6 3 C-4.02 3 -2.04 3 0 3 C0 2.01 0 1.02 0 0 Z " fill="#121313" transform="translate(74,89)"/>
<path d="M0 0 C1.65 0 3.3 0 5 0 C5 0.66 5 1.32 5 2 C4.34 2 3.68 2 3 2 C3 3.32 3 4.64 3 6 C2.34 6 1.68 6 1 6 C1 6.99 1 7.98 1 9 C-0.32 9 -1.64 9 -3 9 C-2.67 8.34 -2.34 7.68 -2 7 C-1.34 7.33 -0.68 7.66 0 8 C0 5.36 0 2.72 0 0 Z " fill="#F79E9D" transform="translate(147,106)"/>
<path d="M0 0 C0.66 0.33 1.32 0.66 2 1 C1.6596875 1.8353125 1.6596875 1.8353125 1.3125 2.6875 C0.87784176 5.90397094 2.33881292 7.300571 4 10 C3.67 10.99 3.34 11.98 3 13 C2.13058506 11.76055724 1.27994543 10.50792941 0.4375 9.25 C-0.03816406 8.55390625 -0.51382813 7.8578125 -1.00390625 7.140625 C-2 5 -2 5 -1.71484375 2.796875 C-1 1 -1 1 0 0 Z " fill="#D7E3DF" transform="translate(207,64)"/>
<path d="M0 0 C1.32 0 2.64 0 4 0 C4 0.66 4 1.32 4 2 C3.34 2 2.68 2 2 2 C2 3.32 2 4.64 2 6 C1.34 6 0.68 6 0 6 C0 6.99 0 7.98 0 9 C-1.32 9 -2.64 9 -4 9 C-3.67 8.34 -3.34 7.68 -3 7 C-2.34 7.33 -1.68 7.66 -1 8 C-1.020625 6.865625 -1.04125 5.73125 -1.0625 4.5625 C-1 1 -1 1 0 0 Z " fill="#F79A99" transform="translate(139,106)"/>
<path d="M0 0 C2.31 0.33 4.62 0.66 7 1 C6.67 1.99 6.34 2.98 6 4 C4.02 4.33 2.04 4.66 0 5 C0 3.35 0 1.7 0 0 Z " fill="#0F9482" transform="translate(171,89)"/>
<path d="M0 0 C2.46278801 2.46278801 2.99771255 4.70676982 4 8 C3.34 8.66 2.68 9.32 2 10 C-1.07692308 5.69230769 -1.07692308 5.69230769 -0.6875 2.1875 C-0.460625 1.465625 -0.23375 0.74375 0 0 Z " fill="#212023" transform="translate(90,79)"/>
<path d="M0 0 C0.99 0.33 1.98 0.66 3 1 C2.54625 1.5775 2.0925 2.155 1.625 2.75 C0.15886484 4.7800333 -0.94857784 6.73539843 -2 9 C-2.33 8.34 -2.66 7.68 -3 7 C-3.99 7.495 -3.99 7.495 -5 8 C-3.8141763 4.62496331 -2.72426311 2.35277269 0 0 Z " fill="#1E9B8B" transform="translate(96,37)"/>
<path d="M0 0 C1.27310312 0.93441535 2.543388 1.87267111 3.8125 2.8125 C4.52019531 3.33457031 5.22789062 3.85664063 5.95703125 4.39453125 C7.78531393 5.83128877 9.39896688 7.31815763 11 9 C7.93674247 8.39005934 5.79949366 7.42271989 3.25 5.625 C2.63640625 5.20476563 2.0228125 4.78453125 1.390625 4.3515625 C0.93171875 3.90554687 0.4728125 3.45953125 0 3 C0 2.01 0 1.02 0 0 Z " fill="#E0DBD1" transform="translate(202,23)"/>
<path d="M0 0 C-2.22825644 2.22825644 -3.65761628 2.69239369 -6.625 3.625 C-7.44226563 3.88539062 -8.25953125 4.14578125 -9.1015625 4.4140625 C-9.72804688 4.60742188 -10.35453125 4.80078125 -11 5 C-11.33 4.01 -11.66 3.02 -12 2 C-7.8803623 0.70756464 -4.33168317 -0.26252625 0 0 Z " fill="#40ADA0" transform="translate(122,26)"/>
<path d="M0 0 C1.98 0 3.96 0 6 0 C7.33332095 2.6666419 6.67102033 4.16680303 6 7 C5.67 7 5.34 7 5 7 C4.67 5.35 4.34 3.7 4 2 C3.34 2 2.68 2 2 2 C1.67 3.65 1.34 5.3 1 7 C-0.0625 5.1875 -0.0625 5.1875 -1 3 C-0.67 2.01 -0.34 1.02 0 0 Z " fill="#F3706E" transform="translate(126,105)"/>
<path d="M0 0 C0.66 0.99 1.32 1.98 2 3 C2.66 3 3.32 3 4 3 C4 3.66 4 4.32 4 5 C4.66 5 5.32 5 6 5 C6 5.66 6 6.32 6 7 C4.02 7 2.04 7 0 7 C-1.33332095 4.3333581 -0.67102033 2.83319697 0 0 Z " fill="#C2E4E0" transform="translate(131,89)"/>
<path d="M0 0 C1.32 1.32 2.64 2.64 4 4 C3.34 5.32 2.68 6.64 2 8 C2 7.34 2 6.68 2 6 C1.01 6 0.02 6 -1 6 C-1.042721 4.33388095 -1.04063832 2.66617115 -1 1 C-0.67 0.67 -0.34 0.34 0 0 Z " fill="#169786" transform="translate(155,88)"/>
<path d="M0 0 C2.475 0.495 2.475 0.495 5 1 C4.67 2.32 4.34 3.64 4 5 C2.68 5 1.36 5 0 5 C0 3.35 0 1.7 0 0 Z " fill="#1C9685" transform="translate(187,82)"/>
<path d="M0 0 C-0.56371414 3.26954202 -1.49962266 4.82575883 -4 7 C-4.99 6.34 -5.98 5.68 -7 5 C-2.25 0 -2.25 0 0 0 Z " fill="#F4EED8" transform="translate(202,53)"/>
<path d="M0 0 C0.99 0 1.98 0 3 0 C3.12375 0.61875 3.2475 1.2375 3.375 1.875 C3.87197356 4.19120832 3.87197356 4.19120832 6 6 C4.125 6.625 4.125 6.625 2 7 C0 5 0 5 -0.125 2.375 C-0.08375 1.59125 -0.0425 0.8075 0 0 Z " fill="#BFB19C" transform="translate(246,86)"/>
<path d="M0 0 C1.32 0 2.64 0 4 0 C4 2.31 4 4.62 4 7 C3.01 6.67 2.02 6.34 1 6 C0.67 4.02 0.34 2.04 0 0 Z " fill="#6D665B" transform="translate(248,83)"/>
<path d="M0 0 C1.98 0.99 1.98 0.99 4 2 C4 3.32 4 4.64 4 6 C3.01 6.495 3.01 6.495 2 7 C0 4 0 4 0 0 Z " fill="#2C9F90" transform="translate(186,89)"/>
<path d="M0 0 C0.66 0.33 1.32 0.66 2 1 C2 2.98 2 4.96 2 7 C0.35 7.33 -1.3 7.66 -3 8 C-2.34 7.34 -1.68 6.68 -1 6 C-0.60235737 4.01178687 -0.26224651 2.01055661 0 0 Z " fill="#CFC0AA" transform="translate(34,83)"/>
<path d="M0 0 C0.99 0 1.98 0 3 0 C2.67 2.31 2.34 4.62 2 7 C1.01 6.67 0.02 6.34 -1 6 C-1.042721 4.33388095 -1.04063832 2.66617115 -1 1 C-0.67 0.67 -0.34 0.34 0 0 Z " fill="#CABBA5" transform="translate(62,83)"/>
<path d="M0 0 C1.32 0 2.64 0 4 0 C4 0.66 4 1.32 4 2 C3.01 2.495 3.01 2.495 2 3 C1.27306096 4.97888961 0.60183749 6.97954558 0 9 C-1.125 7.3125 -1.125 7.3125 -2 5 C-1.125 2.25 -1.125 2.25 0 0 Z " fill="#F3F0EA" transform="translate(159,4)"/>
<path d="M0 0 C2.475 0.495 2.475 0.495 5 1 C5 3.64 5 6.28 5 9 C4.67 9 4.34 9 4 9 C4 6.69 4 4.38 4 2 C3.34 2 2.68 2 2 2 C2 2.66 2 3.32 2 4 C1.34 4 0.68 4 0 4 C0 2.68 0 1.36 0 0 Z " fill="#32A395" transform="translate(171,82)"/>
<path d="M0 0 C1.65 0 3.3 0 5 0 C5 1.32 5 2.64 5 4 C3.35 4 1.7 4 0 4 C0 2.68 0 1.36 0 0 Z " fill="#1A9685" transform="translate(122,82)"/>
<path d="M0 0 C0.99 0 1.98 0 3 0 C3.33 1.32 3.66 2.64 4 4 C2.02 4.99 2.02 4.99 0 6 C-1.125 2.25 -1.125 2.25 0 0 Z " fill="#199A89" transform="translate(203,80)"/>
<path d="M0 0 C0.66 0 1.32 0 2 0 C2.1875 2.375 2.1875 2.375 2 5 C-1 7 -1 7 -3 8 C-3 6.35 -3 4.7 -3 3 C-2.01 3 -1.02 3 0 3 C0 2.01 0 1.02 0 0 Z " fill="#060809" transform="translate(73,80)"/>
<path d="M0 0 C0.66 0.33 1.32 0.66 2 1 C2 3.31 2 5.62 2 8 C0.68 7.67 -0.64 7.34 -2 7 C-1.34 4.69 -0.68 2.38 0 0 Z " fill="#1B1A19" transform="translate(64,72)"/>
<path d="M0 0 C0.99 0.99 1.98 1.98 3 3 C2.1875 4.9375 2.1875 4.9375 1 7 C0.01 7.33 -0.98 7.66 -2 8 C-1.34 5.36 -0.68 2.72 0 0 Z " fill="#3DA99B" transform="translate(177,50)"/>
<path d="M0 0 C-0.66 1.32 -1.32 2.64 -2 4 C-4.31 4 -6.62 4 -9 4 C-8 2 -8 2 -5.0625 0.875 C-2 0 -2 0 0 0 Z " fill="#F47A79" transform="translate(217,111)"/>
<path d="M0 0 C0.33 0 0.66 0 1 0 C1 2.31 1 4.62 1 7 C0.01 7.33 -0.98 7.66 -2 8 C-1.125 1.125 -1.125 1.125 0 0 Z " fill="#6B6459" transform="translate(260,77)"/>
<path d="M0 0 C-0.33 1.32 -0.66 2.64 -1 4 C-2.98 4 -4.96 4 -7 4 C-7 3.34 -7 2.68 -7 2 C-2.25 0 -2.25 0 0 0 Z " fill="#1C9989" transform="translate(120,61)"/>
<path d="M0 0 C2 3 2 3 1.7578125 5.04296875 C1.171875 7.02864583 0.5859375 9.01432292 0 11 C-0.33 11 -0.66 11 -1 11 C-2.0257259 6.58937864 -2.03684712 4.07369424 0 0 Z " fill="#DFE7E6" transform="translate(88,45)"/>
<path d="M0 0 C0.66 0 1.32 0 2 0 C2 1.65 2 3.3 2 5 C0.35 5.33 -1.3 5.66 -3 6 C-2.01 4.02 -1.02 2.04 0 0 Z " fill="#F9FCFC" transform="translate(129,89)"/>
<path d="M0 0 C2.475 0.495 2.475 0.495 5 1 C4.34 1.66 3.68 2.32 3 3 C2.60235737 4.98821313 2.26224651 6.98944339 2 9 C1.67 9 1.34 9 1 9 C0.67 6.03 0.34 3.06 0 0 Z " fill="#B8AB97" transform="translate(37,69)"/>
<path d="" fill="#18171B" transform="translate(0,0)"/>
<path d="M0 0 C2 1 2 1 2 1 Z " fill="#121116" transform="translate(195,17)"/>
<path d="" fill="#141316" transform="translate(0,0)"/>
<path d="" fill="#0A0A0E" transform="translate(0,0)"/>
<path d="" fill="#0B0A0F" transform="translate(0,0)"/>
<path d="" fill="#110F13" transform="translate(0,0)"/>
<path d="" fill="#040307" transform="translate(0,0)"/>
<path d="" fill="#111013" transform="translate(0,0)"/>
</svg>
