<?xml version="1.0" encoding="UTF-8"?>
<svg version="1.1" xmlns="http://www.w3.org/2000/svg" width="281" height="96">
<path d="M0 0 C1.258125 0.17144531 2.51625 0.34289062 3.8125 0.51953125 C7 1.1875 7 1.1875 9 3.1875 C11.31150263 3.99758624 13.64562524 4.64827507 16.00390625 5.30859375 C16.99197266 5.74365234 16.99197266 5.74365234 18 6.1875 C18.495 7.6725 18.495 7.6725 19 9.1875 C19.99 9.5175 20.98 9.8475 22 10.1875 C22.6837045 11.51217746 23.34964186 12.84613633 24 14.1875 C24.99 14.8475 25.98 15.5075 27 16.1875 C31.46979018 23.82339156 33.93302058 32.32947162 34 41.1875 C33.505 42.1775 33.505 42.1775 33 43.1875 C32.72690486 45.71471378 32.55442823 48.24161125 32.37890625 50.77734375 C32 53.1875 32 53.1875 30 56.1875 C28.99018757 58.14401159 28.03735449 60.10149779 27.16015625 62.12109375 C25.85990295 64.43703313 24.50516675 65.66354656 22.4375 67.3125 C19.78974334 69.39653634 19.78974334 69.39653634 18 72.1875 C16.68 72.1875 15.36 72.1875 14 72.1875 C13.505 73.6725 13.505 73.6725 13 75.1875 C10.8125 76.25 10.8125 76.25 8 77.1875 C7.0925 77.538125 6.185 77.88875 5.25 78.25 C-1.33792919 80.15036419 -7.23730132 80.46348088 -14 79.1875 C-15.11375 79.043125 -16.2275 78.89875 -17.375 78.75 C-18.674375 78.4715625 -18.674375 78.4715625 -20 78.1875 C-20.495 77.1975 -20.495 77.1975 -21 76.1875 C-21.825 76.0225 -22.65 75.8575 -23.5 75.6875 C-24.325 75.5225 -25.15 75.3575 -26 75.1875 C-26.495 74.1975 -26.495 74.1975 -27 73.1875 C-29.02463255 72.53536708 -29.02463255 72.53536708 -31 72.1875 C-31 71.1975 -31 70.2075 -31 69.1875 C-31.639375 69.084375 -32.27875 68.98125 -32.9375 68.875 C-33.618125 68.648125 -34.29875 68.42125 -35 68.1875 C-35.33 67.1975 -35.66 66.2075 -36 65.1875 C-36.99 64.8575 -37.98 64.5275 -39 64.1875 C-39.3721042 62.86446283 -39.70630173 61.53012065 -40 60.1875 C-40.66 59.8575 -41.32 59.5275 -42 59.1875 C-42.33333333 57.52083333 -42.66666667 55.85416667 -43 54.1875 C-43.66 53.8575 -44.32 53.5275 -45 53.1875 C-45.37890625 50.7890625 -45.37890625 50.7890625 -45.5625 47.8125 C-45.76686657 44.65107425 -45.99377883 42.20616352 -47 39.1875 C-46.33333333 32.85416667 -46.33333333 32.85416667 -45 30.1875 C-44.64386903 28.52555547 -44.30791692 26.859049 -44 25.1875 C-43.34 25.1875 -42.68 25.1875 -42 25.1875 C-42 23.5375 -42 21.8875 -42 20.1875 C-41.34 19.8575 -40.68 19.5275 -40 19.1875 C-39.855625 18.548125 -39.71125 17.90875 -39.5625 17.25 C-39 15.1875 -39 15.1875 -36 13.1875 C-35.67 12.1975 -35.34 11.2075 -35 10.1875 C-33.68 10.1875 -32.36 10.1875 -31 10.1875 C-30.67 8.8675 -30.34 7.5475 -30 6.1875 C-28.68 6.1875 -27.36 6.1875 -26 6.1875 C-26 5.5275 -26 4.8675 -26 4.1875 C-24.35 4.1875 -22.7 4.1875 -21 4.1875 C-20.67 3.1975 -20.34 2.2075 -20 1.1875 C-18.84371094 1.09662109 -18.84371094 1.09662109 -17.6640625 1.00390625 C-16.15972656 0.87822266 -16.15972656 0.87822266 -14.625 0.75 C-13.62726562 0.66878906 -12.62953125 0.58757813 -11.6015625 0.50390625 C-3.43544835 -0.4892698 -3.43544835 -0.4892698 0 0 Z " fill="#582802" transform="translate(57,7.8125)"/>
<path d="M0 0 C1.258125 0.17144531 2.51625 0.34289062 3.8125 0.51953125 C7 1.1875 7 1.1875 9 3.1875 C11.31150263 3.99758624 13.64562524 4.64827507 16.00390625 5.30859375 C16.99197266 5.74365234 16.99197266 5.74365234 18 6.1875 C18.495 7.6725 18.495 7.6725 19 9.1875 C19.99 9.5175 20.98 9.8475 22 10.1875 C22.6837045 11.51217746 23.34964186 12.84613633 24 14.1875 C24.99 14.8475 25.98 15.5075 27 16.1875 C31.46979018 23.82339156 33.93302058 32.32947162 34 41.1875 C33.505 42.1775 33.505 42.1775 33 43.1875 C32.72690486 45.71471378 32.55442823 48.24161125 32.37890625 50.77734375 C32 53.1875 32 53.1875 30 56.1875 C28.99018757 58.14401159 28.03735449 60.10149779 27.16015625 62.12109375 C25.85990295 64.43703313 24.50516675 65.66354656 22.4375 67.3125 C19.78974334 69.39653634 19.78974334 69.39653634 18 72.1875 C16.68 72.1875 15.36 72.1875 14 72.1875 C13.505 73.6725 13.505 73.6725 13 75.1875 C10.8125 76.25 10.8125 76.25 8 77.1875 C7.0925 77.538125 6.185 77.88875 5.25 78.25 C-1.33792919 80.15036419 -7.23730132 80.46348088 -14 79.1875 C-15.11375 79.043125 -16.2275 78.89875 -17.375 78.75 C-18.674375 78.4715625 -18.674375 78.4715625 -20 78.1875 C-20.495 77.1975 -20.495 77.1975 -21 76.1875 C-21.825 76.0225 -22.65 75.8575 -23.5 75.6875 C-24.325 75.5225 -25.15 75.3575 -26 75.1875 C-26.495 74.1975 -26.495 74.1975 -27 73.1875 C-29.02463255 72.53536708 -29.02463255 72.53536708 -31 72.1875 C-31 71.1975 -31 70.2075 -31 69.1875 C-31.639375 69.084375 -32.27875 68.98125 -32.9375 68.875 C-33.618125 68.648125 -34.29875 68.42125 -35 68.1875 C-35.33 67.1975 -35.66 66.2075 -36 65.1875 C-36.99 64.8575 -37.98 64.5275 -39 64.1875 C-39.3721042 62.86446283 -39.70630173 61.53012065 -40 60.1875 C-40.66 59.8575 -41.32 59.5275 -42 59.1875 C-42.33333333 57.52083333 -42.66666667 55.85416667 -43 54.1875 C-43.66 53.8575 -44.32 53.5275 -45 53.1875 C-45.37890625 50.7890625 -45.37890625 50.7890625 -45.5625 47.8125 C-45.76686657 44.65107425 -45.99377883 42.20616352 -47 39.1875 C-46.33333333 32.85416667 -46.33333333 32.85416667 -45 30.1875 C-44.64386903 28.52555547 -44.30791692 26.859049 -44 25.1875 C-43.34 25.1875 -42.68 25.1875 -42 25.1875 C-42 23.5375 -42 21.8875 -42 20.1875 C-41.34 19.8575 -40.68 19.5275 -40 19.1875 C-39.855625 18.548125 -39.71125 17.90875 -39.5625 17.25 C-39 15.1875 -39 15.1875 -36 13.1875 C-35.67 12.1975 -35.34 11.2075 -35 10.1875 C-33.68 10.1875 -32.36 10.1875 -31 10.1875 C-30.67 8.8675 -30.34 7.5475 -30 6.1875 C-28.68 6.1875 -27.36 6.1875 -26 6.1875 C-26 5.5275 -26 4.8675 -26 4.1875 C-24.35 4.1875 -22.7 4.1875 -21 4.1875 C-20.67 3.1975 -20.34 2.2075 -20 1.1875 C-18.84371094 1.09662109 -18.84371094 1.09662109 -17.6640625 1.00390625 C-16.15972656 0.87822266 -16.15972656 0.87822266 -14.625 0.75 C-13.62726562 0.66878906 -12.62953125 0.58757813 -11.6015625 0.50390625 C-3.43544835 -0.4892698 -3.43544835 -0.4892698 0 0 Z M-34 18.1875 C-39.63600995 26.11231211 -41.92537779 34.51441029 -41 44.1875 C-38.94222669 54.81396996 -33.87285289 62.94481422 -25 69.1875 C-15.63934714 74.26811751 -6.25194141 75.80547533 4.1875 73.0625 C13.19587185 69.99794312 20.83501933 63.0786587 25.32421875 54.72265625 C29.01008912 45.915366 29.66284167 36.03850297 26.5625 26.9375 C22.08333436 17.33024367 13.98331778 9.91505625 4.1796875 6.0859375 C-10.74639236 1.86849479 -23.99667024 6.93826815 -34 18.1875 Z " fill="#0080C6" transform="translate(57,7.8125)"/>
<path d="M0 0 C0.99 0 1.98 0 3 0 C3.31227539 0.96413818 3.62455078 1.92827637 3.94628906 2.92163086 C5.10760735 6.49232072 6.29044979 10.05556289 7.47998047 13.61694336 C7.9920851 15.16023902 8.49830618 16.70549983 8.99853516 18.25268555 C9.71805733 20.47465551 10.45835073 22.68873009 11.203125 24.90234375 C11.42309143 25.5971434 11.64305786 26.29194305 11.86968994 27.00779724 C12.57130278 29.1740128 12.57130278 29.1740128 14 32 C16.00640403 33.14265573 16.00640403 33.14265573 18 33 C19.31775285 31.90812017 19.31775285 31.90812017 19.11352539 29.22436523 C19.10828857 28.01466064 19.10305176 26.80495605 19.09765625 25.55859375 C19.09443359 24.25341797 19.09121094 22.94824219 19.08789062 21.60351562 C19.07953401 20.2148431 19.07106905 18.82617123 19.0625 17.4375 C19.05748666 16.04492344 19.05292347 14.65234519 19.04882812 13.25976562 C19.03699434 9.8398013 19.0205088 6.41992156 19 3 C18.01 3 17.02 3 16 3 C16 2.01 16 1.02 16 0 C18.6881249 -0.08164159 21.373723 -0.14079668 24.0625 -0.1875 C24.81466797 -0.21263672 25.56683594 -0.23777344 26.34179688 -0.26367188 C31.66777162 -0.33284038 35.27134901 0.51091602 40 3 C41.5 4.75 41.5 4.75 42 7 C41.47916667 13.04166667 41.47916667 13.04166667 40 16 C39.34 16 38.68 16 38 16 C38 16.66 38 17.32 38 18 C38.639375 18.28875 39.27875 18.5775 39.9375 18.875 C42 20 42 20 43 22 C43.57884232 29.06187625 43.57884232 29.06187625 41.1875 32.9375 C37.35517521 36.5508348 33.45531609 36.13395023 28.48828125 36.09765625 C27.76005661 36.0962413 27.03183197 36.09482635 26.28153992 36.09336853 C23.95848461 36.08777659 21.63552612 36.07522562 19.3125 36.0625 C17.73632952 36.05748396 16.16015752 36.05292123 14.58398438 36.04882812 C10.72261902 36.0378098 6.86132592 36.02055074 3 36 C3 35.34 3 34.68 3 34 C3.66 34 4.32 34 5 34 C4.67 31.36 4.34 28.72 4 26 C0.7 26 -2.6 26 -6 26 C-6.33 28.64 -6.66 31.28 -7 34 C-6.01 34 -5.02 34 -4 34 C-4 34.66 -4 35.32 -4 36 C-7.3 36 -10.6 36 -14 36 C-13.34 34.68 -12.68 33.36 -12 32 C-11.45841417 30.56112507 -10.94266018 29.11233785 -10.44921875 27.65625 C-10.16506104 26.82706055 -9.88090332 25.99787109 -9.58813477 25.14355469 C-9.29092529 24.27118164 -8.99371582 23.39880859 -8.6875 22.5 C-6.05745226 14.8687877 -3.25879382 7.38860165 0 0 Z M27 3 C27 7.29 27 11.58 27 16 C30.9714169 15.37158027 30.9714169 15.37158027 33 13 C33.50007794 9.54213985 33.50007794 9.54213985 33 6 C31.2515605 3.97891823 31.2515605 3.97891823 29 3 C28.34 3 27.68 3 27 3 Z M-1 13 C-1.99 16.3 -2.98 19.6 -4 23 C-1.69 23 0.62 23 3 23 C2.01 19.7 1.02 16.4 0 13 C-0.33 13 -0.66 13 -1 13 Z M27 19 C26.97291433 20.60407328 26.95356517 22.2082785 26.9375 23.8125 C26.92589844 24.70582031 26.91429687 25.59914063 26.90234375 26.51953125 C26.88990033 29.13413791 26.88990033 29.13413791 28 32 C31.29075996 31.62095792 31.29075996 31.62095792 34 30 C34.40383662 25.95689347 34.40383662 25.95689347 34 22 C31.59140121 19.97170628 30.16955691 19 27 19 Z " fill="#0082C8" transform="translate(142,20)"/>
<path d="M0 0 C2.1977198 0.73488422 4.37366739 1.50321258 6.5390625 2.328125 C6.8690625 1.338125 7.1990625 0.348125 7.5390625 -0.671875 C8.1990625 -0.671875 8.8590625 -0.671875 9.5390625 -0.671875 C9.5390625 3.948125 9.5390625 8.568125 9.5390625 13.328125 C8.8790625 13.328125 8.2190625 13.328125 7.5390625 13.328125 C7.1471875 12.235 6.7553125 11.141875 6.3515625 10.015625 C5.22004879 7.42781124 4.5208982 6.31203662 2.3515625 4.390625 C-1.52760721 2.92516089 -4.31919179 2.98863765 -8.4609375 3.328125 C-10.66014246 5.14912647 -10.66014246 5.14912647 -10.8984375 7.703125 C-10.69124631 10.440395 -10.69124631 10.440395 -8.6484375 12.265625 C-5.82413706 14.09311352 -3.00955844 15.6028134 -0.0234375 17.140625 C4.85028064 19.76189503 8.86908508 22.35719143 11.5390625 27.328125 C12.35430316 32.49131586 11.49954806 36.03064596 8.5390625 40.328125 C3.02443638 44.60477383 -1.61031647 45.07391578 -8.4609375 44.328125 C-11.20361677 43.80528792 -13.77824023 43.12299827 -16.4609375 42.328125 C-16.4609375 42.988125 -16.4609375 43.648125 -16.4609375 44.328125 C-17.1209375 44.328125 -17.7809375 44.328125 -18.4609375 44.328125 C-18.4609375 39.048125 -18.4609375 33.768125 -18.4609375 28.328125 C-17.8009375 28.328125 -17.1409375 28.328125 -16.4609375 28.328125 C-16.13480469 29.02679688 -15.80867188 29.72546875 -15.47265625 30.4453125 C-15.03566406 31.35539062 -14.59867188 32.26546875 -14.1484375 33.203125 C-13.71917969 34.10804687 -13.28992187 35.01296875 -12.84765625 35.9453125 C-11.5409987 38.59261976 -11.5409987 38.59261976 -8.4609375 40.328125 C-6.24511161 40.64372824 -6.24511161 40.64372824 -3.8984375 40.578125 C-3.11339844 40.58328125 -2.32835938 40.5884375 -1.51953125 40.59375 C0.76197218 40.51241762 0.76197218 40.51241762 2.5390625 38.328125 C3.3735217 34.9570087 3.3735217 34.9570087 2.5390625 31.328125 C0.1733509 29.14439122 -2.62492205 27.81879097 -5.4609375 26.328125 C-15.99848435 20.03653911 -15.99848435 20.03653911 -18.4609375 14.328125 C-18.85446315 10.36475953 -18.69979966 6.84707774 -16.11328125 3.67578125 C-10.94915501 -0.7016722 -6.64720687 -1.81479299 0 0 Z " fill="#F2B02D" transform="translate(54.4609375,25.671875)"/>
<path d="M0 0 C3.60604896 -0.89767602 6.41202403 -1.04811798 10 0 C13.99694391 3.9004268 16.97664709 8.32931517 20 13 C21.98 15.97 21.98 15.97 24 19 C24.33 13.72 24.66 8.44 25 3 C24.01 3 23.02 3 22 3 C22 2.01 22 1.02 22 0 C25.3 0 28.6 0 32 0 C32 0.99 32 1.98 32 3 C31.01 3 30.02 3 29 3 C29 13.89 29 24.78 29 36 C24.85874696 34.96468674 24.49156828 34.86714522 22.203125 31.69140625 C21.71972656 31.02689453 21.23632812 30.36238281 20.73828125 29.67773438 C20.24714844 28.97970703 19.75601563 28.28167969 19.25 27.5625 C18.74339844 26.86833984 18.23679688 26.17417969 17.71484375 25.45898438 C14 20.28724099 14 20.28724099 14 18 C13.34 18 12.68 18 12 18 C11.01 16.35 10.02 14.7 9 13 C9 19.93 9 26.86 9 34 C9.99 34 10.98 34 12 34 C12 34.66 12 35.32 12 36 C8.04 36 4.08 36 0 36 C0 35.34 0 34.68 0 34 C1.485 33.505 1.485 33.505 3 33 C3.07409401 29.04907941 3.12857406 25.09842706 3.16479492 21.14697266 C3.18732251 19.14080626 3.2254357 17.13483474 3.26367188 15.12890625 C3.27333984 13.87207031 3.28300781 12.61523438 3.29296875 11.3203125 C3.31653442 9.57645264 3.31653442 9.57645264 3.34057617 7.79736328 C3.22818604 6.8742334 3.1157959 5.95110352 3 5 C2.01 4.34 1.02 3.68 0 3 C0 2.01 0 1.02 0 0 Z " fill="#0082C8" transform="translate(204,20)"/>
<path d="M0 0 C8.25 0 16.5 0 25 0 C25 3.63 25 7.26 25 11 C24.01 11 23.02 11 22 11 C21.855625 10.236875 21.71125 9.47375 21.5625 8.6875 C19.09464031 4.44278133 15.63568244 4.25825666 11 3 C11.33 6.96 11.66 10.92 12 15 C15.1490712 12.2981424 15.1490712 12.2981424 16 9 C16.99 9 17.98 9 19 9 C19 14.61 19 20.22 19 26 C18.01 26 17.02 26 16 26 C15.67 24.35 15.34 22.7 15 21 C13.68 20.67 12.36 20.34 11 20 C11 23.96 11 27.92 11 32 C16.51862424 31.8771086 16.51862424 31.8771086 20.9375 29.125 C22.11048543 26.90424596 22.11048543 26.90424596 23 24 C23.99 24 24.98 24 26 24 C26 27.96 26 31.92 26 36 C17.42 36 8.84 36 0 36 C0 35.34 0 34.68 0 34 C0.99 33.34 1.98 32.68 3 32 C3.4181217 28.99147392 3.4181217 28.99147392 3.29296875 25.4609375 C3.28330078 24.15898438 3.27363281 22.85703125 3.26367188 21.515625 C3.23860388 20.13541077 3.21320902 18.75520244 3.1875 17.375 C3.17245517 15.98699337 3.15876641 14.59897133 3.14648438 13.2109375 C3.1110257 9.80690491 3.06160298 6.40364378 3 3 C2.01 3 1.02 3 0 3 C0 2.01 0 1.02 0 0 Z " fill="#0080C7" transform="translate(238,20)"/>
<path d="M0 0 C0.33 2.64 0.66 5.28 1 8 C1.33 7.67 1.66 7.34 2 7 C3.63472882 6.91299658 5.27314055 6.89298937 6.91015625 6.90234375 C8.39418945 6.90717773 8.39418945 6.90717773 9.90820312 6.91210938 C10.94912109 6.92048828 11.99003906 6.92886719 13.0625 6.9375 C14.62967773 6.94426758 14.62967773 6.94426758 16.22851562 6.95117188 C18.8190666 6.96300087 21.40950559 6.97948311 24 7 C24.495 10.465 24.495 10.465 25 14 C25.02708567 12.39592672 25.04643483 10.7917215 25.0625 9.1875 C25.07410156 8.29417969 25.08570313 7.40085937 25.09765625 6.48046875 C25.11009967 3.86586209 25.11009967 3.86586209 24 1 C25.65 0.67 27.3 0.34 29 0 C29.495 8.415 29.495 8.415 30 17 C23.52223761 17.14829346 17.04546227 17.25719276 10.56640625 17.32958984 C8.36245516 17.35976762 6.1586242 17.40071558 3.95507812 17.45263672 C0.78745917 17.52540634 -2.37857292 17.55944647 -5.546875 17.5859375 C-6.53242371 17.61690521 -7.51797241 17.64787292 -8.53338623 17.67977905 C-11.15918806 17.68107159 -13.45161251 17.63538513 -16 17 C-18.52832031 14.02587891 -18.52832031 14.02587891 -20 11 C-20.66 10.67 -21.32 10.34 -22 10 C-22 11.65 -22 13.3 -22 15 C-21.34 15 -20.68 15 -20 15 C-20 15.66 -20 16.32 -20 17 C-22.31 17 -24.62 17 -27 17 C-26.34 12.71 -25.68 8.42 -25 4 C-25.66 4 -26.32 4 -27 4 C-27 3.01 -27 2.02 -27 1 C-23.7 1 -20.4 1 -17 1 C-16.67 2.98 -16.34 4.96 -16 7 C-11.71 7 -7.42 7 -3 7 C-3.33 5.02 -3.66 3.04 -4 1 C-2 0 -2 0 0 0 Z M-22 4 C-22 5.32 -22 6.64 -22 8 C-20.68 7.34 -19.36 6.68 -18 6 C-18.33 5.34 -18.66 4.68 -19 4 C-19.99 4 -20.98 4 -22 4 Z M-6 9 C-6 10.65 -6 12.3 -6 14 C-5.01 14 -4.02 14 -3 14 C-3 12.35 -3 10.7 -3 9 C-3.99 9 -4.98 9 -6 9 Z M19 9 C18.67 9.66 18.34 10.32 18 11 C18.66 11 19.32 11 20 11 C19.67 10.34 19.34 9.68 19 9 Z M13 10 C13 11.65 13 13.3 13 15 C13.66 15 14.32 15 15 15 C16.63676257 13.0399719 16.63676257 13.0399719 18 11 C16.35 10.67 14.7 10.34 13 10 Z M-14 12 C-13.67 12.99 -13.34 13.98 -13 15 C-12.01 14.01 -11.02 13.02 -10 12 C-11.32 12 -12.64 12 -14 12 Z M9 10 C9 10.66 9 11.32 9 12 C7.35 12 5.7 12 4 12 C4 12.66 4 13.32 4 14 C5.65 13.67 7.3 13.34 9 13 C9.33 13.66 9.66 14.32 10 15 C10 13.35 10 11.7 10 10 C9.67 10 9.34 10 9 10 Z " fill="#552400" transform="translate(130,59)"/>
<path d="M0 0 C0.78826172 0.02255859 1.57652344 0.04511719 2.38867188 0.06835938 C4.32243929 0.12695839 6.25522167 0.21663173 8.1875 0.3125 C8.1875 4.2725 8.1875 8.2325 8.1875 12.3125 C7.1975 12.3125 6.2075 12.3125 5.1875 12.3125 C4.506875 10.889375 4.506875 10.889375 3.8125 9.4375 C2.38511746 6.30936321 2.38511746 6.30936321 0.1875 4.3125 C-1.80071313 3.91485737 -3.80194339 3.57474651 -5.8125 3.3125 C-6.61203138 6.59946233 -6.90908936 8.02273192 -5.8125 11.3125 C-3.82195124 12.00687747 -1.81994615 12.66860218 0.1875 13.3125 C3.375 15.25 3.375 15.25 6.1875 17.3125 C7.0846875 17.9621875 7.0846875 17.9621875 8 18.625 C9.99253543 21.45649772 10.07356236 23.89437086 10.1875 27.3125 C9.19789969 30.85085507 7.81350933 33.68649067 5.1875 36.3125 C-0.28675972 37.44476595 -5.33963827 37.38037546 -10.8125 36.3125 C-12.2975 36.8075 -12.2975 36.8075 -13.8125 37.3125 C-13.8125 32.6925 -13.8125 28.0725 -13.8125 23.3125 C-12.8225 23.3125 -11.8325 23.3125 -10.8125 23.3125 C-10.44125 24.405625 -10.07 25.49875 -9.6875 26.625 C-8.3326201 29.85838489 -7.83591962 30.29826455 -4.625 32.25 C-3.2328125 32.7759375 -3.2328125 32.7759375 -1.8125 33.3125 C-0.4925 32.3225 0.8275 31.3325 2.1875 30.3125 C2.16795641 28.44730265 2.16795641 28.44730265 1.1875 26.3125 C-1.45965197 24.30708184 -4.14836065 22.5727817 -6.9765625 20.84375 C-11.08693718 18.19607622 -13.09830051 15.89397562 -14.8125 11.3125 C-14.8125 7.42330488 -14.14723375 5.75577848 -11.80078125 2.6484375 C-7.75971307 -0.51046285 -4.96253978 -0.27038146 0 0 Z " fill="#0081C8" transform="translate(118.8125,19.6875)"/>
<path d="M0 0 C0 4.95 0 9.9 0 15 C0.66 15 1.32 15 2 15 C1.505 11.04 1.505 11.04 1 7 C3.97 6.34 6.94 5.68 10 5 C10 5.66 10 6.32 10 7 C10.99 7 11.98 7 13 7 C13 7.66 13 8.32 13 9 C12.01 9 11.02 9 10 9 C10 10.65 10 12.3 10 14 C10.99 14 11.98 14 13 14 C12.67 14.99 12.34 15.98 12 17 C8.04907941 17.07409401 4.09842706 17.12857406 0.14697266 17.16479492 C-1.85919374 17.18732251 -3.86516526 17.2254357 -5.87109375 17.26367188 C-7.12792969 17.27333984 -8.38476562 17.28300781 -9.6796875 17.29296875 C-11.42354736 17.31653442 -11.42354736 17.31653442 -13.20263672 17.34057617 C-14.1257666 17.22818604 -15.04889648 17.1157959 -16 17 C-18 14 -18 14 -18 10 C-18.66 10 -19.32 10 -20 10 C-20 11.65 -20 13.3 -20 15 C-19.34 15 -18.68 15 -18 15 C-18 15.66 -18 16.32 -18 17 C-20.58445773 17.1081866 -23.16437352 17.18737237 -25.75 17.25 C-26.47960937 17.28351563 -27.20921875 17.31703125 -27.9609375 17.3515625 C-31.51095942 17.41610835 -33.56816373 17.31350633 -36.48046875 15.19921875 C-38.73140304 11.94143981 -38.61048933 9.86643244 -38 6 C-35.875 3.0625 -35.875 3.0625 -33 1 C-28.85775694 0.42008597 -27.51824511 0.65450326 -24 3 C-24 4.32 -24 5.64 -24 7 C-17.07 7 -10.14 7 -3 7 C-3.495 4.03 -3.495 4.03 -4 1 C-2 0 -2 0 0 0 Z M-32 4 C-33.78969026 6.42672567 -33.78969026 6.42672567 -35 9 C-33.20477791 12.6329961 -33.20477791 12.6329961 -30.0625 15 C-27.8881966 15.15372967 -27.8881966 15.15372967 -25.75 13.875 C-23.79390313 12.10852444 -23.79390313 12.10852444 -23.5 9.5 C-23.78720507 6.89393194 -23.78720507 6.89393194 -25.75 5.1875 C-28.16556624 3.68882759 -28.16556624 3.68882759 -32 4 Z M-5 9 C-5.33 10.32 -5.66 11.64 -6 13 C-5.01 13.33 -4.02 13.66 -3 14 C-3 12.35 -3 10.7 -3 9 C-3.66 9 -4.32 9 -5 9 Z M6 9 C6 10.98 6 12.96 6 15 C6.33 15 6.66 15 7 15 C7 13.02 7 11.04 7 9 C6.67 9 6.34 9 6 9 Z M-15 12 C-14.67 12.66 -14.34 13.32 -14 14 C-12.68 13.67 -11.36 13.34 -10 13 C-10 12.67 -10 12.34 -10 12 C-11.65 12 -13.3 12 -15 12 Z " fill="#562300" transform="translate(201,59)"/>
<path d="M0 0 C2.31 0 4.62 0 7 0 C7 0.99 7 1.98 7 3 C6.34 3 5.68 3 5 3 C5.33 5.97 5.66 8.94 6 12 C7.32 12.33 8.64 12.66 10 13 C10.33 9.7 10.66 6.4 11 3 C10.34 3 9.68 3 9 3 C9.33 2.01 9.66 1.02 10 0 C11.65 0 13.3 0 15 0 C14.67 1.98 14.34 3.96 14 6 C16.97 6 19.94 6 23 6 C23 8.64 23 11.28 23 14 C23.66 14 24.32 14 25 14 C24.67 11.36 24.34 8.72 24 6 C24.804375 6.185625 25.60875 6.37125 26.4375 6.5625 C27.283125 6.706875 28.12875 6.85125 29 7 C29.33 6.67 29.66 6.34 30 6 C31.33043625 5.9016279 32.66593344 5.86921408 34 5.8671875 C34.804375 5.86589844 35.60875 5.86460938 36.4375 5.86328125 C37.283125 5.86714844 38.12875 5.87101562 39 5.875 C40.2684375 5.86919922 40.2684375 5.86919922 41.5625 5.86328125 C42.366875 5.86457031 43.17125 5.86585937 44 5.8671875 C44.7425 5.86831543 45.485 5.86944336 46.25 5.87060547 C48 6 48 6 49 7 C49.23192865 8.51469448 49.41215238 10.03754562 49.5625 11.5625 C49.64628906 12.38878906 49.73007812 13.21507813 49.81640625 14.06640625 C49.87699219 14.70449219 49.93757813 15.34257813 50 16 C43.48554795 16.0505939 36.97114632 16.08568856 30.45654297 16.10986328 C28.23907579 16.11993825 26.02162195 16.13359859 23.80419922 16.15087891 C20.62203688 16.17506163 17.44004976 16.18646797 14.2578125 16.1953125 C12.76400558 16.21079636 12.76400558 16.21079636 11.24002075 16.22659302 C9.85881546 16.22681961 9.85881546 16.22681961 8.44970703 16.22705078 C7.6369632 16.231492 6.82421936 16.23593323 5.98684692 16.24050903 C4 16 4 16 2 14 C1.8046875 11.3984375 1.8046875 11.3984375 1.875 8.375 C1.89304688 7.37210937 1.91109375 6.36921875 1.9296875 5.3359375 C1.95289063 4.56507812 1.97609375 3.79421875 2 3 C1.34 3 0.68 3 0 3 C0 2.01 0 1.02 0 0 Z M19 8 C17.70366379 9.06645115 17.70366379 9.06645115 17.9375 11.5625 C17.958125 12.366875 17.97875 13.17125 18 14 C18.66 14 19.32 14 20 14 C20 12.02 20 10.04 20 8 C19.67 8 19.34 8 19 8 Z M32 8 C32 9.65 32 11.3 32 13 C33.32 13 34.64 13 36 13 C35.67 11.35 35.34 9.7 35 8 C34.01 8 33.02 8 32 8 Z M39 8 C39 9.98 39 11.96 39 14 C39.33 14 39.66 14 40 14 C40 12.02 40 10.04 40 8 C39.67 8 39.34 8 39 8 Z M43 8 C43 9.98 43 11.96 43 14 C43.66 14 44.32 14 45 14 C45 12.02 45 10.04 45 8 C44.34 8 43.68 8 43 8 Z M14 9 C13.67 10.65 13.34 12.3 13 14 C13.66 14 14.32 14 15 14 C15 12.35 15 10.7 15 9 C14.67 9 14.34 9 14 9 Z " fill="#552500" transform="translate(216,60)"/>
<path d="M0 0 C4.62 0 9.24 0 14 0 C14 0.99 14 1.98 14 3 C13.01 3 12.02 3 11 3 C11.33 12.9 11.66 22.8 12 33 C12.66 33.33 13.32 33.66 14 34 C14 34.66 14 35.32 14 36 C9.38 36 4.76 36 0 36 C0 35.34 0 34.68 0 34 C0.99 33.34 1.98 32.68 3 32 C3.41789089 29.08935621 3.41789089 29.08935621 3.29296875 25.6796875 C3.28330078 24.42285156 3.27363281 23.16601562 3.26367188 21.87109375 C3.2259668 19.89302734 3.2259668 19.89302734 3.1875 17.875 C3.17245483 16.53517097 3.15876613 15.19532596 3.14648438 13.85546875 C3.11102872 10.56991158 3.06160849 7.28515418 3 4 C2.01 3.67 1.02 3.34 0 3 C0 2.01 0 1.02 0 0 Z " fill="#0081C7" transform="translate(187,20)"/>
<path d="M0 0 C0.66 0 1.32 0 2 0 C2.32613281 0.69867188 2.65226562 1.39734375 2.98828125 2.1171875 C3.42527344 3.02726562 3.86226562 3.93734375 4.3125 4.875 C4.74175781 5.77992187 5.17101563 6.68484375 5.61328125 7.6171875 C6.9199388 10.26449476 6.9199388 10.26449476 10 12 C10 12.99 10 13.98 10 15 C7.36 14.67 4.72 14.34 2 14 C2 14.66 2 15.32 2 16 C1.34 16 0.68 16 0 16 C0 10.72 0 5.44 0 0 Z " fill="#E7A62A" transform="translate(36,54)"/>
<path d="M0 0 C0.66 0 1.32 0 2 0 C2 4.62 2 9.24 2 14 C1.34 14 0.68 14 0 14 C-0.61875 12.39125 -0.61875 12.39125 -1.25 10.75 C-2.63739149 7.47734926 -4.27999908 5.34482838 -7 3 C-4.50907189 1.75453595 -3.58919267 2.2232422 -1 3 C-0.67 2.01 -0.34 1.02 0 0 Z " fill="#E3A329" transform="translate(62,25)"/>
<path d="M0 0 C0.66 0 1.32 0 2 0 C2 1.32 2 2.64 2 4 C3.32 4.33 4.64 4.66 6 5 C5.835 5.61875 5.67 6.2375 5.5 6.875 C4.92365356 8.96063386 4.92365356 8.96063386 5 11 C4.236875 10.814375 3.47375 10.62875 2.6875 10.4375 C-0.08967375 9.77180827 -0.08967375 9.77180827 -3 11 C-2.979375 10.21625 -2.95875 9.4325 -2.9375 8.625 C-2.81315937 6.01885039 -2.81315937 6.01885039 -4 4 C-2.68 4 -1.36 4 0 4 C0 2.68 0 1.36 0 0 Z " fill="#E5DDD8" transform="translate(73,42)"/>
<path d="M0 0 C0.66 0 1.32 0 2 0 C2.33 0.99 2.66 1.98 3 3 C5.00016466 4.20882096 5.00016466 4.20882096 7 5 C6.01 5.495 6.01 5.495 5 6 C4.7525 6.66 4.505 7.32 4.25 8 C3 10 3 10 -0.125 10.75 C-1.548125 10.87375 -1.548125 10.87375 -3 11 C-2.979375 10.21625 -2.95875 9.4325 -2.9375 8.625 C-2.81315937 6.01885039 -2.81315937 6.01885039 -4 4 C-2.68 4 -1.36 4 0 4 C0 2.68 0 1.36 0 0 Z " fill="#E8E1DC" transform="translate(26,42)"/>
<path d="M0 0 C0.99 0.33 1.98 0.66 3 1 C2.67 1.99 2.34 2.98 2 4 C1.01 4 0.02 4 -1 4 C-0.67 2.68 -0.34 1.36 0 0 Z " fill="#572200" transform="translate(204,60)"/>
<path d="M0 0 C0.66 0 1.32 0 2 0 C2 1.32 2 2.64 2 4 C1.01 4 0.02 4 -1 4 C-0.67 2.68 -0.34 1.36 0 0 Z " fill="#562200" transform="translate(242,60)"/>
</svg>
